if (_typeface_js && _typeface_js.loadFace) _typeface_js.loadFace({"glyphs":{"0":{"ha":889,"x_min":4,"x_max":785,"o":"m 443 1229 q 577 1203 521 1229 q 672 1135 633 1178 q 732 1038 710 1093 q 766 921 754 982 q 781 798 778 860 q 785 682 785 736 q 776 555 785 626 q 748 407 767 483 q 701 258 729 331 q 636 128 674 185 q 551 35 599 71 q 446 0 503 0 q 286 27 354 0 q 169 101 218 54 q 88 208 119 147 q 38 335 56 268 q 12 472 19 403 q 4 603 4 540 q 7 657 4 622 q 15 732 10 692 q 31 813 21 772 q 53 888 40 854 q 83 942 65 921 q 121 963 100 963 q 135 963 128 963 q 149 961 142 963 q 188 1061 164 1013 q 248 1147 213 1110 q 331 1207 283 1185 q 443 1229 379 1229 m 594 682 q 594 755 594 710 q 592 850 594 800 q 585 951 590 900 q 572 1042 581 1001 q 549 1109 563 1083 q 515 1135 535 1135 q 420 1092 461 1135 q 352 978 379 1049 q 312 818 325 907 q 299 638 299 729 q 302 592 299 613 q 304 557 306 572 q 294 533 303 542 q 258 525 285 525 q 211 532 236 525 l 211 485 q 215 430 211 468 q 229 345 219 392 q 255 249 239 299 q 293 157 271 199 q 345 89 315 115 q 413 63 375 63 q 469 90 443 63 q 515 165 494 118 q 549 273 535 211 q 574 403 564 335 q 590 544 585 472 q 594 682 594 615 z "},"1":{"ha":614,"x_min":-7,"x_max":556,"o":"m 344 1011 q 278 908 313 963 q 190 796 244 854 q 104 734 143 744 q 40 733 65 724 q 3 763 14 743 q 3 794 -7 783 q 16 808 13 804 q 26 817 19 811 q 45 837 32 824 q 86 881 58 850 q 158 974 128 931 q 213 1054 188 1017 q 263 1125 239 1092 q 314 1188 286 1158 q 353 1217 332 1207 q 396 1229 374 1226 q 444 1233 410 1238 q 488 1217 467 1231 q 524 1183 508 1203 q 547 1143 539 1164 q 554 1106 556 1122 q 535 1009 554 1076 q 494 847 517 942 q 453 633 472 751 q 435 385 435 515 q 440 209 435 283 q 447 85 446 135 q 442 12 449 36 q 411 -12 435 -12 q 364 11 385 -12 q 327 74 343 35 q 301 164 311 113 q 283 271 290 215 q 274 383 276 326 q 271 490 271 440 q 282 656 271 565 q 307 825 293 746 q 344 1011 322 918 z "},"2":{"ha":990,"x_min":0,"x_max":981,"o":"m 424 203 q 627 188 526 200 q 807 151 728 175 q 933 92 886 128 q 976 10 981 57 q 946 -70 972 -44 q 888 -93 919 -96 q 854 -76 879 -93 q 787 -33 829 -58 q 686 20 744 -8 q 553 69 628 49 q 447 99 500 86 q 344 118 394 111 q 226 28 285 61 q 117 -6 168 -6 q 60 3 82 -6 q 24 24 38 11 q 6 52 11 38 q 0 79 0 67 q 12 117 0 93 q 64 161 24 140 q 125 183 88 175 q 149 188 136 186 q 178 193 163 190 l 283 199 q 367 328 326 257 q 438 476 407 399 q 488 635 469 554 q 507 796 507 717 q 506 890 507 836 q 499 990 506 943 q 477 1070 492 1038 q 433 1103 463 1103 q 393 1085 414 1103 q 352 1040 372 1068 q 314 979 332 1013 q 283 913 296 946 q 261 853 269 881 q 253 810 253 825 q 256 767 253 786 q 258 735 260 749 q 249 713 257 721 q 215 706 240 706 q 167 715 190 706 q 126 738 144 724 q 96 769 107 751 q 85 804 85 788 q 88 849 85 815 q 100 925 90 882 q 128 1015 110 968 q 178 1101 147 1063 q 256 1166 210 1140 q 367 1192 301 1192 q 526 1159 464 1192 q 624 1071 588 1126 q 674 944 660 1015 q 688 796 688 872 q 667 652 688 729 q 610 497 646 575 q 526 343 574 419 q 424 203 478 267 m 81 26 q 146 53 108 26 q 226 128 183 81 q 135 121 176 129 q 106 113 118 118 q 57 54 57 93 l 58 54 q 63 35 57 43 q 81 26 69 26 z "},"3":{"ha":776,"x_min":-7,"x_max":721,"o":"m 504 719 q 661 626 611 690 q 716 482 711 561 q 685 319 721 403 q 588 165 650 235 q 440 51 525 96 q 261 7 356 7 q 159 22 210 7 q 70 69 108 38 q 13 146 32 100 q 3 253 -7 192 q 22 300 8 286 q 49 313 36 314 q 72 296 63 311 q 76 254 81 281 q 88 215 72 231 q 125 191 103 200 q 172 178 147 182 q 208 175 196 175 q 371 210 303 175 q 479 300 439 246 q 533 417 519 354 q 532 536 546 481 q 476 631 518 592 q 367 675 435 669 q 250 663 283 654 q 219 704 217 672 q 233 729 221 719 q 266 743 246 739 q 312 747 286 747 q 365 743 338 747 q 445 790 411 753 q 499 875 479 826 q 521 978 518 924 q 509 1078 524 1032 q 460 1153 494 1124 q 369 1183 425 1183 q 320 1167 347 1183 q 269 1120 293 1150 q 226 1047 244 1090 q 201 951 207 1004 q 201 913 199 931 q 200 881 203 894 q 185 861 197 868 q 143 854 174 854 q 62 879 82 854 q 44 936 42 904 q 53 973 46 947 q 77 1032 61 999 q 117 1101 93 1065 q 178 1165 142 1136 q 261 1213 214 1194 q 369 1232 308 1232 q 517 1203 457 1232 q 613 1128 578 1175 q 656 1025 647 1082 q 650 911 664 968 q 599 803 636 854 q 504 719 561 753 z "},"4":{"ha":839,"x_min":-6,"x_max":813,"o":"m 708 424 q 769 407 746 424 q 802 371 792 390 q 813 335 813 351 q 804 318 813 318 q 789 320 796 318 q 772 326 782 322 q 745 331 763 329 q 699 333 728 333 q 638 329 671 333 q 638 302 638 315 q 639 276 638 289 q 652 144 640 197 q 671 60 664 92 q 674 14 678 28 q 639 0 669 0 q 571 22 600 -1 q 520 85 542 44 q 485 183 499 126 q 464 304 472 239 q 286 275 376 289 q 119 261 196 261 q 63 274 86 261 q 26 306 40 288 q 6 346 13 325 q 0 382 0 367 q 1 385 0 385 q 1 388 1 386 q 25 531 -6 456 q 107 684 56 607 q 221 836 158 761 q 340 976 283 911 q 436 1092 396 1040 q 485 1176 476 1144 q 485 1188 485 1183 q 488 1196 486 1192 q 496 1211 489 1204 q 517 1222 503 1218 q 556 1226 531 1225 q 606 1214 581 1226 q 650 1183 631 1201 q 682 1142 669 1164 q 694 1103 694 1121 q 688 1022 694 1092 q 671 853 681 953 q 653 639 661 754 q 640 419 644 524 q 708 424 682 424 m 456 401 q 451 532 451 465 q 452 665 450 599 q 458 794 454 731 q 465 914 461 857 q 353 776 410 847 q 250 634 297 704 q 169 499 203 564 q 128 379 136 433 l 132 379 q 290 386 206 379 q 456 401 375 393 z "},"5":{"ha":896,"x_min":-4,"x_max":818,"o":"m 557 817 q 701 794 649 817 q 781 739 754 772 q 813 665 807 706 q 815 589 818 625 q 772 424 807 503 q 685 280 738 346 q 567 161 632 214 q 433 71 501 108 q 297 13 364 33 q 176 -7 231 -7 q 116 8 149 -7 q 56 50 83 22 q 13 120 29 78 q 1 218 -4 163 q 17 260 4 247 q 42 272 29 274 q 65 257 56 271 q 74 219 75 243 q 81 183 71 197 q 106 161 90 169 q 138 150 121 153 q 167 147 154 147 q 246 165 200 147 q 341 213 292 182 q 438 286 390 244 q 525 376 486 328 q 590 476 564 424 q 621 579 617 528 q 623 644 624 614 q 615 698 622 675 q 590 734 607 721 q 544 747 574 747 q 418 733 478 747 q 310 699 358 718 q 230 663 263 681 q 183 640 197 646 q 157 632 175 632 q 83 668 107 631 q 53 763 58 706 q 53 888 47 819 q 71 1019 60 957 q 92 1127 82 1081 q 103 1186 101 1174 q 111 1213 104 1203 q 153 1224 118 1222 q 185 1219 168 1225 q 221 1204 203 1213 l 222 1204 q 349 1211 281 1204 q 483 1227 418 1218 q 600 1243 547 1236 q 679 1250 653 1250 q 725 1233 708 1250 q 749 1194 742 1215 q 754 1156 756 1174 q 746 1139 753 1139 q 734 1141 739 1139 q 722 1147 729 1143 q 701 1152 714 1150 q 664 1154 688 1154 q 576 1145 626 1154 q 472 1124 526 1136 q 363 1099 418 1111 q 257 1081 307 1086 q 219 960 239 1032 q 194 806 200 889 q 192 765 192 783 q 192 731 192 746 q 194 732 193 731 q 238 748 206 735 q 317 776 269 761 q 426 804 365 792 q 557 817 488 817 z "},"6":{"ha":867,"x_min":-3,"x_max":783,"o":"m 646 818 q 598 826 610 818 q 586 850 586 835 q 593 886 586 865 q 603 932 600 907 q 601 1038 610 994 q 575 1110 593 1082 q 531 1151 557 1138 q 479 1164 506 1164 q 378 1126 422 1164 q 301 1026 333 1089 q 250 882 269 964 q 224 711 231 800 q 330 757 268 739 q 476 775 392 775 q 611 742 553 775 q 708 654 669 708 q 765 531 746 600 q 780 388 783 461 q 751 246 776 315 q 678 122 726 176 q 558 35 631 68 q 388 1 485 1 q 247 38 308 1 q 142 133 186 74 q 67 267 97 192 q 22 419 38 342 q 1 569 6 496 q 4 700 -3 643 q 23 819 11 756 q 58 944 35 882 q 119 1065 82 1007 q 215 1166 157 1122 q 352 1235 272 1210 q 540 1261 432 1261 q 647 1239 604 1261 q 717 1183 689 1217 q 758 1107 744 1149 q 778 1027 772 1065 q 783 958 783 989 q 782 915 783 928 q 748 848 778 878 q 646 818 718 818 m 271 461 q 259 449 271 454 q 229 443 247 444 q 256 297 238 365 q 301 176 274 228 q 363 95 328 125 q 443 65 399 65 q 524 113 490 65 q 576 234 557 161 q 600 391 596 307 q 592 548 604 475 q 549 669 579 621 q 471 717 519 717 q 397 700 428 717 q 343 657 365 683 q 306 599 321 631 q 284 540 292 568 q 274 490 276 511 q 271 461 271 468 z "},"7":{"ha":803,"x_min":22,"x_max":768,"o":"m 693 1240 q 731 1209 715 1231 q 756 1163 747 1188 q 767 1115 765 1139 q 761 1075 768 1090 q 731 1019 757 1067 q 667 900 706 972 q 583 740 629 828 q 490 563 536 651 q 402 391 443 474 q 335 249 361 308 q 292 126 303 178 q 273 44 281 75 q 256 2 265 13 q 219 4 246 -8 q 166 68 179 22 q 159 178 153 114 q 189 322 165 243 q 247 488 213 401 q 322 662 281 574 q 403 832 363 750 q 483 985 444 914 q 550 1110 521 1057 q 535 1108 544 1108 q 426 1108 476 1104 q 329 1116 375 1111 q 242 1125 283 1121 q 161 1126 201 1129 q 103 1122 121 1124 q 75 1117 85 1119 q 59 1115 65 1115 q 38 1113 53 1114 q 23 1133 22 1111 q 39 1181 24 1154 q 83 1231 54 1207 q 153 1257 111 1254 q 233 1258 193 1260 q 319 1252 274 1256 q 417 1245 364 1249 q 535 1242 469 1242 q 594 1248 576 1246 q 621 1251 613 1250 q 634 1252 629 1251 q 654 1254 639 1253 q 667 1250 660 1254 q 678 1246 672 1249 q 693 1240 685 1243 z "},"8":{"ha":821,"x_min":0,"x_max":742,"o":"m 532 726 q 646 671 604 707 q 709 591 688 635 q 736 500 731 547 q 742 411 742 453 q 733 335 742 378 q 704 246 724 292 q 656 156 685 200 q 589 78 628 113 q 501 22 550 43 q 392 0 451 0 q 231 17 297 0 q 122 61 165 33 q 53 126 78 89 q 17 203 29 163 q 3 285 6 243 q 0 364 0 326 q 8 428 0 388 q 26 495 14 457 q 60 572 38 533 q 117 645 82 610 q 206 706 153 681 q 145 750 169 724 q 107 807 121 776 q 88 870 93 838 q 82 933 82 903 q 89 1013 82 972 q 115 1089 96 1054 q 166 1149 133 1124 q 249 1181 199 1174 q 292 1224 265 1208 q 352 1249 319 1240 q 420 1259 385 1257 q 488 1261 456 1261 q 562 1249 526 1261 q 623 1209 597 1236 q 664 1139 649 1182 q 679 1033 679 1096 q 671 947 679 990 q 644 862 663 903 q 599 786 626 821 q 532 726 571 751 m 308 1044 q 308 953 308 1000 q 311 863 307 906 q 327 787 315 819 q 364 742 339 754 l 389 742 q 413 742 401 742 q 435 740 424 742 q 508 793 476 754 q 561 883 540 832 q 589 988 582 933 q 587 1089 596 1043 q 550 1165 578 1135 q 475 1194 522 1194 q 402 1176 425 1194 q 367 1133 379 1158 q 344 1083 354 1108 q 308 1044 333 1058 m 544 411 q 543 483 544 438 q 535 574 542 529 q 510 651 528 618 q 463 685 493 685 q 336 644 390 685 q 250 540 282 603 q 251 532 251 538 q 246 487 251 526 q 237 392 240 447 q 233 275 233 338 q 245 160 233 213 q 283 72 257 107 q 357 38 310 38 q 440 74 404 38 q 498 165 475 110 q 533 285 521 219 q 544 411 544 351 z "},"9":{"ha":874,"x_min":0,"x_max":811,"o":"m 471 1261 q 630 1207 563 1261 q 739 1065 697 1153 q 796 863 781 976 q 800 631 811 750 q 751 399 789 513 q 649 198 714 286 q 492 56 585 110 q 279 1 400 1 q 171 22 217 1 q 94 76 125 43 q 45 148 64 108 q 16 226 26 188 q 3 297 6 264 q 0 347 0 329 q 28 375 0 365 q 90 383 56 385 q 151 368 124 381 q 179 331 179 356 q 215 136 179 206 q 303 67 250 67 q 403 103 358 67 q 483 199 449 139 q 542 340 518 260 q 582 508 567 421 q 513 493 550 499 q 428 488 475 488 q 270 521 335 488 q 166 608 206 554 q 111 732 126 663 q 103 874 96 801 q 138 1017 110 947 q 213 1140 165 1086 q 325 1228 260 1194 q 471 1261 390 1261 m 594 801 q 603 813 594 804 q 592 960 601 890 q 564 1081 582 1029 q 520 1163 546 1133 q 461 1193 494 1193 q 372 1145 408 1193 q 317 1025 336 1097 q 295 869 297 953 q 308 714 293 786 q 353 594 322 642 q 433 546 385 546 q 506 563 476 546 q 553 606 535 579 q 579 663 571 632 q 591 723 588 694 q 594 773 594 751 q 594 801 594 794 z "},"\u0000":{"ha":0,"x_min":0,"x_max":0,"o":""},"\r":{"ha":408,"x_min":0,"x_max":0,"o":""}," ":{"ha":408,"x_min":0,"x_max":0,"o":""},"e":{"ha":526,"x_min":-1,"x_max":619,"o":"m 588 421 q 597 434 592 431 q 608 435 603 438 q 617 426 614 433 q 615 408 619 419 q 604 372 613 401 q 580 301 596 342 q 540 214 564 260 q 482 129 515 168 q 405 65 449 90 q 307 40 361 40 q 177 69 235 40 q 80 144 119 99 q 19 245 40 190 q -1 353 -1 300 q 14 484 -1 421 q 51 600 29 547 q 99 692 74 653 q 146 750 125 731 q 200 777 167 768 q 267 787 233 786 q 332 783 301 788 q 379 771 363 779 q 431 712 411 756 q 451 610 451 668 q 406 444 451 500 q 292 388 360 388 q 240 393 267 388 q 190 406 213 399 q 199 304 186 354 q 233 215 211 254 q 283 152 254 176 q 340 128 311 128 q 419 148 385 128 q 481 199 454 168 q 527 265 508 229 q 559 334 546 301 q 578 391 572 367 q 588 421 585 415 m 326 667 q 276 647 299 667 q 238 596 254 628 q 210 522 221 564 q 193 435 199 481 q 269 426 238 415 q 322 462 301 436 q 353 523 343 488 q 363 590 363 558 q 353 644 363 622 q 326 667 344 667 z "},"f":{"ha":571,"x_min":-181,"x_max":746,"o":"m 625 1021 q 694 1002 668 1021 q 733 961 721 983 q 745 920 746 939 q 735 901 744 901 q 717 904 725 901 q 699 910 710 907 q 668 915 688 913 q 615 918 649 918 q 471 905 553 918 q 300 876 389 892 q 288 743 294 817 q 277 588 282 669 q 269 422 272 507 q 265 258 265 338 q 274 55 265 139 q 292 -85 282 -29 q 313 -174 303 -142 q 328 -222 324 -206 q 329 -242 333 -237 q 307 -246 325 -246 q 214 -197 256 -246 q 142 -69 172 -147 q 96 106 113 10 q 79 294 79 201 q 83 458 79 382 q 91 601 86 533 q 102 729 96 668 q 113 847 108 790 q 31 838 71 842 q -46 835 -10 835 q -110 849 -83 835 q -151 885 -136 864 q -174 931 -167 907 q -181 974 -181 956 q -172 989 -181 988 q -147 986 -164 990 q -101 976 -129 982 q -31 971 -72 971 q 45 972 6 971 q 126 976 85 974 q 162 1169 140 1086 q 217 1306 183 1251 q 301 1389 251 1361 q 419 1417 350 1417 q 490 1399 458 1417 q 542 1362 522 1382 q 567 1324 563 1342 q 556 1307 571 1307 q 458 1290 499 1307 q 390 1236 418 1274 q 344 1139 363 1199 q 313 993 325 1079 q 499 1012 415 1003 q 625 1021 583 1021 z "},"g":{"ha":614,"x_min":-431,"x_max":775,"o":"m 611 -139 q 710 -219 675 -168 q 760 -325 746 -271 q 773 -428 775 -379 q 760 -501 771 -476 q 676 -603 738 -549 q 528 -710 614 -658 q 341 -807 443 -762 q 136 -876 239 -851 q -62 -902 33 -901 q -232 -868 -158 -903 q -292 -826 -256 -857 q -360 -756 -328 -796 q -412 -673 -393 -717 q -418 -593 -431 -629 q -364 -525 -404 -554 q -272 -477 -324 -496 q -163 -447 -219 -458 q -61 -433 -107 -436 q 13 -433 -15 -429 q 38 -446 42 -437 q 9 -461 33 -454 q -50 -476 -15 -468 q -126 -494 -85 -483 q -207 -522 -168 -506 q -278 -564 -246 -539 q -328 -624 -311 -589 q -317 -684 -346 -661 q -228 -717 -287 -707 q -84 -725 -168 -728 q 93 -708 0 -722 q 281 -667 186 -693 q 458 -604 376 -640 q 601 -521 540 -568 q 689 -418 663 -474 q 690 -342 706 -382 q 618 -275 675 -301 q 455 -233 542 -239 q 289 -237 368 -228 q 276 -249 282 -249 q 263 -240 268 -249 q 174 -256 215 -247 q 100 -272 132 -265 q 47 -283 68 -279 q 21 -285 26 -287 q 3 -267 13 -281 q -15 -234 -7 -254 q -23 -190 -22 -214 q -12 -143 -24 -167 q 74 -90 6 -106 q 232 -75 143 -75 l 232 -67 q 232 -37 232 -53 q 233 -1 232 -21 l 232 -1 q 154 17 196 -1 q 78 78 113 36 q 20 185 43 119 q -3 343 -3 250 q 13 447 -3 392 q 51 555 28 501 q 105 658 75 608 q 165 746 135 708 q 222 806 194 783 q 267 828 249 828 q 338 812 311 828 q 380 774 365 796 q 399 730 394 751 q 403 697 403 708 q 383 674 403 689 q 335 631 364 658 q 271 566 306 604 q 207 476 236 528 q 158 356 178 424 q 139 204 139 289 q 168 86 139 118 q 238 65 197 54 q 242 126 239 96 q 249 178 246 156 q 256 215 251 201 q 264 229 260 229 q 303 203 288 229 q 329 136 319 176 q 408 290 375 194 q 442 510 442 385 q 456 524 442 522 q 487 517 469 526 q 518 485 504 508 q 532 424 532 463 q 519 341 532 393 q 481 233 506 289 q 419 123 456 176 q 338 36 383 69 q 335 -17 338 13 q 328 -79 332 -47 q 413 -89 371 -83 q 492 -103 454 -94 q 560 -120 529 -111 q 611 -139 590 -129 z "},"h":{"ha":646,"x_min":8,"x_max":563,"o":"m 532 -44 q 537 -142 532 -106 q 547 -199 542 -178 q 558 -231 553 -221 q 563 -249 563 -240 q 530 -276 563 -268 q 458 -269 497 -283 q 385 -216 418 -256 q 353 -101 353 -176 q 360 60 353 -26 q 375 227 367 147 q 390 369 383 307 q 397 457 397 432 q 389 499 397 482 q 369 526 381 515 q 343 546 357 539 q 300 339 318 436 q 285 253 292 297 q 272 169 278 210 q 262 93 265 128 q 258 35 258 58 q 247 14 258 21 q 235 -1 249 3 q 189 -4 222 -4 q 93 38 129 -4 q 38 150 57 81 q 13 309 18 219 q 12 494 8 399 q 26 681 15 589 q 47 849 36 774 q 65 976 57 925 q 72 1040 72 1028 q 70 1061 72 1049 q 70 1085 68 1074 q 81 1106 72 1097 q 111 1115 90 1115 q 151 1111 125 1115 q 200 1097 176 1107 q 242 1072 224 1088 q 260 1032 260 1056 q 253 976 260 1017 q 238 876 247 935 q 217 747 228 818 q 196 598 206 675 q 180 442 186 521 q 174 289 174 363 q 181 197 174 238 q 199 126 188 157 q 216 213 206 164 q 240 315 226 263 q 269 417 254 367 q 298 508 283 468 q 326 573 313 549 q 350 597 339 597 q 403 590 368 597 q 472 567 438 583 q 532 522 507 550 q 557 451 557 493 q 553 344 557 408 q 544 209 549 279 q 536 72 540 139 q 532 -44 532 4 z "},"i":{"ha":344,"x_min":-24,"x_max":436,"o":"m 247 842 q 227 798 247 810 q 177 788 207 786 q 112 803 147 790 q 47 833 76 815 q -3 872 17 851 q -24 910 -24 892 q -13 950 -24 936 q 15 970 -3 964 q 56 977 32 976 q 106 978 79 978 q 156 964 131 978 q 202 929 182 950 q 235 885 222 908 q 247 842 247 861 m 404 408 q 414 426 408 421 q 425 428 419 431 q 433 420 431 426 q 435 406 436 414 q 419 353 431 389 q 390 274 407 318 q 351 184 372 231 q 306 99 329 138 q 257 37 282 61 q 208 13 232 13 l 206 13 q 97 55 138 13 q 36 158 57 97 q 9 285 15 219 q 3 400 3 351 q 5 503 3 460 q 10 575 7 546 q 16 623 14 604 q 18 654 18 642 q 45 680 18 676 q 106 672 72 683 q 166 640 139 661 q 193 592 193 618 q 192 549 193 572 q 189 499 190 525 q 186 447 188 472 q 185 399 185 421 q 202 215 185 286 q 238 104 219 144 q 269 135 251 111 q 304 189 286 158 q 339 254 322 219 q 369 320 356 289 q 392 375 383 351 q 404 408 401 399 z "},"j":{"ha":458,"x_min":-271,"x_max":381,"o":"m 306 949 q 285 905 306 917 q 235 895 265 893 q 170 910 206 897 q 105 940 135 922 q 55 978 75 958 q 35 1017 35 999 q 45 1057 35 1043 q 73 1077 56 1071 q 114 1084 90 1083 q 164 1085 138 1085 q 215 1071 190 1085 q 260 1036 240 1057 q 293 992 281 1015 q 306 949 306 968 m 250 743 q 292 713 274 743 q 326 629 311 682 q 351 506 340 576 q 367 357 361 436 q 377 194 374 278 q 381 32 381 111 q 351 -198 381 -86 q 265 -397 321 -310 q 130 -536 210 -483 q -51 -589 50 -589 q -142 -576 -101 -589 q -212 -545 -183 -564 q -256 -503 -240 -526 q -271 -461 -271 -481 q -258 -443 -271 -442 q -221 -453 -244 -444 q -165 -474 -197 -462 q -97 -485 -133 -485 q -19 -450 -61 -485 q 60 -352 24 -415 q 120 -199 96 -289 q 144 4 144 -108 q 140 249 144 146 q 127 424 135 351 q 110 546 119 497 q 94 628 101 594 q 81 683 86 661 q 76 728 76 706 q 90 758 76 753 q 128 760 104 763 q 184 750 153 757 q 250 743 215 743 z "},"k":{"ha":661,"x_min":0,"x_max":885,"o":"m 847 -189 q 877 -201 869 -189 q 875 -226 885 -212 q 838 -252 865 -240 q 765 -264 811 -264 q 617 -224 679 -264 q 508 -122 554 -183 q 426 11 461 -61 q 358 148 390 83 q 293 259 326 213 q 217 315 260 306 q 204 203 206 263 q 228 99 214 138 q 249 39 242 60 q 255 11 257 18 q 233 4 253 4 q 151 28 193 4 q 76 100 110 51 q 22 225 43 149 q 0 406 0 301 q 3 498 0 439 q 13 626 7 557 q 24 767 18 694 q 35 899 29 839 q 44 1001 40 960 q 47 1051 47 1043 q 63 1078 47 1069 q 101 1087 78 1086 q 151 1081 124 1088 q 201 1062 178 1074 q 239 1033 224 1050 q 254 999 254 1017 q 246 909 254 974 q 226 764 238 844 q 206 598 215 683 q 192 447 196 513 q 238 548 210 497 q 297 640 265 599 q 359 706 328 681 q 415 731 390 731 q 485 728 450 731 q 549 714 521 726 q 596 674 578 701 q 614 593 614 646 q 600 505 614 543 q 561 438 586 467 q 503 389 536 410 q 431 354 469 368 q 478 256 454 313 q 531 138 503 199 q 592 19 560 78 q 664 -85 625 -39 q 748 -160 703 -132 q 847 -189 793 -189 m 229 382 q 342 430 299 393 q 411 510 386 467 q 445 590 436 553 q 454 638 454 626 q 428 681 454 679 q 367 649 403 682 q 292 547 331 615 q 229 382 254 479 z "},"u":{"ha":579,"x_min":-4,"x_max":514,"o":"m 489 218 q 497 117 489 157 q 509 55 504 78 q 511 22 514 32 q 488 13 508 13 q 420 24 454 13 q 359 63 386 36 q 315 131 332 89 q 297 231 297 172 q 297 263 297 246 q 299 299 297 279 l 193 33 q 201 14 197 22 q 204 -6 204 6 q 189 -18 204 -15 q 150 -15 174 -21 q 100 8 126 -8 q 50 53 74 24 q 11 128 26 83 q -4 233 -4 172 q 1 359 -4 290 q 13 492 7 428 q 25 606 19 556 q 31 674 31 656 q 26 699 31 686 q 19 724 21 713 q 23 742 17 735 q 53 749 29 749 q 109 741 81 749 q 161 721 138 733 q 200 692 185 708 q 215 657 215 675 q 207 599 215 638 q 189 506 199 560 q 171 384 179 451 q 163 243 163 317 q 167 142 163 181 q 178 78 171 103 q 204 140 188 101 q 238 224 221 179 q 274 317 256 269 q 304 407 292 365 q 308 476 307 446 q 310 518 310 507 q 317 558 310 538 q 349 579 324 579 q 388 576 361 579 q 442 565 415 574 q 490 540 469 556 q 511 499 511 524 q 508 465 511 482 q 500 418 504 447 q 492 342 496 389 q 489 218 489 294 z "},"l":{"ha":299,"x_min":0,"x_max":258,"o":"m 74 1167 q 99 1220 72 1208 q 158 1222 125 1232 q 220 1186 192 1213 q 250 1128 249 1160 q 246 1044 251 1106 q 231 899 240 983 q 213 718 222 815 q 194 527 203 621 q 180 353 185 433 q 178 222 175 272 q 192 91 182 146 q 215 -1 203 36 q 239 -59 228 -37 q 254 -92 250 -81 q 253 -107 258 -103 q 229 -111 249 -111 q 163 -89 200 -112 q 91 -17 125 -65 q 32 102 57 31 q 3 268 7 174 q 4 418 0 332 q 17 599 8 504 q 35 788 25 693 q 55 960 46 882 q 69 1094 64 1039 q 74 1167 75 1150 z "},"m":{"ha":953,"x_min":-18,"x_max":867,"o":"m 842 258 q 849 133 842 183 q 862 51 857 82 q 864 8 867 21 q 839 -6 861 -6 q 778 10 804 -6 q 734 53 753 26 q 702 114 715 81 q 681 183 689 147 q 660 372 661 267 q 599 196 628 272 q 573 131 586 163 q 547 74 560 99 q 522 35 533 50 q 503 19 511 19 q 459 24 486 19 q 406 45 432 29 q 362 90 381 61 q 343 164 343 118 q 349 247 343 194 q 360 360 354 300 q 374 481 367 419 q 384 593 381 543 q 385 674 388 643 q 371 706 382 706 q 332 667 350 706 q 297 568 314 629 q 265 431 281 507 q 236 281 250 356 q 210 141 222 207 q 186 35 197 75 q 191 -4 193 7 q 163 -15 189 -15 q 84 14 115 -15 q 35 90 53 43 q 9 195 17 136 q -1 313 1 254 q -3 424 -4 371 q -1 514 -1 478 q -10 535 -1 529 q -18 556 -18 540 q 13 574 -18 571 q 80 570 43 578 q 147 543 117 563 q 178 493 178 524 q 170 363 178 432 q 163 218 163 293 q 163 189 163 203 q 164 164 163 175 q 183 269 171 207 q 210 401 194 332 q 247 538 226 469 q 290 660 267 606 q 341 747 314 714 q 399 781 368 781 q 490 739 458 781 q 535 635 522 697 q 547 500 547 572 q 540 365 546 428 q 529 261 535 303 q 528 219 524 219 q 542 244 532 219 q 565 307 551 269 q 597 389 579 344 q 634 471 615 433 q 672 533 653 508 q 708 558 690 558 q 762 554 735 558 q 810 540 789 550 q 846 511 832 529 q 860 465 860 493 q 851 379 860 431 q 842 258 842 328 z "},"n":{"ha":692,"x_min":-14,"x_max":643,"o":"m 643 686 q 638 636 643 669 q 624 560 632 603 q 608 468 617 517 q 591 374 599 419 q 578 288 583 328 q 572 221 572 247 q 576 101 572 142 q 585 39 581 60 q 594 8 590 18 q 599 -17 599 -1 q 566 -32 599 -32 q 494 -8 533 -32 q 422 67 454 15 q 389 207 389 119 q 394 327 389 265 q 406 448 399 389 q 422 560 413 507 q 438 653 431 613 q 403 558 422 614 q 365 437 385 501 q 324 306 344 372 q 285 183 304 240 q 248 81 265 125 q 217 17 231 36 q 206 3 215 7 l 201 3 q 185 0 193 0 q 101 35 135 0 q 47 124 68 71 q 17 239 26 176 q 3 356 7 301 q 1 449 0 411 q 1 493 1 488 q -1 506 1 503 q -6 513 -3 510 q -12 520 -10 517 q -14 533 -14 524 q 18 549 -14 543 q 88 551 50 554 q 158 531 126 547 q 190 482 190 515 q 190 441 190 471 q 188 376 189 411 q 185 307 186 340 q 185 257 185 274 q 187 206 185 229 q 192 161 189 182 q 223 263 204 206 q 263 381 242 319 q 310 504 285 443 q 360 617 335 565 q 413 707 386 669 q 464 758 439 744 q 475 764 467 761 q 483 766 479 765 q 490 767 486 767 q 503 767 497 767 q 517 765 510 767 q 556 758 549 765 q 616 730 589 749 q 643 686 643 711 z "},"o":{"ha":540,"x_min":3,"x_max":458,"o":"m 313 738 q 369 722 343 738 q 415 672 396 707 q 447 583 435 638 q 458 449 458 528 q 444 288 458 369 q 400 142 431 207 q 322 35 369 76 q 206 -6 274 -6 q 105 26 144 -6 q 42 105 65 57 q 11 210 19 153 q 3 321 3 268 q 8 422 3 369 q 28 518 14 474 q 67 594 42 563 q 129 635 92 626 q 163 690 142 669 q 208 722 183 711 q 260 735 233 732 q 313 738 288 738 m 275 68 q 318 111 297 68 q 354 219 339 154 q 377 360 369 285 q 381 501 385 436 q 358 610 376 567 q 303 653 340 653 q 279 629 286 653 q 267 574 272 606 q 253 511 261 543 q 226 463 244 479 q 222 331 226 400 q 219 203 218 261 q 231 106 219 144 q 275 68 243 68 z "},"p":{"ha":689,"x_min":1,"x_max":624,"o":"m 503 736 q 575 641 547 707 q 613 493 603 575 q 615 324 624 411 q 576 166 606 238 q 494 48 546 94 q 365 1 442 1 q 308 10 335 1 q 266 27 281 18 q 253 44 251 36 q 285 53 256 53 q 356 99 328 53 q 398 215 383 146 q 417 366 413 285 q 418 517 421 447 q 406 633 415 586 q 385 679 396 679 q 341 652 363 679 q 299 581 319 625 q 260 483 279 538 q 226 373 242 428 q 199 269 211 318 q 179 186 186 219 q 175 -31 175 82 q 190 -250 175 -165 q 219 -383 206 -335 q 235 -448 232 -431 q 211 -465 238 -465 q 120 -412 158 -465 q 58 -273 82 -360 q 20 -75 33 -186 q 4 152 7 36 q 6 379 1 268 q 23 577 11 490 q 51 717 35 664 q 86 769 67 769 q 128 769 106 769 q 168 763 150 768 q 198 745 186 757 q 210 713 210 733 q 203 610 210 689 q 190 415 197 532 q 217 516 203 465 q 245 609 231 567 q 274 683 260 651 q 301 729 289 715 q 349 751 318 746 q 413 755 381 757 q 470 747 444 753 q 503 736 496 740 z "},"q":{"ha":807,"x_min":3,"x_max":853,"o":"m 415 449 l 415 451 q 417 453 415 453 l 415 449 m 819 528 q 831 542 824 540 q 842 540 838 544 q 850 528 847 536 q 851 511 853 519 q 784 360 832 453 q 678 149 736 267 q 562 -103 619 32 q 465 -378 504 -237 q 468 -415 467 -396 q 468 -451 469 -435 q 460 -477 467 -467 q 440 -487 454 -487 q 364 -405 388 -487 q 340 -162 340 -322 q 344 -77 340 -124 q 353 19 347 -31 q 365 122 358 69 q 381 224 372 174 q 346 179 372 215 q 285 103 319 143 q 215 30 251 63 q 149 -3 178 -3 q 90 15 117 -3 q 44 63 64 33 q 14 127 25 92 q 3 197 3 163 q 15 288 3 233 q 49 404 26 343 q 106 526 72 465 q 185 637 140 588 q 283 717 229 686 q 400 747 336 747 q 502 732 463 747 q 563 694 542 717 q 593 642 585 671 q 602 588 601 614 q 600 540 603 561 q 597 511 597 519 q 593 497 597 501 q 599 474 599 486 q 581 390 599 449 q 539 240 563 331 q 494 28 515 149 q 465 -239 472 -92 q 515 -117 485 -183 q 578 19 544 -51 q 648 163 613 90 q 716 301 683 235 q 776 426 749 368 q 819 528 803 485 m 424 514 q 437 549 424 538 q 469 561 450 560 q 513 556 489 563 q 556 536 536 549 q 547 581 553 557 q 531 627 542 606 q 506 663 521 649 q 471 676 492 676 q 374 629 422 676 q 285 510 326 582 q 213 356 244 439 q 163 201 181 272 q 145 82 146 129 q 167 35 144 35 q 199 61 178 35 q 248 129 221 88 q 303 220 275 171 q 355 316 331 269 q 396 399 379 363 q 415 449 413 435 l 407 390 q 419 469 414 436 q 424 514 424 501 z "},"r":{"ha":572,"x_min":-4,"x_max":557,"o":"m 390 790 q 449 789 419 790 q 502 778 478 788 q 542 745 526 768 q 557 679 557 722 q 551 595 557 636 q 534 523 546 554 q 503 472 522 492 q 458 453 485 453 q 371 470 406 453 q 336 511 336 488 q 340 547 336 522 q 347 597 343 572 q 360 661 353 626 q 278 476 314 568 q 247 393 263 436 q 219 307 232 350 q 198 222 207 264 q 188 143 189 181 q 199 80 193 106 q 211 38 206 54 q 220 10 217 21 q 224 -8 224 0 q 207 -27 224 -18 q 165 -33 190 -36 q 110 -8 139 -29 q 55 63 81 13 q 13 200 29 114 q -4 421 -4 286 q -1 535 -4 474 q 10 648 3 596 q 31 735 18 700 q 61 769 43 769 q 165 738 132 769 q 197 663 197 707 q 193 617 197 642 q 183 565 189 593 q 174 503 178 536 q 169 431 169 469 q 174 296 169 354 q 197 396 182 342 q 231 505 213 450 q 272 611 250 560 q 314 702 293 663 q 354 766 335 742 q 390 790 374 790 z "},"s":{"ha":526,"x_min":1,"x_max":465,"o":"m 1 432 q 22 536 1 478 q 75 647 43 594 q 147 735 107 699 q 224 771 186 771 q 304 771 261 771 q 383 764 347 771 q 442 737 418 757 q 465 678 465 717 q 444 597 465 639 q 395 521 422 556 q 342 464 368 486 q 308 442 317 442 q 303 472 299 442 q 313 540 307 503 q 324 607 319 576 q 319 638 328 638 q 268 617 293 638 q 222 567 243 597 q 188 502 201 538 q 169 437 174 467 q 170 387 164 407 q 197 367 176 367 q 228 366 206 367 q 278 363 250 365 q 335 353 306 360 q 390 333 365 346 q 430 299 414 319 q 446 247 446 278 q 429 181 446 217 q 385 109 413 144 q 324 40 358 74 q 256 -19 290 7 q 192 -60 222 -44 q 140 -75 161 -75 q 85 -64 110 -75 q 47 -39 61 -53 q 30 -14 32 -25 q 42 -3 28 -3 q 84 13 58 -3 q 138 52 110 28 q 196 106 167 76 q 248 165 225 136 q 285 217 271 193 q 300 253 300 240 q 150 258 217 243 q 95 276 122 264 q 47 309 68 289 q 14 360 26 329 q 1 432 1 390 z "},"v":{"ha":590,"x_min":-6,"x_max":567,"o":"m 446 779 q 474 785 450 794 q 522 743 499 776 q 556 650 546 710 q 544 503 567 590 q 490 328 521 415 q 431 172 458 242 q 363 17 397 90 q 345 2 358 3 q 314 10 332 1 q 296 3 310 3 q 203 47 254 3 q 106 177 151 92 q 30 387 61 263 q -1 671 -1 511 q -3 694 -1 681 q -3 721 -6 708 q 6 742 -1 733 q 35 750 14 750 q 144 713 107 750 q 181 622 181 675 q 206 367 181 476 q 260 182 232 258 q 297 268 275 219 q 340 366 318 317 q 378 460 361 415 q 404 538 396 506 q 433 657 425 615 q 442 721 440 699 q 443 753 444 743 q 446 779 442 764 z "},"w":{"ha":893,"x_min":0,"x_max":822,"o":"m 775 804 q 801 783 792 804 q 815 722 811 761 q 821 628 819 683 q 822 506 822 572 q 807 362 822 435 q 765 228 792 289 q 700 130 738 168 q 618 92 663 92 q 572 95 593 92 q 533 101 550 99 q 548 60 542 78 q 556 32 554 43 q 551 16 557 21 q 529 11 546 11 q 458 24 497 11 q 385 64 419 38 q 326 131 350 90 q 303 229 303 172 l 303 290 l 203 40 q 212 21 208 29 q 215 4 215 13 q 182 -5 215 -10 q 108 29 149 0 q 33 115 67 58 q 0 258 0 171 q 3 378 0 313 q 10 503 6 443 q 17 611 14 564 q 19 675 19 658 q 15 700 19 688 q 8 723 10 713 q 13 740 7 733 q 42 747 19 747 q 94 740 67 747 q 144 722 122 733 q 181 694 167 710 q 196 660 196 678 q 190 605 196 642 q 178 517 185 568 q 165 401 171 465 q 160 267 160 338 q 168 151 160 196 q 188 78 176 106 q 210 133 196 99 q 240 208 224 167 q 274 292 257 249 q 303 376 290 336 l 303 542 q 310 580 303 560 q 340 600 317 600 q 378 597 353 600 q 430 586 404 594 q 476 563 456 578 q 496 524 496 547 l 496 322 q 503 217 496 263 q 522 135 511 171 q 581 220 557 167 q 618 346 604 274 q 638 507 632 418 q 643 699 643 596 q 642 717 643 711 q 641 726 642 722 q 640 736 640 731 q 639 753 639 742 q 654 772 639 763 q 691 789 669 782 q 735 800 713 796 q 775 804 758 804 z "},"x":{"ha":685,"x_min":-7,"x_max":661,"o":"m 649 -18 q 652 -29 661 -18 q 620 -54 643 -40 q 566 -79 597 -68 q 504 -90 535 -90 q 392 -35 451 -90 q 274 103 332 19 q 183 22 226 53 q 103 -8 139 -8 q 33 5 57 -8 q 1 34 10 18 q -3 63 -7 50 q 7 76 0 76 q 98 116 47 76 q 201 218 149 156 q 134 345 165 281 q 80 469 103 410 q 44 577 57 528 q 32 657 32 626 q 45 677 32 664 q 78 703 58 690 q 119 729 97 717 q 161 747 142 742 q 194 748 181 751 q 207 726 207 744 q 216 690 207 719 q 242 614 225 660 q 281 511 258 568 q 332 393 304 454 q 390 488 363 442 q 436 574 417 535 q 467 644 456 614 q 478 689 478 674 q 494 707 478 710 q 529 689 510 704 q 565 652 549 674 q 581 614 581 631 q 566 553 581 592 q 527 467 551 515 q 469 364 503 418 q 399 256 436 310 q 459 151 428 200 q 522 64 490 101 q 586 4 554 26 q 649 -18 618 -18 z "},"y":{"ha":571,"x_min":-69,"x_max":508,"o":"m 499 596 q 503 474 499 558 q 508 239 508 389 q 474 -1 508 114 q 382 -201 439 -115 q 251 -333 325 -286 q 96 -372 176 -381 q 24 -354 56 -368 q -28 -323 -7 -340 q -59 -286 -49 -306 q -68 -251 -69 -267 q -56 -238 -67 -236 q -27 -249 -44 -240 q 15 -270 -10 -258 q 68 -285 39 -282 q 142 -262 97 -287 q 231 -181 188 -236 q 305 -43 274 -126 q 336 151 336 40 q 335 265 336 203 q 333 390 335 328 q 311 291 325 349 q 281 177 297 233 q 246 75 264 121 q 210 13 228 29 q 199 4 208 7 q 196 3 197 4 q 192 3 194 3 q 140 11 172 0 q 77 51 108 22 q 24 131 46 81 q 1 256 1 181 q 7 382 1 313 q 19 515 13 451 q 32 628 26 579 q 38 696 38 678 q 33 722 38 708 q 26 747 28 735 q 30 765 24 758 q 60 772 36 772 q 115 765 86 772 q 168 744 144 757 q 207 715 192 732 q 222 679 222 699 q 214 621 222 660 q 195 528 206 582 q 176 407 185 474 q 168 265 168 340 q 174 150 168 192 q 189 83 181 108 q 209 147 196 106 q 238 240 222 189 q 271 345 254 290 q 301 451 288 400 q 322 541 314 501 q 331 601 331 581 l 331 613 q 326 638 331 625 q 319 663 321 651 q 323 682 317 675 q 353 689 329 689 q 406 681 379 689 q 453 661 432 674 q 486 632 474 649 q 499 596 499 615 z "},"z":{"ha":674,"x_min":-6,"x_max":632,"o":"m 621 92 q 629 62 626 85 q 631 14 632 39 q 625 -32 631 -11 q 607 -54 619 -53 q 576 -34 596 -56 q 523 11 557 -12 q 438 52 489 35 q 311 60 386 69 q 228 45 261 53 q 175 28 196 38 q 135 6 156 14 q 92 -1 114 -1 q 44 27 68 -1 q 8 90 21 56 q -4 153 -6 125 q 26 182 -3 182 q 90 205 58 182 q 153 265 122 228 q 213 350 183 301 q 272 450 243 399 q 329 552 301 501 q 385 646 357 603 q 242 638 317 639 q 104 653 168 638 q 21 680 47 665 q -3 704 -6 694 q 27 716 -1 714 q 106 706 56 718 q 219 699 156 694 q 338 715 282 704 q 469 749 403 728 l 471 747 q 517 765 496 765 q 533 753 521 765 q 558 722 544 740 q 583 682 571 704 q 602 642 596 660 q 606 611 608 624 q 589 599 604 599 q 512 549 550 599 q 434 427 474 500 q 353 272 394 354 q 265 124 311 189 q 287 128 276 126 q 310 132 297 129 q 428 143 378 140 q 515 141 478 146 q 576 124 551 136 q 621 92 601 113 z "},"M":{"ha":1157,"x_min":1,"x_max":1099,"o":"m 1099 1024 q 1084 957 1099 1007 q 1051 830 1069 907 q 1019 651 1033 753 q 1004 431 1004 550 q 1016 226 1004 311 q 1042 85 1028 140 q 1069 3 1057 31 q 1082 -28 1082 -24 q 1062 -42 1082 -35 q 1021 -50 1042 -50 q 941 -21 975 -50 q 881 55 907 8 q 838 160 856 101 q 810 275 821 218 q 796 382 800 332 q 792 464 792 432 q 793 560 792 513 q 797 651 794 607 q 763 545 782 607 q 722 401 744 483 q 672 215 699 319 q 614 -18 644 111 q 627 -67 621 -50 q 633 -94 633 -85 q 612 -124 633 -115 q 571 -132 590 -132 q 479 -104 515 -132 q 422 -15 443 -76 q 393 146 401 47 q 385 388 385 244 q 390 563 385 467 q 404 758 396 660 q 422 951 413 857 q 439 1115 432 1044 q 385 976 411 1058 q 338 797 360 893 q 297 599 315 701 q 266 399 279 497 q 246 215 253 301 q 239 67 239 129 q 238 17 239 36 q 236 -14 238 -3 q 256 -65 247 -51 q 264 -86 264 -79 q 244 -107 264 -101 q 208 -112 225 -112 q 119 -71 156 -112 q 60 39 83 -29 q 24 194 36 107 q 6 374 11 282 q 2 556 1 467 q 6 715 3 644 q 12 833 8 786 q 15 885 15 879 q 22 906 17 896 q 35 921 26 914 q 58 928 43 928 q 102 922 72 928 q 162 907 132 917 q 214 882 192 897 q 236 849 236 867 q 231 813 236 831 q 217 752 225 796 q 204 624 210 708 q 199 386 199 539 l 199 317 q 220 459 207 378 q 250 628 233 540 q 288 807 267 717 q 334 977 310 897 q 388 1120 358 1057 q 449 1218 417 1183 q 450 1242 450 1232 q 450 1257 450 1251 q 466 1312 450 1297 q 526 1326 482 1326 q 574 1318 549 1326 q 619 1297 599 1310 q 654 1267 640 1283 q 668 1233 668 1250 q 663 1171 668 1222 q 649 1041 657 1119 q 631 862 640 963 q 613 651 621 761 q 599 426 604 540 q 593 204 593 311 q 593 162 593 182 q 594 124 593 142 q 623 220 606 163 q 660 345 640 278 q 702 484 681 413 q 744 623 724 556 q 785 749 765 690 q 819 849 804 808 q 862 1013 838 953 q 913 1072 886 1072 q 958 1071 926 1072 q 1020 1065 989 1069 q 1075 1050 1051 1060 q 1099 1024 1099 1040 z "},"F":{"ha":481,"x_min":-479,"x_max":1306,"o":"m 1128 1486 q 1194 1469 1163 1486 q 1251 1429 1226 1453 q 1291 1380 1276 1406 q 1306 1338 1306 1354 q 1295 1317 1306 1321 q 1267 1315 1285 1313 q 1224 1322 1249 1317 q 1169 1326 1199 1326 q 1012 1314 1106 1326 q 806 1278 918 1301 q 572 1224 694 1256 q 326 1156 449 1193 l 326 1153 q 314 1088 326 1138 q 285 963 301 1038 q 378 991 332 978 q 463 1013 424 1004 q 532 1027 501 1022 q 582 1032 563 1032 q 614 1022 599 1031 q 642 1003 629 1014 q 662 978 654 992 q 669 953 669 965 q 661 938 669 942 q 641 935 653 935 q 615 938 629 935 q 588 940 600 940 q 528 931 564 940 q 449 903 493 921 q 356 864 406 886 q 258 818 307 842 q 240 674 247 750 q 233 518 233 599 q 245 303 233 399 q 272 139 257 207 q 299 33 286 71 q 311 -8 311 -6 q 291 -24 311 -15 q 250 -32 271 -32 q 171 3 206 -32 q 110 92 136 38 q 67 213 85 146 q 40 344 50 279 q 25 464 29 408 q 21 551 21 519 q 25 701 21 631 q -21 680 -3 688 q -46 672 -39 672 q -74 681 -58 672 q -101 701 -89 689 q -122 727 -114 713 q -131 756 -131 742 q -83 807 -131 776 q 40 869 -35 838 q 60 985 49 933 q 83 1075 71 1038 q -122 992 -26 1035 q -287 905 -217 949 q -399 818 -358 861 q -439 736 -439 775 q -445 715 -439 724 q -459 703 -451 706 q -473 705 -467 700 q -479 725 -479 710 q -426 881 -479 806 q -282 1026 -372 957 q -72 1155 -192 1094 q 181 1267 47 1215 q 451 1359 314 1318 q 715 1428 589 1400 q 949 1471 842 1456 q 1128 1486 1056 1486 z "},"d":{"ha":738,"x_min":0,"x_max":700,"o":"m 700 1092 q 684 1008 700 1072 q 649 851 668 944 q 615 645 631 758 q 599 417 599 532 q 606 191 599 283 q 621 38 613 99 q 638 -58 629 -24 q 650 -108 646 -92 q 650 -128 654 -125 q 631 -132 646 -132 q 553 -110 586 -132 q 497 -55 521 -87 q 458 16 474 -22 q 434 87 443 54 q 421 142 425 119 q 414 164 417 164 q 394 138 410 164 q 355 81 379 113 q 297 24 331 50 q 222 -1 264 -1 q 140 13 181 -1 q 69 60 100 28 q 19 142 38 92 q 0 265 0 193 q 8 364 0 311 q 33 470 17 417 q 76 574 50 524 q 135 662 101 624 q 212 723 169 700 q 306 746 254 746 q 400 742 364 746 q 457 714 436 738 q 478 869 467 792 q 500 1008 490 946 q 516 1108 510 1069 q 522 1150 522 1147 q 526 1171 522 1158 q 550 1183 531 1183 q 585 1176 560 1183 q 635 1156 610 1168 q 681 1126 661 1143 q 700 1092 700 1110 m 426 407 q 428 458 426 429 q 433 521 431 486 q 403 523 417 519 q 389 538 389 526 q 393 572 389 549 q 399 620 397 596 q 394 663 400 644 q 369 681 389 681 q 297 638 331 681 q 237 526 263 596 q 197 365 211 456 q 182 179 182 275 q 187 136 182 160 q 201 92 192 113 q 224 58 211 72 q 253 44 238 44 q 280 66 263 44 q 317 122 297 88 q 356 199 336 157 q 391 281 375 240 q 417 355 407 321 q 426 407 426 389 z "},"R":{"ha":863,"x_min":4,"x_max":1169,"o":"m 1138 -185 q 1165 -196 1160 -185 q 1158 -221 1169 -207 q 1122 -246 1147 -235 q 1056 -257 1096 -257 q 899 -219 976 -257 q 751 -117 822 -181 q 615 28 679 -54 q 494 198 550 110 q 392 374 438 286 q 314 535 347 461 q 243 518 278 524 q 267 322 247 410 q 310 171 288 233 q 352 74 333 108 q 371 35 371 39 q 349 15 371 26 q 303 3 326 3 q 175 67 231 3 q 81 241 119 131 q 24 501 43 351 q 4 821 4 650 q 10 980 4 899 q 28 1128 15 1061 q 58 1237 40 1194 q 101 1279 76 1279 q 153 1278 119 1279 q 219 1270 188 1276 q 276 1253 251 1264 q 300 1222 300 1242 q 292 1158 300 1206 q 275 1038 285 1111 q 256 869 265 965 q 244 657 247 774 q 259 664 251 660 q 274 672 267 668 q 281 784 275 713 q 299 940 286 856 q 330 1110 311 1024 q 376 1267 349 1197 q 442 1383 404 1338 q 529 1428 479 1428 q 572 1428 542 1428 q 638 1426 603 1429 q 708 1414 674 1422 q 758 1389 742 1406 q 817 1287 793 1354 q 840 1110 840 1219 q 813 962 840 1033 q 739 826 786 890 q 628 707 692 761 q 492 611 564 653 q 568 461 524 546 q 665 288 613 376 q 777 115 718 200 q 897 -37 836 29 q 1019 -144 958 -103 q 1138 -185 1081 -185 m 507 1356 q 451 1318 476 1356 q 406 1221 426 1281 q 370 1087 386 1161 q 343 939 354 1013 q 326 801 332 865 q 317 697 319 738 q 436 776 375 732 q 547 877 497 821 q 628 1001 596 933 q 660 1149 660 1069 q 645 1256 660 1215 q 608 1318 631 1296 q 558 1348 585 1340 q 507 1356 532 1356 z "},"B":{"ha":881,"x_min":-242,"x_max":847,"o":"m 553 556 q 658 510 600 540 q 760 431 715 479 q 826 318 804 383 q 822 171 847 253 q 768 76 810 126 q 666 -22 726 26 q 532 -112 606 -69 q 380 -188 458 -156 q 224 -240 301 -221 q 81 -260 147 -260 q -20 -251 28 -260 q -103 -224 -68 -243 q -160 -176 -139 -206 q -181 -107 -181 -147 q -134 -38 -181 -76 q -12 42 -87 0 q 161 125 64 83 q 359 206 258 167 q 557 279 460 244 q 731 339 654 314 q 662 376 706 361 q 565 400 618 390 q 456 414 513 410 q 351 421 400 418 q 268 426 303 424 q 222 431 233 428 q 204 442 211 433 q 190 460 197 450 q 188 433 188 446 q 188 407 188 421 q 195 300 188 343 q 208 231 203 257 q 209 193 213 204 q 182 182 206 182 q 135 217 160 182 q 92 302 111 251 q 59 411 72 353 q 46 517 46 469 q 63 706 46 608 q 103 883 79 803 q 152 1014 126 963 q 197 1065 178 1065 q 250 1060 222 1065 q 301 1044 278 1054 q 340 1017 325 1033 q 356 979 356 1000 q 344 941 356 967 q 315 879 333 915 q 276 797 297 843 q 238 696 256 751 q 374 762 306 715 q 496 866 442 808 q 585 986 550 924 q 622 1099 619 1049 q 589 1183 625 1150 q 465 1217 553 1217 q 267 1182 357 1217 q 104 1095 176 1147 q -23 982 32 1043 q -117 869 -78 921 q -178 782 -156 817 q -210 747 -201 747 q -232 788 -242 747 q -180 888 -222 828 q -68 1019 -137 949 q 87 1151 1 1090 q 269 1251 172 1211 q 463 1292 365 1292 q 624 1256 569 1292 q 693 1163 679 1221 q 686 1031 707 1106 q 621 880 665 957 q 513 729 576 803 q 381 599 450 656 q 472 576 426 588 q 553 556 517 565 m 754 268 q 757 290 758 279 q 753 313 756 301 q 617 262 692 290 q 463 202 542 233 q 305 138 383 171 q 159 75 226 106 q 40 18 92 44 q -37 -28 -11 -8 q -57 -60 -62 -49 q -6 -72 -51 -72 q 144 -56 64 -72 q 306 -15 225 -40 q 464 46 388 11 q 601 119 540 81 q 703 195 663 157 q 754 268 744 233 z "},"&":{"ha":825,"x_min":-7,"x_max":744,"o":"m 647 1057 q 685 1026 667 1046 q 717 986 703 1007 q 738 946 731 965 q 743 917 744 926 q 732 901 739 907 q 714 897 725 897 q 685 907 703 896 q 639 916 674 914 q 558 913 604 918 q 462 896 513 908 q 366 863 411 883 q 288 810 321 842 q 246 738 256 779 q 243 715 243 726 q 243 694 243 704 q 278 676 257 682 q 321 670 300 671 q 356 670 342 669 q 374 671 371 671 q 456 688 415 682 q 533 693 497 693 q 599 688 569 693 q 650 669 629 682 q 681 639 665 660 q 708 595 696 618 q 725 549 719 572 q 726 513 731 526 q 682 499 725 504 q 574 487 639 494 q 433 465 510 479 q 288 424 357 451 q 167 353 219 397 q 100 243 115 310 q 97 207 93 224 q 103 175 100 190 q 113 171 110 174 q 192 149 144 151 q 292 156 240 147 q 397 178 344 164 q 493 207 450 193 q 565 230 536 221 q 600 236 594 239 q 614 215 607 232 q 625 176 621 197 q 631 133 629 154 q 629 97 632 111 q 583 69 626 86 q 479 38 539 53 q 460 -1 474 22 q 434 -53 447 -24 q 410 -114 421 -82 q 400 -178 400 -146 q 412 -235 400 -212 q 434 -272 424 -258 q 445 -292 444 -286 q 425 -299 446 -299 q 379 -286 403 -299 q 336 -248 356 -274 q 304 -184 317 -222 q 292 -93 292 -146 q 298 -37 292 -67 q 313 19 304 -8 q 235 25 271 19 q 172 46 199 31 q 105 104 131 72 q 76 156 79 136 q 44 199 61 174 q 15 253 28 224 q -2 313 3 282 q 0 371 -7 343 q 88 519 19 454 q 244 625 156 583 q 213 654 231 635 q 180 704 194 674 q 160 777 165 735 q 169 875 156 819 q 240 990 183 940 q 374 1067 297 1040 q 372 1080 372 1074 q 372 1092 372 1086 q 384 1140 372 1106 q 412 1212 396 1175 q 444 1276 428 1249 q 469 1304 461 1304 q 494 1294 479 1304 q 522 1270 508 1285 q 545 1240 536 1256 q 554 1210 554 1224 q 536 1161 554 1194 q 499 1092 518 1128 q 577 1085 539 1093 q 647 1057 615 1078 z "},"A":{"ha":764,"x_min":-449,"x_max":764,"o":"m 636 313 q 667 147 649 215 q 703 32 685 78 q 736 -40 721 -14 q 758 -81 751 -67 q 758 -99 764 -94 q 731 -107 753 -104 q 653 -85 697 -111 q 565 -1 608 -58 q 484 146 521 57 q 432 356 447 235 q 417 532 421 438 q 411 725 413 626 q 348 687 386 710 q 261 635 310 664 q 185 439 225 539 q 101 247 144 339 q 13 74 57 154 q -76 -65 -32 -7 q -164 -156 -121 -124 q -246 -183 -207 -187 q -354 -156 -312 -175 q -417 -108 -396 -136 q -444 -43 -439 -79 q -444 33 -449 -7 q -385 181 -436 106 q -259 328 -335 256 q -92 469 -183 401 q 90 594 0 536 q 152 749 122 672 q 208 895 182 825 q 254 1026 233 965 q 290 1133 275 1086 q 111 1056 200 1097 q -50 970 22 1015 q -170 875 -122 925 q -224 774 -218 825 q -241 754 -226 754 q -272 767 -256 754 q -299 806 -287 781 q -307 861 -311 831 q -253 980 -300 926 q -139 1077 -207 1033 q 10 1156 -71 1121 q 169 1221 92 1192 q 312 1273 247 1250 q 411 1317 376 1296 q 442 1377 411 1361 q 512 1386 474 1393 q 583 1352 550 1379 q 622 1286 617 1325 q 626 1193 625 1258 q 625 1041 626 1128 q 622 853 624 954 q 622 653 621 753 q 625 465 622 554 q 636 313 628 376 m -347 -97 q -259 -53 -307 -101 q -160 77 -211 -6 q -55 269 -108 160 q 50 496 -1 378 q -111 378 -32 440 q -254 256 -190 317 q -360 135 -318 194 q -407 26 -401 76 q -406 -32 -411 -7 q -388 -75 -401 -56 q -347 -97 -375 -94 m 411 779 q 410 934 410 858 q 413 1076 411 1010 q 362 919 393 1013 q 290 714 331 825 q 358 751 328 735 q 411 779 388 768 z "},"C":{"ha":856,"x_min":0,"x_max":832,"o":"m 0 575 q 25 774 0 674 q 95 965 50 874 q 203 1137 140 1057 q 340 1276 265 1217 q 497 1369 414 1335 q 668 1403 581 1403 q 765 1378 729 1403 q 817 1313 801 1353 q 831 1221 832 1272 q 815 1115 829 1169 q 778 1010 801 1061 q 730 918 756 958 q 678 853 704 878 q 631 828 651 828 q 614 863 611 828 q 630 953 617 899 q 660 1069 643 1007 q 687 1185 678 1131 q 691 1274 696 1239 q 654 1310 686 1310 q 519 1247 588 1310 q 393 1079 450 1185 q 300 834 336 974 q 264 540 264 694 q 285 294 264 397 q 335 124 306 190 q 397 25 364 57 q 454 -7 429 -7 q 490 19 471 -7 q 528 84 508 44 q 565 172 547 124 q 597 264 583 219 q 619 343 611 308 q 628 392 628 378 q 649 414 628 413 q 695 401 669 415 q 742 359 721 386 q 763 294 763 332 q 758 258 763 289 q 740 187 753 228 q 704 99 726 146 q 647 13 682 53 q 564 -52 613 -26 q 450 -78 515 -78 q 248 -31 333 -78 q 108 101 163 15 q 26 306 53 186 q 0 575 0 426 z "},"D":{"ha":1085,"x_min":-268,"x_max":1031,"o":"m 58 933 q 54 960 58 946 q 51 985 50 974 q 64 1003 53 996 q 106 1011 75 1011 q 190 996 151 1011 q 256 959 228 981 q 300 914 285 938 q 315 875 315 890 q 310 825 315 867 q 295 721 304 783 q 276 580 286 658 q 256 422 265 501 q 242 266 247 342 q 237 131 236 190 q 245 36 238 72 q 271 0 253 0 q 352 35 301 0 q 461 135 403 69 q 579 297 519 201 q 688 513 639 392 q 767 780 736 635 q 797 1092 797 925 q 769 1207 797 1158 q 701 1287 742 1256 q 615 1333 661 1318 q 532 1349 569 1349 q 317 1323 408 1349 q 159 1258 225 1297 q 49 1172 93 1218 q -22 1083 6 1125 q -65 1010 -50 1042 q -86 972 -79 979 q -127 953 -97 961 q -188 944 -157 946 q -244 947 -219 942 q -268 965 -268 951 q -245 1024 -268 983 q -178 1115 -222 1065 q -71 1217 -135 1164 q 76 1313 -7 1269 q 257 1383 158 1356 q 471 1411 356 1411 q 555 1410 501 1411 q 671 1397 608 1408 q 797 1358 733 1385 q 913 1282 861 1332 q 998 1153 965 1232 q 1031 960 1031 1075 q 1003 722 1031 844 q 925 481 975 599 q 806 259 875 364 q 651 75 736 154 q 470 -50 567 -4 q 271 -96 374 -96 q 145 -55 194 -96 q 67 55 96 -14 q 26 211 38 124 q 13 392 14 299 q 19 576 13 485 q 35 743 26 668 q 51 869 43 818 q 58 933 58 919 z "},"E":{"ha":926,"x_min":-25,"x_max":879,"o":"m 879 467 q 862 415 879 449 q 824 340 844 382 q 785 249 803 297 q 768 151 768 200 q 785 69 768 103 q 815 16 801 36 q 831 -12 829 -4 q 801 -21 832 -21 q 703 24 754 -21 q 629 161 653 69 q 539 76 590 121 q 433 -8 488 31 q 328 -71 379 -46 q 239 -96 276 -96 q 156 -77 189 -96 q 111 -39 122 -58 q 67 -14 90 -31 q 23 26 43 3 q -11 80 3 50 q -25 144 -25 110 q -10 255 -25 199 q 32 369 6 311 q 94 482 58 426 q 171 589 129 538 q 131 601 154 592 q 84 635 107 611 q 45 703 61 660 q 29 817 29 747 q 50 928 29 869 q 107 1046 71 988 q 190 1156 143 1104 q 287 1249 236 1208 q 390 1313 338 1289 q 488 1336 442 1336 q 542 1324 515 1336 q 590 1294 569 1313 q 610 1357 596 1319 q 642 1429 625 1394 q 674 1489 658 1464 q 700 1514 690 1514 q 729 1503 713 1514 q 761 1476 746 1492 q 787 1441 776 1460 q 797 1406 797 1422 q 781 1359 797 1390 q 744 1292 764 1328 q 708 1219 725 1256 q 692 1156 692 1182 q 693 1131 692 1139 q 678 1122 694 1122 q 660 1126 671 1122 q 638 1140 650 1131 q 615 1164 626 1149 q 596 1201 603 1179 q 582 1197 589 1199 q 565 1196 575 1196 q 515 1175 551 1196 q 431 1118 478 1154 q 334 1035 385 1082 q 241 934 283 988 q 172 825 199 881 q 144 717 144 769 q 151 665 144 690 q 196 670 171 661 q 243 692 221 679 q 294 726 268 707 q 379 800 338 767 q 459 858 421 833 q 530 895 497 882 q 588 908 563 908 q 628 896 607 908 q 667 865 650 883 q 697 826 685 847 q 708 788 708 806 q 665 742 708 776 q 554 657 621 708 q 411 539 488 606 q 268 397 335 472 q 158 238 201 321 q 114 72 114 156 q 121 31 114 49 q 136 0 128 14 q 141 1 139 0 q 146 1 143 1 q 231 28 183 1 q 328 95 278 54 q 428 184 378 136 q 519 276 478 232 q 592 352 561 319 q 636 394 624 385 q 659 464 646 431 q 685 522 672 497 q 708 563 697 547 q 726 578 719 578 q 778 567 751 578 q 828 539 806 556 q 865 503 850 522 q 879 467 879 483 z "},"G":{"ha":968,"x_min":-349,"x_max":913,"o":"m 913 646 q 883 573 913 632 q 819 412 854 514 q 756 166 785 310 q 726 -158 726 22 q 740 -331 726 -258 q 770 -453 753 -403 q 804 -534 788 -503 q 827 -582 821 -565 q 825 -604 833 -599 q 785 -610 817 -610 q 689 -563 736 -610 q 605 -441 642 -517 q 545 -268 568 -365 q 522 -69 522 -171 q 531 90 522 11 q 414 19 476 53 q 294 -26 351 -15 q 253 -31 283 -31 q 236 -26 240 -31 q 187 3 214 -19 q 131 61 160 25 q 77 145 103 97 q 33 251 51 193 q -108 142 -42 185 q -233 99 -175 99 q -276 115 -254 99 q -315 154 -299 131 q -340 206 -332 178 q -342 257 -349 233 q -312 297 -336 281 q -242 313 -289 313 q -135 345 -196 313 q 4 426 -74 378 l 4 444 q 39 653 4 549 q 128 856 74 758 q 253 1036 183 953 q 392 1182 322 1119 q 524 1280 461 1244 q 631 1315 588 1315 q 711 1306 674 1315 q 776 1278 749 1296 q 818 1235 803 1260 q 833 1179 833 1210 q 797 1149 833 1168 q 701 1097 760 1129 q 570 1018 643 1065 q 427 904 497 971 q 296 750 357 838 q 199 549 235 663 q 330 620 261 586 q 472 681 399 654 q 624 725 546 708 q 785 743 703 742 q 786 744 786 743 q 788 744 786 744 q 792 743 790 744 q 799 744 793 744 l 799 743 q 883 717 853 740 q 913 646 913 694 m 558 260 q 633 510 589 399 q 719 683 678 621 q 567 647 640 676 q 424 574 493 618 q 289 477 354 531 q 164 369 224 424 q 160 283 160 328 q 171 199 160 238 q 199 128 182 160 q 234 73 215 97 q 268 31 253 49 q 332 58 296 36 q 407 112 368 81 q 485 181 446 143 q 558 260 524 219 z "},"H":{"ha":807,"x_min":-360,"x_max":911,"o":"m 868 683 q 899 667 889 676 q 910 648 908 657 q 906 634 911 639 q 893 632 901 629 q 685 674 796 665 q 674 472 678 576 q 669 265 669 367 q 680 133 669 186 q 697 49 690 81 q 701 3 704 17 q 669 -12 697 -11 q 588 49 619 -12 q 540 210 557 111 q 517 432 522 310 q 511 675 511 554 q 439 668 475 672 q 367 657 403 664 q 356 440 364 549 q 332 243 347 332 q 272 49 313 131 q 183 -83 231 -32 q 88 -158 136 -135 q 6 -174 40 -181 q -22 -165 -18 -169 q -16 -147 -25 -160 q 12 -110 -7 -135 q 52 -44 31 -86 q 96 60 74 -3 q 135 215 118 124 q 154 392 147 288 q 165 610 161 497 q 11 550 81 582 q -106 483 -58 518 q -136 497 -121 478 q -162 541 -151 515 q -179 592 -174 567 q -181 625 -185 617 q -149 648 -176 633 q -77 678 -122 663 q 31 710 -32 694 q 168 738 93 726 q 172 849 171 796 q 174 949 172 903 q 174 1024 174 982 q 172 1112 175 1067 q 163 1201 169 1157 q 144 1278 157 1244 q 108 1333 131 1313 q 53 1354 86 1354 q -40 1333 6 1354 q -126 1276 -86 1311 q -201 1198 -167 1242 q -259 1110 -235 1154 q -297 1024 -283 1065 q -311 954 -311 983 q -319 917 -311 931 q -335 901 -326 903 q -352 912 -344 900 q -360 951 -360 924 q -344 1042 -360 992 q -301 1143 -329 1092 q -233 1242 -272 1194 q -144 1328 -193 1290 q -40 1388 -96 1365 q 78 1411 17 1411 q 197 1372 143 1411 q 289 1254 250 1333 q 349 1056 328 1175 q 369 779 369 938 l 369 757 q 440 758 404 758 q 513 754 476 757 q 517 897 514 829 q 522 1017 519 964 q 526 1107 525 1071 q 528 1154 528 1143 q 528 1178 528 1168 q 535 1197 529 1189 q 555 1209 542 1204 q 592 1214 568 1214 q 637 1201 614 1214 q 677 1170 660 1189 q 706 1130 694 1151 q 718 1090 718 1108 q 715 1052 718 1082 q 708 975 713 1022 q 699 865 704 928 q 689 732 694 803 q 868 683 776 715 z "},"I":{"ha":375,"x_min":-24,"x_max":289,"o":"m 246 1201 q 248 1131 244 1182 q 258 1010 251 1081 q 271 854 264 939 q 283 681 278 769 q 288 506 288 593 q 283 347 289 419 q 244 156 275 238 q 172 19 213 74 q 87 -60 131 -35 q 10 -83 43 -86 q -18 -78 -12 -82 q -18 -60 -24 -74 q 1 -23 -12 -47 q 31 44 15 1 q 60 149 46 86 q 81 300 74 211 q 83 438 85 358 q 78 604 82 517 q 67 781 74 692 q 56 946 61 869 q 47 1080 50 1022 q 46 1163 43 1138 q 64 1209 47 1188 q 103 1246 81 1231 q 153 1268 126 1261 q 201 1271 179 1275 q 235 1250 222 1267 q 246 1201 249 1233 z "},"J":{"ha":781,"x_min":-151,"x_max":703,"o":"m 399 1386 q 519 1335 465 1386 q 610 1199 572 1285 q 669 997 647 1113 q 697 752 692 882 q 692 486 703 622 q 651 220 681 350 q 574 -25 622 90 q 460 -226 526 -140 q 306 -363 393 -312 q 111 -414 219 -414 q 4 -389 49 -414 q -71 -327 -40 -364 q -119 -249 -101 -290 q -147 -175 -137 -207 q -145 -151 -151 -161 q -128 -136 -139 -140 q -108 -135 -118 -132 q -94 -149 -97 -137 q -78 -199 -89 -174 q -50 -244 -68 -224 q -7 -278 -32 -265 q 54 -290 18 -290 q 189 -245 129 -290 q 294 -123 249 -200 q 374 57 340 -46 q 431 276 408 160 q 465 514 453 392 q 481 752 478 636 q 478 971 483 868 q 462 1151 474 1074 q 432 1273 450 1228 q 392 1318 414 1318 q 261 1289 321 1318 q 152 1213 201 1260 q 65 1106 103 1167 q 1 984 26 1046 q -38 864 -25 922 q -51 761 -51 806 q -51 703 -51 718 q -62 688 -51 688 q -80 692 -68 688 q -103 704 -92 696 q -124 727 -115 713 q -129 763 -132 742 q -68 1005 -118 892 q 56 1203 -18 1118 q 219 1337 129 1288 q 399 1386 308 1386 z "},"K":{"ha":772,"x_min":-236,"x_max":1210,"o":"m 1013 -142 q 1092 -133 1056 -142 q 1154 -119 1128 -125 q 1195 -117 1181 -114 q 1210 -142 1210 -119 q 1192 -194 1210 -164 q 1147 -252 1175 -225 q 1081 -299 1118 -279 q 1004 -318 1044 -318 q 865 -280 935 -318 q 724 -178 794 -242 q 585 -31 654 -114 q 450 140 517 51 q 319 317 383 229 q 194 479 256 404 q 188 353 190 413 q 188 242 186 293 q 203 102 189 158 q 225 13 217 46 q 228 -35 233 -21 q 188 -51 222 -50 q 86 -7 126 -53 q 22 116 46 39 q -13 293 -3 193 q -25 501 -24 393 l -36 501 q -119 518 -82 501 q -183 559 -157 535 q -222 611 -208 583 q -236 660 -236 639 q -222 698 -236 681 q -183 727 -207 715 q -131 745 -160 739 q -71 751 -101 751 q -44 750 -57 751 q -19 746 -32 749 q -9 902 -15 828 q 2 1035 -3 976 q 11 1132 7 1093 q 15 1183 15 1171 q 17 1209 15 1197 q 26 1229 18 1221 q 49 1242 33 1238 q 94 1247 65 1247 q 152 1234 124 1247 q 202 1201 181 1221 q 238 1158 224 1182 q 251 1117 251 1135 q 247 1067 251 1108 q 237 961 243 1025 q 222 817 231 897 q 207 650 214 736 q 367 761 289 694 q 507 906 446 828 q 605 1071 568 985 q 642 1240 642 1157 q 637 1293 642 1268 q 633 1337 632 1318 q 646 1367 633 1356 q 692 1378 658 1378 q 772 1321 740 1378 q 803 1168 803 1264 q 760 994 803 1082 q 643 825 717 906 q 473 677 569 744 q 268 565 376 610 q 406 422 338 500 q 541 266 475 344 q 672 114 607 188 q 795 -17 736 40 q 909 -108 854 -74 q 1013 -142 964 -142 m -25 578 q -24 628 -24 603 q -22 678 -24 653 q -87 694 -56 694 q -169 676 -143 694 q -189 636 -194 658 q -146 596 -183 614 q -36 578 -108 578 l -25 578 z "},"L":{"ha":415,"x_min":-224,"x_max":915,"o":"m 171 -24 q 343 -30 254 -22 q 515 -54 432 -37 q 672 -95 599 -71 q 801 -149 746 -119 q 885 -215 856 -179 q 913 -290 915 -251 q 877 -380 907 -351 q 811 -406 847 -408 q 776 -384 803 -404 q 706 -334 750 -364 q 601 -269 661 -304 q 465 -203 540 -233 q 301 -152 390 -172 q 111 -131 213 -132 q 8 -231 60 -201 q -90 -260 -44 -260 q -155 -250 -129 -260 q -196 -226 -181 -240 q -217 -194 -211 -211 q -224 -164 -224 -178 q -210 -121 -224 -147 q -151 -71 -197 -94 q -82 -46 -126 -54 q -22 -33 -54 -37 q -3 33 -12 -3 q 13 113 6 69 q 30 258 22 169 q 44 447 38 346 q 55 655 50 549 q 64 852 60 761 q 72 1010 68 943 q 79 1101 75 1076 q 102 1146 83 1126 q 145 1178 121 1165 q 197 1194 169 1190 q 245 1192 224 1199 q 278 1169 267 1186 q 285 1119 290 1151 q 278 1040 281 1100 q 273 895 276 981 q 265 708 269 810 q 256 503 261 606 q 241 306 250 401 q 219 139 232 210 q 171 -24 203 50 m -132 -222 q -95 -206 -112 -222 q -65 -168 -78 -189 q -37 -114 -50 -144 q -114 -131 -86 -114 q -152 -168 -142 -147 q -157 -206 -162 -189 q -132 -222 -151 -222 z "},"N":{"ha":875,"x_min":-7,"x_max":806,"o":"m 803 1194 q 797 1144 803 1171 q 780 1081 790 1117 q 758 996 769 1044 q 737 880 747 947 q 720 724 726 813 q 714 518 714 635 q 726 308 714 396 q 754 161 739 221 q 783 66 769 101 q 801 12 797 31 q 794 -12 806 -7 q 747 -18 782 -18 q 652 13 692 -18 q 585 94 613 43 q 542 213 558 146 q 518 352 526 279 q 507 498 510 425 q 504 636 504 571 q 510 767 504 696 q 526 914 515 839 q 476 737 503 838 q 423 513 450 636 q 370 245 396 390 q 322 -64 344 100 q 327 -88 332 -83 q 294 -93 322 -93 q 202 -58 254 -93 q 103 53 150 -22 q 25 247 57 129 q -7 531 -7 365 q 0 690 -7 617 q 15 819 7 763 q 31 912 24 875 q 38 963 38 949 q 39 986 38 972 q 46 1013 40 1000 q 62 1036 51 1026 q 90 1046 72 1046 q 138 1032 108 1046 q 197 996 168 1018 q 247 946 226 974 q 268 892 268 918 q 261 820 268 864 q 245 722 254 776 q 229 603 236 667 q 222 472 222 539 q 238 225 222 325 q 272 63 253 125 q 297 187 281 107 q 334 365 313 267 q 383 574 356 464 q 440 790 410 685 q 504 989 471 896 q 572 1147 538 1082 q 613 1269 592 1222 q 653 1315 633 1315 q 704 1309 678 1315 q 753 1289 731 1303 q 789 1252 775 1275 q 803 1194 803 1229 z "},"O":{"ha":926,"x_min":-35,"x_max":876,"o":"m 479 1361 q 677 1320 600 1361 q 799 1212 754 1279 q 860 1056 843 1144 q 876 872 876 968 q 862 713 876 808 q 819 513 847 618 q 752 303 792 408 q 663 115 713 199 q 553 -20 613 32 q 426 -72 493 -72 q 271 -33 339 -72 q 151 73 203 7 q 65 224 100 139 q 7 399 29 308 q -25 577 -15 489 q -35 739 -35 665 q -27 827 -35 774 q -3 930 -19 881 q 39 1015 13 979 q 103 1050 65 1050 q 154 1046 129 1050 q 190 1154 167 1099 q 252 1256 214 1210 q 346 1331 290 1301 q 479 1361 401 1361 m 674 872 q 669 988 674 922 q 653 1111 665 1053 q 619 1210 640 1169 q 563 1251 597 1251 q 512 1230 539 1251 q 458 1174 485 1208 q 405 1099 431 1140 q 360 1017 379 1057 q 330 942 342 976 q 318 888 318 907 q 322 836 318 860 q 325 796 326 813 q 313 769 324 779 q 272 760 303 760 q 200 776 233 760 q 190 695 193 738 q 186 603 186 653 q 191 529 186 582 q 206 410 196 476 q 233 271 217 343 q 271 138 249 199 q 322 39 293 78 q 386 0 350 0 q 458 43 422 0 q 525 158 493 86 q 584 321 557 229 q 631 510 611 413 q 663 701 651 607 q 674 872 674 796 z "},"P":{"ha":582,"x_min":-260,"x_max":768,"o":"m 457 1371 q 638 1337 569 1371 q 737 1246 706 1303 q 767 1116 768 1189 q 738 966 765 1043 q 663 813 711 889 q 553 674 615 736 q 419 567 490 611 q 274 511 347 524 q 267 375 269 440 q 267 256 264 310 q 281 116 268 172 q 303 26 294 60 q 306 -22 311 -7 q 265 -37 300 -36 q 163 9 203 -39 q 98 138 122 57 q 64 322 74 218 q 54 538 54 426 q 15 566 29 550 q 0 603 0 582 q 12 620 0 621 q 54 614 24 619 q 60 764 56 690 q 69 903 64 838 q 78 1025 74 969 q 88 1121 83 1081 q -25 1007 28 1068 q -117 886 -78 946 q -180 774 -157 826 q -203 683 -203 721 q -212 633 -203 651 q -231 613 -221 615 q -251 626 -242 611 q -260 676 -260 640 q -232 816 -260 742 q -156 965 -204 890 q -43 1110 -108 1040 q 99 1236 22 1181 q 128 1256 106 1250 q 290 1340 207 1308 q 457 1371 374 1371 m 251 1238 q 308 1186 285 1217 q 331 1131 331 1156 q 326 1077 331 1122 q 315 963 322 1032 q 299 809 307 894 q 283 635 290 724 q 388 729 340 668 q 470 863 436 790 q 522 1010 504 935 q 535 1146 540 1085 q 501 1246 531 1207 q 414 1285 472 1285 q 251 1238 338 1285 z "},"Q":{"ha":886,"x_min":-74,"x_max":1588,"o":"m 1554 -451 q 1586 -485 1585 -451 q 1559 -558 1588 -518 q 1471 -632 1531 -599 q 1321 -665 1411 -665 q 1194 -630 1258 -665 q 1065 -537 1131 -594 q 935 -406 1000 -479 q 805 -256 869 -332 q 676 -108 740 -179 q 553 19 613 -36 q 491 -16 522 -4 q 424 -28 460 -28 q 257 -2 329 -28 q 132 68 185 24 q 75 15 99 43 q 36 -40 51 -14 q 13 -84 21 -65 q 0 -108 4 -103 q -13 -119 -4 -118 q -29 -116 -22 -121 q -38 -101 -36 -111 q -31 -81 -40 -92 q -17 -53 -26 -72 q 8 -10 -7 -35 q 47 41 24 14 q 103 93 71 68 q 16 213 50 146 q -37 355 -18 281 q -65 504 -57 429 q -74 649 -74 579 q -70 710 -74 671 q -60 794 -67 749 q -44 885 -54 839 q -19 967 -33 931 q 15 1028 -4 1004 q 57 1051 33 1051 q 74 1051 67 1051 q 89 1050 82 1051 q 133 1165 106 1110 q 201 1261 161 1219 q 294 1328 240 1303 q 419 1353 349 1353 q 570 1324 507 1353 q 676 1248 633 1296 q 743 1137 718 1200 q 781 1005 768 1074 q 799 867 794 936 q 803 736 803 797 q 791 582 803 669 q 756 404 779 494 q 697 228 732 314 q 613 81 661 143 q 750 -27 683 35 q 879 -154 817 -89 q 1001 -284 942 -219 q 1119 -399 1061 -349 q 1236 -480 1178 -449 q 1354 -511 1294 -511 q 1451 -502 1415 -511 q 1506 -481 1486 -493 q 1535 -460 1525 -469 q 1554 -451 1544 -451 m 385 42 q 426 54 407 42 q 461 89 446 67 q 399 122 429 110 q 340 133 368 133 q 264 125 301 133 q 318 65 288 89 q 385 42 349 42 m 588 736 q 588 819 588 768 q 585 926 588 869 q 577 1039 582 982 q 563 1142 572 1096 q 538 1217 553 1189 q 500 1246 522 1246 q 393 1197 439 1246 q 317 1070 347 1149 q 272 892 288 992 q 257 688 257 792 q 261 637 257 660 q 264 597 265 614 q 252 571 263 581 q 213 561 242 561 q 186 563 199 561 q 160 568 174 565 q 158 543 158 556 q 158 517 158 531 q 163 457 158 497 q 178 366 168 417 q 205 260 189 315 q 244 160 221 206 q 290 167 265 165 q 340 169 314 169 q 493 142 417 169 q 535 264 517 193 q 565 415 553 335 q 582 577 576 494 q 588 736 588 660 z "},"S":{"ha":988,"x_min":-17,"x_max":944,"o":"m 700 1364 q 784 1341 747 1364 q 847 1284 821 1318 q 890 1210 874 1250 q 910 1135 906 1169 q 909 1078 915 1101 q 886 1056 903 1056 q 854 1069 874 1056 q 808 1099 835 1083 q 747 1129 781 1115 q 671 1143 713 1143 q 537 1113 608 1143 q 398 1039 465 1083 q 272 943 331 994 q 179 847 214 892 q 138 773 144 803 q 167 743 131 743 q 230 758 190 743 q 324 790 269 772 q 449 823 379 808 q 604 838 518 838 q 783 813 717 838 q 886 751 850 789 q 933 669 922 714 q 944 583 944 624 q 910 401 944 488 q 817 240 875 314 q 685 108 760 167 q 531 8 611 49 q 372 -56 451 -33 q 224 -78 292 -78 q 148 -62 190 -78 q 69 -16 106 -47 q 8 62 33 15 q -17 171 -17 108 q -3 219 -17 204 q 28 232 11 233 q 58 215 44 231 q 72 174 72 200 q 85 134 72 150 q 118 109 99 118 q 159 97 138 100 q 196 93 181 93 q 292 113 238 93 q 403 166 346 132 q 515 247 460 200 q 613 347 569 293 q 682 458 656 400 q 708 574 708 515 q 704 647 708 613 q 688 706 700 681 q 653 747 675 732 q 594 761 631 761 q 438 742 511 761 q 307 699 364 722 q 212 658 250 676 q 160 639 174 639 q 105 651 132 639 q 57 684 78 664 q 23 728 36 704 q 10 774 10 751 q 42 894 10 829 q 129 1026 75 960 q 254 1152 183 1092 q 401 1260 325 1213 q 555 1335 478 1307 q 700 1364 632 1364 z "},"T":{"ha":496,"x_min":-428,"x_max":1063,"o":"m 935 1269 q 989 1240 964 1263 q 1031 1189 1014 1217 q 1055 1133 1047 1161 q 1060 1089 1063 1106 q 1048 1070 1057 1072 q 1024 1074 1039 1068 q 988 1089 1008 1079 q 943 1104 968 1099 q 826 1124 894 1115 q 679 1140 758 1133 q 512 1149 600 1146 q 333 1151 424 1153 q 327 1035 331 1106 q 319 882 324 965 q 310 708 314 799 q 303 529 306 617 q 299 363 300 442 q 299 225 297 283 q 313 88 300 143 q 334 0 326 33 q 337 -48 342 -33 q 299 -62 332 -62 q 214 -27 250 -64 q 153 74 178 10 q 115 223 129 138 q 94 405 101 308 q 86 603 88 501 q 87 803 85 706 q 94 988 89 900 q 103 1140 99 1075 q -81 1117 6 1132 q -233 1078 -167 1101 q -341 1024 -300 1056 q -389 951 -382 993 q -398 931 -392 939 q -411 922 -404 924 q -423 926 -418 921 q -425 947 -428 932 q -365 1079 -412 1022 q -245 1177 -317 1136 q -82 1245 -174 1218 q 111 1288 10 1272 q 113 1312 111 1301 q 123 1330 115 1322 q 145 1342 131 1338 q 186 1346 160 1346 q 236 1335 211 1346 q 281 1307 261 1324 q 471 1313 376 1314 q 651 1307 565 1313 q 810 1292 738 1301 q 935 1269 882 1282 z "},"U":{"ha":908,"x_min":-28,"x_max":839,"o":"m 839 1099 q 823 1028 839 1081 q 788 892 807 975 q 753 702 769 810 q 738 467 738 594 q 751 248 738 339 q 779 99 764 157 q 808 11 794 40 q 821 -22 821 -18 q 800 -37 821 -29 q 756 -46 779 -46 q 670 -15 707 -46 q 606 66 633 17 q 561 176 579 115 q 532 299 543 238 q 423 89 492 197 q 246 -121 354 -19 l 244 -108 q 236 -136 246 -128 q 199 -146 226 -144 q 87 -95 131 -147 q 17 44 43 -43 q -18 245 -8 132 q -28 478 -28 358 q -22 715 -28 597 q -7 930 -15 833 q 8 1093 1 1026 q 14 1176 14 1160 q 15 1204 14 1192 q 25 1226 17 1217 q 51 1240 33 1235 q 100 1244 68 1244 q 160 1231 131 1246 q 214 1196 190 1217 q 253 1150 238 1175 q 268 1106 268 1125 q 263 1044 268 1096 q 249 913 257 992 q 231 735 240 833 q 214 537 222 638 q 201 340 206 436 q 199 168 197 244 q 213 28 201 85 q 235 -65 225 -28 q 269 -28 238 -62 q 342 70 300 7 q 432 224 385 133 q 514 428 479 314 q 511 469 511 450 q 511 503 511 488 q 522 759 511 640 q 551 965 533 878 q 593 1101 569 1051 q 640 1150 617 1150 q 688 1149 654 1150 q 754 1142 721 1147 q 813 1127 788 1138 q 839 1099 839 1117 z "},"V":{"ha":829,"x_min":-629,"x_max":803,"o":"m 488 1346 q 590 1317 535 1346 q 693 1222 646 1288 q 772 1049 740 1156 q 803 785 803 942 q 778 590 803 685 q 713 413 754 496 q 618 260 672 331 q 504 138 564 190 q 382 51 444 85 q 263 6 319 17 q 210 0 250 0 q 113 60 156 0 q 42 244 71 121 q -3 558 13 368 q -19 1008 -19 749 q -151 995 -90 1004 q -263 977 -211 986 q -360 960 -315 968 q -447 953 -406 953 q -506 968 -478 953 q -556 1006 -533 983 q -596 1056 -579 1029 q -621 1106 -612 1083 q -629 1144 -629 1129 q -617 1160 -629 1160 q -589 1155 -599 1160 q -565 1144 -579 1150 q -528 1134 -551 1139 q -458 1129 -504 1129 q -366 1137 -412 1129 q -269 1154 -319 1144 q -161 1172 -218 1164 q -37 1179 -104 1179 q 51 1164 10 1179 q 113 1140 82 1161 q 167 1087 143 1119 q 206 1014 190 1054 q 221 935 221 974 q 220 737 221 818 q 219 595 219 656 q 217 485 218 535 q 217 383 217 436 q 222 267 217 318 q 236 178 228 217 q 253 110 244 139 q 267 63 261 82 q 334 114 297 76 q 408 206 371 151 q 479 331 444 261 q 541 480 514 401 q 584 642 568 558 q 600 810 600 726 q 583 986 600 908 q 542 1124 565 1064 q 497 1226 519 1183 q 461 1294 474 1268 q 452 1333 449 1321 q 488 1346 456 1346 z "},"W":{"ha":1179,"x_min":-585,"x_max":1185,"o":"m 869 1401 q 972 1370 917 1401 q 1074 1268 1026 1339 q 1153 1082 1121 1197 q 1185 799 1185 967 q 1166 606 1185 704 q 1114 417 1147 508 q 1035 244 1081 325 q 939 102 990 164 q 831 2 888 40 q 718 -42 774 -36 q 704 -44 711 -43 q 689 -44 697 -44 q 605 -18 644 -44 q 535 70 565 8 q 487 232 506 132 q 464 478 468 332 q 421 288 446 383 q 367 117 396 193 q 308 -8 338 40 q 253 -56 279 -56 l 244 -56 q 232 -57 238 -57 q 219 -57 226 -57 q 129 -31 169 -57 q 60 38 89 -4 q 15 135 31 81 q -1 244 -1 189 q 2 376 -1 299 q 10 546 6 454 q 18 739 14 638 q 22 942 22 840 q -55 929 -15 938 q -138 913 -94 921 q -231 899 -182 904 q -335 893 -279 893 q -428 912 -387 893 q -499 958 -469 931 q -549 1019 -529 986 q -576 1081 -568 1053 q -583 1127 -585 1108 q -571 1146 -582 1146 q -546 1135 -554 1146 q -525 1110 -537 1124 q -489 1086 -512 1097 q -419 1075 -465 1075 q -276 1083 -342 1075 q -153 1102 -210 1092 q -49 1122 -97 1113 q 44 1135 0 1132 q 69 1138 58 1138 q 142 1122 104 1138 q 210 1074 179 1106 q 260 997 240 1043 q 279 892 279 951 q 276 815 279 871 q 269 685 274 760 q 261 527 265 611 q 253 367 257 443 q 246 229 249 290 q 243 140 243 168 q 247 103 243 124 q 256 63 250 82 q 272 32 263 44 q 290 19 281 19 q 333 118 311 54 q 375 260 354 182 q 415 424 396 339 q 448 588 433 510 q 472 731 463 667 q 483 829 481 794 q 479 871 482 853 q 479 900 476 889 q 495 915 482 911 q 539 918 508 919 q 601 893 569 915 q 656 835 632 871 q 694 757 679 800 q 710 671 710 714 q 709 589 710 624 q 708 524 708 554 q 708 465 708 494 q 707 397 707 435 q 714 276 707 332 q 729 175 721 221 q 745 92 738 129 q 756 29 753 56 q 809 99 782 50 q 861 213 836 147 q 908 358 886 279 q 947 517 931 436 q 972 678 963 599 q 981 825 981 757 q 964 1015 981 931 q 924 1163 947 1099 q 878 1272 901 1226 q 842 1346 854 1317 q 833 1388 829 1375 q 869 1401 838 1401 z "},"X":{"ha":856,"x_min":-239,"x_max":1251,"o":"m 1154 1351 q 1213 1335 1192 1351 q 1243 1301 1235 1319 q 1247 1266 1251 1282 q 1229 1250 1243 1250 q 1213 1256 1215 1250 q 1210 1268 1210 1261 q 1208 1281 1210 1275 q 1194 1286 1207 1286 q 1134 1247 1174 1286 q 1042 1139 1094 1207 q 929 981 990 1071 q 802 788 868 890 q 669 576 736 685 q 538 363 601 467 q 634 217 585 289 q 731 88 683 144 q 824 -4 779 31 q 908 -39 869 -39 q 933 -35 921 -39 q 956 -32 946 -32 q 973 -37 967 -32 q 979 -58 979 -42 q 972 -83 979 -69 q 949 -108 964 -96 q 913 -129 935 -121 q 863 -137 892 -137 q 765 -108 817 -137 q 658 -31 713 -79 q 547 77 603 17 q 436 200 490 138 q 297 -13 358 79 q 181 -168 235 -106 q 78 -262 128 -231 q -21 -293 29 -293 q -123 -277 -82 -293 q -189 -237 -164 -261 q -226 -187 -214 -214 q -238 -136 -237 -160 q -232 -97 -239 -112 q -214 -81 -225 -81 q -194 -86 -200 -81 q -180 -98 -189 -92 q -154 -109 -171 -104 q -101 -114 -137 -114 q -10 -83 -53 -114 q 79 10 33 -51 q 179 161 125 71 q 304 369 233 251 q 174 554 235 463 q 69 721 114 646 q -1 847 25 796 q -26 913 -26 899 q -12 962 -26 933 q 21 1017 1 990 q 63 1061 40 1043 q 101 1079 85 1079 q 148 1035 117 1079 q 221 920 179 992 q 314 756 263 849 q 422 565 365 663 q 538 747 476 654 q 662 928 599 840 q 790 1092 725 1015 q 917 1227 854 1169 q 1040 1318 981 1285 q 1154 1351 1100 1351 z "},"Y":{"ha":875,"x_min":-21,"x_max":793,"o":"m 781 915 q 747 129 793 475 q 715 -66 735 31 q 667 -249 694 -162 q 602 -411 639 -336 q 517 -540 565 -486 q 410 -626 469 -594 q 279 -657 351 -657 q 226 -645 254 -657 q 174 -615 199 -633 q 134 -576 150 -597 q 117 -536 118 -554 q 135 -506 117 -518 q 200 -494 154 -494 q 301 -460 256 -494 q 381 -366 346 -426 q 444 -225 417 -306 q 492 -51 472 -144 q 526 144 513 43 q 550 347 540 246 q 479 217 518 285 q 398 93 440 149 q 312 1 356 38 q 228 -35 268 -35 q 160 -15 201 -35 q 78 54 118 4 q 8 190 38 104 q -21 407 -21 275 q -17 506 -21 449 q -10 646 -14 563 q -3 845 -7 729 q 0 1119 0 961 q -7 1179 0 1150 q -15 1231 -14 1208 q -2 1266 -15 1253 q 51 1279 11 1279 q 105 1267 72 1279 q 167 1229 138 1254 q 219 1167 197 1204 q 240 1079 240 1129 q 237 981 240 1044 q 228 835 233 917 q 216 663 222 754 q 205 481 210 571 q 198 308 200 390 q 198 161 196 225 q 208 60 200 97 q 231 22 215 22 q 302 70 260 22 q 390 190 344 118 q 481 346 436 263 q 563 500 526 429 q 571 680 568 594 q 575 833 574 765 q 576 947 576 900 q 576 1011 576 994 q 574 1042 576 1025 q 574 1072 571 1058 q 588 1095 576 1086 q 626 1104 599 1104 q 681 1092 653 1104 q 731 1057 708 1081 q 767 998 753 1033 q 781 915 781 963 z "},"Z":{"ha":968,"x_min":-310,"x_max":2600,"o":"m 2554 -342 q 2585 -374 2572 -342 q 2599 -453 2599 -406 q 2583 -556 2600 -500 q 2525 -658 2567 -611 q 2413 -737 2483 -706 q 2235 -769 2342 -769 q 2069 -740 2165 -769 q 1858 -661 1974 -711 q 1611 -546 1742 -611 q 1344 -408 1481 -481 q 1068 -260 1207 -335 q 797 -118 929 -186 q 542 7 664 -50 q 319 100 421 64 q 206 -3 261 43 q 99 -85 150 -50 q 3 -138 47 -119 q -78 -157 -42 -157 q -175 -129 -125 -157 q -259 -60 -225 -101 q -301 28 -293 -19 q -276 117 -310 76 q -156 186 -242 158 q 88 214 -69 214 l 126 214 q 268 363 193 281 q 422 538 343 446 q 203 563 274 547 q 132 590 132 579 q 159 597 132 594 q 233 601 186 599 q 344 603 281 603 q 479 604 407 604 q 684 848 586 729 q 858 1056 782 967 q 714 1063 785 1056 q 576 1077 643 1069 q 444 1091 508 1085 q 321 1097 381 1097 q 199 1092 247 1097 q 119 1078 150 1086 q 72 1060 89 1069 q 47 1043 56 1051 q 31 1029 38 1035 q 14 1024 24 1024 q -8 1043 -6 1024 q 22 1087 -10 1063 q 125 1131 53 1111 q 328 1150 197 1150 q 577 1155 469 1150 q 764 1167 685 1160 q 895 1180 843 1174 q 979 1190 947 1186 q 1014 1214 1006 1214 q 1053 1197 1036 1214 q 1081 1157 1071 1181 q 1097 1108 1092 1133 q 1103 1065 1103 1082 q 1077 1018 1103 1058 q 1007 915 1051 978 q 901 772 963 853 q 768 601 840 690 q 924 598 850 600 q 1055 593 999 596 q 1144 587 1111 590 q 1178 579 1178 583 q 1060 548 1178 563 q 710 531 943 533 q 553 347 635 439 q 390 171 472 254 q 719 65 547 132 q 1065 -78 890 -1 q 1413 -234 1240 -156 q 1743 -376 1585 -312 q 2040 -481 1901 -440 q 2285 -521 2178 -521 q 2375 -508 2339 -521 q 2435 -474 2411 -494 q 2474 -431 2460 -454 q 2501 -388 2489 -408 q 2524 -355 2513 -368 q 2554 -342 2536 -342 m -110 42 q -37 72 -82 42 q 63 153 7 101 q -99 133 -42 150 q -175 95 -157 115 q -175 58 -193 75 q -110 42 -157 42 z "},"a":{"ha":703,"x_min":0,"x_max":831,"o":"m 794 503 q 804 519 797 514 q 817 523 811 524 q 827 515 824 522 q 828 496 831 508 q 815 447 826 488 q 783 348 803 406 q 739 224 764 290 q 685 99 714 157 q 626 -3 657 40 q 567 -56 596 -46 q 544 -60 560 -60 q 487 -40 511 -60 q 444 10 463 -19 q 413 76 425 40 q 392 141 400 111 q 379 191 383 171 q 372 211 375 211 q 363 195 369 211 q 347 156 357 179 q 322 106 336 133 q 290 55 308 78 q 249 16 272 32 q 199 0 226 0 q 121 15 157 0 q 58 61 85 29 q 15 144 31 93 q 0 267 0 194 q 19 418 0 335 q 76 574 38 501 q 171 697 114 647 q 306 746 228 746 q 404 742 360 746 q 481 720 449 739 q 532 660 514 701 q 550 543 550 619 q 542 530 550 536 q 525 522 535 524 q 508 523 515 519 q 500 538 500 526 q 498 574 500 550 q 489 622 496 597 q 470 664 482 646 q 439 682 458 682 q 341 640 388 682 q 259 526 294 597 q 203 365 224 456 q 182 179 182 275 q 183 136 182 160 q 190 92 185 113 q 204 58 194 72 q 229 44 214 44 q 253 66 239 44 q 281 122 267 88 q 310 199 296 157 q 334 281 324 240 q 351 355 344 321 q 358 407 358 389 q 360 431 358 417 q 369 456 361 444 q 393 476 376 468 q 442 485 410 485 q 533 462 506 485 q 561 417 561 439 l 561 394 q 563 298 563 358 q 566 178 563 238 q 578 76 569 119 q 603 33 586 33 q 626 66 610 33 q 663 148 643 99 q 706 256 683 197 q 747 367 728 315 q 778 457 765 419 q 794 503 792 494 z "},"b":{"ha":688,"x_min":-1,"x_max":640,"o":"m 514 694 q 588 599 558 665 q 628 451 617 533 q 633 283 640 369 q 598 124 626 196 q 518 6 569 53 q 390 -40 467 -40 q 335 -32 360 -40 q 299 -15 311 -24 q 292 3 288 -6 q 326 11 297 11 q 397 58 369 11 q 440 174 425 104 q 459 324 454 243 q 460 475 464 406 q 448 591 457 544 q 426 638 439 638 q 379 606 403 638 q 334 526 356 575 q 294 417 313 478 q 259 300 275 357 q 232 194 243 243 q 215 119 221 146 q 243 60 229 83 q 265 23 257 38 q 272 3 272 8 q 256 -3 271 -3 q 126 42 176 -3 q 48 161 76 88 q 9 329 19 235 q -1 522 -1 424 q 2 622 -1 567 q 11 734 6 678 q 23 844 17 790 q 35 942 29 899 q 44 1012 40 985 q 47 1042 47 1039 q 51 1061 47 1049 q 76 1074 56 1074 q 110 1066 86 1074 q 160 1046 135 1058 q 206 1017 186 1033 q 225 982 225 1000 q 216 911 225 964 q 197 779 207 858 q 178 598 186 700 q 169 381 169 496 q 176 272 169 319 q 193 186 182 224 q 219 317 201 240 q 257 470 236 394 q 301 606 278 546 q 344 688 324 667 q 387 710 361 704 q 439 713 413 715 q 486 705 465 711 q 514 694 507 699 z "},"c":{"ha":481,"x_min":1,"x_max":529,"o":"m 229 3 q 135 35 176 3 q 63 119 93 67 q 17 240 33 172 q 1 378 1 307 q 14 487 1 435 q 45 583 26 539 q 84 658 64 626 q 121 706 104 690 q 163 732 136 722 q 218 744 190 742 q 271 743 246 747 q 307 728 296 739 q 333 686 318 717 q 358 623 347 656 q 369 565 368 590 q 354 540 371 540 q 326 559 338 540 q 306 601 315 578 q 288 643 296 624 q 271 663 281 663 q 229 622 247 663 q 200 519 211 581 q 185 385 189 457 q 189 251 182 313 q 215 148 196 189 q 265 107 233 107 q 333 126 303 107 q 385 175 363 146 q 425 240 408 204 q 453 307 442 275 q 471 363 464 339 q 482 393 478 386 q 497 408 488 403 q 515 415 507 414 q 526 410 522 415 q 524 393 529 404 q 510 353 519 385 q 485 278 501 322 q 446 186 469 235 q 391 97 422 138 q 319 30 360 57 q 229 3 279 3 z "},"!":{"ha":413,"x_min":39,"x_max":290,"o":"m 214 515 q 226 401 215 447 q 244 328 238 356 q 247 288 251 300 q 214 275 243 275 q 128 314 161 274 q 74 421 94 354 q 47 574 54 488 q 39 753 39 661 q 44 936 39 846 q 55 1101 49 1026 q 67 1226 61 1175 q 72 1289 72 1276 q 73 1311 72 1301 q 80 1327 74 1321 q 99 1338 86 1333 q 136 1342 113 1342 q 183 1333 160 1343 q 226 1306 207 1322 q 256 1270 244 1289 q 267 1235 267 1251 q 263 1188 267 1228 q 252 1087 258 1147 q 238 951 246 1026 q 225 799 231 876 q 216 647 219 721 q 214 515 213 574 m 290 46 q 272 7 290 18 q 227 -2 254 -4 q 168 11 200 0 q 109 39 136 22 q 64 74 82 56 q 46 108 46 92 q 55 144 46 132 q 79 163 64 157 q 116 169 94 168 q 161 169 138 169 q 207 157 183 169 q 249 126 231 144 q 278 85 267 107 q 290 46 290 64 z "},"\"":{"ha":531,"x_min":63,"x_max":417,"o":"m 78 1000 q 76 1046 78 1022 q 74 1092 75 1069 q 72 1131 74 1114 q 71 1154 71 1147 q 78 1177 71 1164 q 99 1201 86 1190 q 126 1219 111 1213 q 158 1226 142 1226 q 196 1217 190 1226 q 201 1192 201 1207 q 203 1080 201 1142 q 198 965 206 1018 q 166 875 190 911 q 90 839 142 839 q 67 847 71 839 q 65 873 63 854 q 73 923 68 892 q 78 1000 78 954 m 293 1000 q 292 1046 293 1022 q 290 1092 290 1069 q 288 1131 289 1114 q 286 1154 286 1147 q 315 1197 288 1175 q 378 1218 342 1218 q 406 1198 394 1218 q 417 1163 417 1178 q 415 1054 417 1113 q 402 947 413 996 q 369 866 392 899 q 303 833 346 833 q 280 848 283 833 q 279 886 276 863 q 288 940 282 910 q 293 1000 293 969 z "},"#":{"ha":1038,"x_min":-164,"x_max":1069,"o":"m 1021 515 q 1053 483 1044 507 q 1058 436 1061 460 q 1042 397 1056 413 q 1008 388 1028 381 q 985 400 1008 394 q 919 410 961 406 q 818 419 876 415 q 693 428 760 424 q 692 390 692 408 q 692 354 692 372 q 703 158 692 235 q 725 37 715 82 q 735 -26 735 -8 q 715 -44 736 -44 q 651 -6 678 -44 q 608 99 625 33 q 583 250 592 164 q 569 432 574 336 q 339 436 457 436 q 339 224 336 310 q 349 97 340 147 q 363 15 358 46 q 365 -28 368 -15 q 342 -42 363 -42 q 285 -4 308 -43 q 245 100 261 35 q 220 253 229 165 q 207 436 211 340 q 80 434 139 436 q -22 428 21 432 q -90 420 -65 425 q -115 408 -115 415 q -126 402 -115 399 q -145 417 -137 406 q -151 443 -153 428 q -125 472 -150 458 q 24 529 -60 507 q 203 564 107 551 q 203 754 200 660 q 31 738 111 749 q -108 707 -50 726 q -146 703 -132 700 q -162 717 -160 707 q -153 742 -164 728 q -118 771 -143 757 q 28 827 -54 806 q 204 861 111 849 q 208 983 206 926 q 211 1084 210 1040 q 213 1157 213 1128 q 214 1194 214 1186 q 220 1237 214 1222 q 261 1253 226 1251 q 294 1240 278 1253 q 325 1210 311 1228 q 347 1171 339 1192 q 356 1133 356 1150 q 355 1106 356 1128 q 353 1051 354 1085 q 351 972 353 1017 q 349 875 350 926 q 462 878 406 878 q 574 876 518 879 q 584 1074 579 993 q 589 1172 589 1154 q 594 1214 588 1199 q 636 1229 600 1229 q 669 1221 653 1229 q 699 1198 686 1213 q 721 1165 713 1183 q 729 1131 729 1147 q 728 1103 729 1125 q 726 1046 728 1081 q 720 965 724 1011 q 714 868 717 919 q 895 846 814 860 q 1028 814 976 832 q 1060 782 1051 806 q 1066 735 1069 758 q 1049 695 1063 711 q 1015 686 1036 679 q 885 718 965 704 q 706 742 804 732 q 701 656 703 699 q 697 571 700 613 q 884 548 800 563 q 1021 515 968 533 m 568 578 q 567 666 567 622 q 569 751 568 710 q 458 756 514 754 q 346 758 401 758 q 344 667 344 714 q 342 576 343 621 q 455 580 399 579 q 568 578 511 581 z "},"%":{"ha":1093,"x_min":-3,"x_max":1068,"o":"m 367 1010 q 328 1008 349 1010 q 290 1001 308 1007 q 256 983 271 994 q 232 951 240 971 q 185 928 204 947 q 156 884 167 910 q 142 828 146 858 q 138 771 138 799 q 144 708 138 740 q 167 647 150 675 q 213 601 183 619 q 288 583 242 583 q 373 607 338 583 q 431 668 408 631 q 463 752 453 706 q 474 844 474 799 q 442 972 474 935 q 367 1010 411 1010 m 339 626 q 307 648 315 626 q 298 703 299 669 q 300 776 297 736 q 303 851 303 815 q 323 880 317 861 q 333 917 329 899 q 342 948 338 935 q 360 961 347 961 q 400 936 386 961 q 417 874 414 911 q 414 794 419 838 q 397 713 408 750 q 370 651 385 676 q 339 626 356 626 m 832 482 q 756 472 796 482 q 697 422 717 463 q 651 400 669 418 q 622 356 632 382 q 607 301 611 331 q 603 243 603 271 q 609 180 603 213 q 633 119 615 147 q 679 74 650 92 q 754 56 708 56 q 840 79 804 56 q 897 140 875 103 q 930 224 919 178 q 940 315 940 269 q 908 444 940 407 q 832 482 876 482 m 804 97 q 772 119 781 97 q 763 175 764 142 q 766 248 763 208 q 769 324 769 288 q 789 352 783 333 q 799 389 794 371 q 808 420 803 407 q 825 433 813 433 q 866 408 853 433 q 883 346 879 383 q 881 265 886 308 q 863 185 875 222 q 836 122 851 147 q 804 97 821 97 m 67 79 q 178 126 119 79 q 297 251 236 174 q 421 428 357 329 q 548 630 485 526 q 674 832 611 733 q 796 1008 736 931 q 911 1133 856 1086 q 1017 1181 967 1181 q 1055 1173 1043 1181 q 1067 1156 1067 1165 q 1061 1140 1068 1147 q 1046 1132 1054 1132 q 981 1082 1022 1132 q 884 950 939 1032 q 764 763 829 868 q 630 549 699 658 q 492 335 561 440 q 358 149 422 231 q 236 17 293 67 q 136 -33 179 -33 q 28 -16 58 -33 q -3 23 -3 1 q 19 62 -3 44 q 67 79 40 79 z "},"'":{"ha":292,"x_min":63,"x_max":206,"o":"m 78 1000 q 76 1046 78 1022 q 74 1092 75 1069 q 72 1131 74 1114 q 71 1154 71 1147 q 78 1177 71 1164 q 99 1201 86 1190 q 126 1219 111 1213 q 158 1226 142 1226 q 196 1217 190 1226 q 201 1192 201 1207 q 203 1080 201 1142 q 198 965 206 1018 q 166 875 190 911 q 90 839 142 839 q 67 847 71 839 q 65 873 63 854 q 73 923 68 892 q 78 1000 78 954 z "},"(":{"ha":421,"x_min":-7,"x_max":351,"o":"m -7 463 q 6 671 -7 567 q 40 869 19 775 q 88 1044 61 964 q 141 1184 114 1125 q 194 1277 168 1243 q 238 1311 219 1311 q 322 1287 292 1311 q 351 1210 351 1263 q 336 1176 351 1200 q 298 1111 321 1153 q 248 1008 275 1069 q 198 862 221 947 q 160 666 175 776 q 144 415 144 556 q 158 225 144 306 q 190 87 172 144 q 227 -7 208 29 q 256 -65 246 -43 q 262 -94 265 -86 q 233 -101 258 -101 q 157 -53 199 -101 q 78 75 115 -4 q 17 256 42 154 q -7 463 -7 357 z "},")":{"ha":421,"x_min":6,"x_max":364,"o":"m 364 463 q 340 256 364 357 q 278 75 315 154 q 200 -53 242 -4 q 124 -101 158 -101 q 94 -94 97 -101 q 101 -65 92 -86 q 130 -7 111 -43 q 167 87 149 29 q 199 225 185 144 q 213 415 213 306 q 197 666 213 556 q 159 862 182 776 q 109 1008 136 947 q 59 1111 82 1069 q 21 1176 36 1153 q 6 1210 6 1200 q 35 1287 6 1263 q 119 1311 65 1311 q 163 1277 138 1311 q 216 1184 189 1243 q 269 1044 243 1125 q 317 869 296 964 q 351 671 338 775 q 364 463 364 567 z "},"*":{"ha":750,"x_min":72,"x_max":651,"o":"m 606 929 q 642 903 633 922 q 647 865 651 885 q 628 833 643 846 q 590 825 613 819 q 528 837 558 832 q 469 844 499 842 q 522 799 497 821 q 568 753 546 776 q 588 716 589 735 q 572 686 586 697 q 536 674 558 675 q 493 692 514 674 q 448 735 469 714 q 404 776 426 757 q 400 635 407 700 q 385 596 400 607 q 351 588 369 585 q 319 608 333 592 q 304 651 304 624 q 306 690 306 671 q 308 728 307 708 q 274 696 290 711 q 239 668 257 681 q 195 659 215 653 q 164 681 175 665 q 154 717 153 697 q 175 750 156 738 q 245 803 213 778 q 307 854 278 828 q 217 849 263 853 q 121 836 171 844 q 89 837 101 832 q 74 851 76 842 q 81 870 72 860 q 113 888 90 881 q 243 919 172 907 q 193 961 218 940 q 140 1003 168 982 q 121 1031 124 1015 q 125 1056 118 1046 q 147 1069 132 1067 q 182 1060 163 1072 q 246 1017 213 1040 q 314 968 279 993 q 312 1044 313 1006 q 308 1122 311 1082 q 317 1155 307 1143 q 340 1168 326 1167 q 365 1160 353 1169 q 379 1126 376 1150 q 390 1039 385 1086 q 399 943 394 992 q 453 1009 426 975 q 507 1083 479 1043 q 530 1105 518 1100 q 549 1106 542 1110 q 558 1088 557 1101 q 550 1053 560 1074 q 485 939 525 997 q 547 935 517 938 q 606 929 578 933 z "},"+":{"ha":840,"x_min":40,"x_max":790,"o":"m 726 646 q 776 626 761 646 q 786 584 790 607 q 761 542 782 561 q 706 524 740 524 q 588 529 644 526 q 476 533 532 532 q 472 275 483 394 q 453 226 472 240 q 410 217 433 213 q 369 241 388 221 q 350 297 350 261 q 356 418 354 360 q 360 535 358 476 q 233 533 297 535 q 100 529 169 532 q 60 540 75 528 q 42 569 44 553 q 53 600 40 585 q 94 619 65 615 q 222 633 154 626 q 361 646 290 640 q 360 772 361 708 q 356 901 358 835 q 367 943 354 928 q 395 960 379 958 q 426 950 411 963 q 446 907 442 938 q 460 784 453 849 q 471 651 467 719 q 603 653 539 654 q 726 646 668 651 z "},",":{"ha":343,"x_min":58,"x_max":265,"o":"m 254 175 q 263 146 260 172 q 262 83 265 119 q 249 6 258 47 q 224 -69 240 -36 q 168 -150 199 -119 q 106 -196 138 -181 q 79 -200 90 -203 q 63 -185 68 -197 q 62 -151 58 -174 q 82 -97 65 -129 q 103 -26 99 -64 q 109 48 108 13 q 109 112 110 83 q 114 151 108 140 q 136 171 119 163 q 174 183 153 179 q 216 185 194 186 q 254 175 238 183 z "},"-":{"ha":829,"x_min":83,"x_max":675,"o":"m 139 619 q 264 637 208 629 q 373 649 319 644 q 483 653 426 653 q 611 646 539 653 q 660 626 646 646 q 672 584 675 607 q 647 542 668 561 q 590 522 625 522 q 458 531 508 528 q 366 534 408 533 q 274 533 324 535 q 144 528 225 532 q 103 539 118 526 q 85 568 88 551 q 96 600 83 585 q 139 619 108 615 z "},".":{"ha":364,"x_min":54,"x_max":293,"o":"m 160 232 q 220 218 194 232 q 262 183 246 204 q 285 137 278 163 q 293 89 293 111 q 278 57 293 72 q 240 31 263 42 q 190 15 217 21 q 139 8 163 8 q 100 18 115 8 q 75 44 85 28 q 60 78 65 60 q 56 115 56 97 q 60 153 54 133 q 81 191 67 174 q 114 220 94 208 q 160 232 133 232 z "},"/":{"ha":860,"x_min":4,"x_max":846,"o":"m 47 15 q 105 88 69 31 q 185 231 140 146 q 280 419 229 315 q 385 631 331 522 q 493 847 439 740 q 598 1044 547 954 q 694 1198 649 1133 q 774 1289 739 1263 q 813 1313 796 1311 q 838 1307 829 1315 q 846 1282 846 1299 q 836 1250 846 1265 q 786 1177 818 1238 q 713 1026 754 1117 q 624 822 672 935 q 524 592 575 710 q 419 361 472 475 q 315 153 365 247 q 218 -5 264 60 q 135 -87 172 -69 q 45 -110 74 -118 q 10 -77 17 -101 q 16 -24 4 -53 q 47 15 28 4 z "},":":{"ha":364,"x_min":94,"x_max":267,"o":"m 169 293 q 244 271 222 293 q 267 217 267 249 q 260 190 267 204 q 241 162 253 175 q 214 140 229 149 q 182 132 199 132 q 118 158 139 132 q 96 208 97 183 q 99 236 94 221 q 113 264 104 251 q 137 285 122 276 q 169 293 151 293 m 169 685 q 214 675 196 685 q 244 650 232 665 q 261 617 256 635 q 267 582 267 599 q 256 559 267 569 q 228 540 244 549 q 192 528 211 532 q 156 524 172 524 q 110 549 122 524 q 96 600 97 575 q 99 628 94 613 q 113 656 104 643 q 137 676 122 668 q 169 685 151 685 z "},";":{"ha":343,"x_min":58,"x_max":267,"o":"m 254 175 q 263 146 260 172 q 262 83 265 119 q 249 6 258 47 q 224 -69 240 -36 q 168 -150 199 -119 q 106 -196 138 -181 q 79 -200 90 -203 q 63 -185 68 -197 q 62 -151 58 -174 q 82 -97 65 -129 q 103 -26 99 -64 q 109 48 108 13 q 109 112 110 83 q 114 151 108 140 q 136 171 119 163 q 174 183 153 179 q 216 185 194 186 q 254 175 238 183 m 163 490 q 210 480 190 490 q 242 453 229 469 q 260 416 254 436 q 267 378 267 396 q 255 354 267 365 q 225 335 243 343 q 185 322 207 326 q 146 317 164 317 q 116 324 128 317 q 97 344 104 332 q 85 370 89 356 q 81 399 81 385 q 85 428 81 413 q 101 458 90 444 q 126 481 111 472 q 163 490 142 490 z "},"<":{"ha":632,"x_min":28,"x_max":571,"o":"m 556 707 q 531 680 549 700 q 486 633 513 660 q 427 575 460 606 q 360 515 394 544 q 278 444 313 475 q 217 389 244 413 q 221 376 214 386 q 239 354 228 367 q 264 328 250 342 q 288 306 278 315 q 353 241 319 274 q 417 181 388 208 q 467 134 446 154 q 496 107 489 114 q 496 82 508 94 q 460 63 483 69 q 412 56 438 56 q 372 71 386 57 q 339 102 363 81 q 289 149 315 124 q 238 196 263 174 q 201 231 214 218 q 143 285 179 253 q 78 351 107 317 q 38 417 49 385 q 57 475 28 450 q 108 519 79 493 q 172 582 136 546 q 203 613 185 593 q 242 652 222 632 q 281 691 263 672 q 308 719 299 710 q 363 765 332 749 q 427 785 394 781 q 490 784 460 789 q 540 768 521 779 q 565 741 560 757 q 556 707 571 725 z "},">":{"ha":632,"x_min":36,"x_max":586,"o":"m 60 122 q 84 149 65 129 q 129 197 103 169 q 188 254 156 224 q 254 314 219 285 q 336 385 301 354 q 399 440 371 417 q 394 453 401 443 q 375 475 386 463 q 350 501 364 488 q 326 524 336 514 q 260 588 294 556 q 197 648 226 621 q 147 695 168 675 q 118 722 125 715 q 119 747 106 735 q 155 767 132 760 q 203 773 178 774 q 242 758 228 772 q 275 727 251 749 q 325 681 299 706 q 376 633 351 656 q 413 599 400 611 q 471 544 435 576 q 536 478 507 513 q 576 412 565 444 q 557 354 586 379 q 506 310 535 336 q 442 247 478 283 q 410 217 429 236 q 372 177 392 197 q 334 138 353 157 q 306 110 315 119 q 219 51 271 65 q 124 44 167 38 q 58 73 81 51 q 60 122 36 94 z "},"=":{"ha":829,"x_min":83,"x_max":660,"o":"m 139 619 q 264 637 208 629 q 373 649 319 644 q 483 653 426 653 q 611 646 539 653 q 637 622 632 643 q 636 578 642 601 q 617 536 631 554 q 590 522 604 518 q 458 531 508 528 q 366 534 408 533 q 274 533 324 535 q 144 528 225 532 q 103 539 118 526 q 85 568 88 551 q 96 600 83 585 q 139 619 108 615 m 139 378 q 264 392 208 388 q 373 398 319 397 q 483 396 426 399 q 611 386 539 393 q 653 367 646 386 q 650 325 660 347 q 622 285 640 303 q 590 269 604 267 q 458 279 508 275 q 366 285 408 283 q 274 288 324 288 q 144 283 225 288 q 103 295 118 282 q 85 325 88 308 q 96 358 83 342 q 139 378 108 374 z "},"?":{"ha":708,"x_min":19,"x_max":640,"o":"m 451 939 q 459 1034 456 981 q 460 1137 463 1088 q 444 1221 457 1186 q 401 1258 431 1256 q 360 1244 382 1260 q 315 1203 338 1229 q 272 1144 293 1176 q 233 1079 250 1111 q 206 1019 217 1047 q 194 976 196 992 q 193 933 192 953 q 192 900 194 914 q 181 879 190 886 q 146 874 171 872 q 97 888 121 876 q 56 915 74 899 q 29 951 39 932 q 21 986 19 969 q 28 1031 22 997 q 47 1108 33 1065 q 85 1197 61 1150 q 144 1280 108 1243 q 228 1338 179 1317 q 344 1354 278 1360 q 503 1307 443 1346 q 594 1209 563 1268 q 633 1076 625 1150 q 633 924 640 1001 q 605 844 628 874 q 550 792 582 814 q 481 753 518 771 q 411 708 443 735 q 355 643 379 682 q 325 540 331 604 q 326 413 318 465 q 338 330 333 361 q 338 286 343 299 q 303 276 333 274 q 238 318 263 281 q 200 405 213 356 q 184 504 188 454 q 183 582 181 554 q 208 657 188 626 q 256 710 228 688 q 317 753 285 733 q 377 798 349 774 q 426 856 406 822 q 451 939 447 889 m 403 35 q 396 76 404 53 q 372 119 388 99 q 333 153 356 139 q 288 169 311 168 q 244 172 264 171 q 207 170 224 174 q 180 155 190 167 q 167 121 169 143 q 182 84 165 104 q 224 45 199 64 q 279 12 249 26 q 336 -6 310 -3 q 381 -1 363 -10 q 403 35 400 7 z "},"@":{"ha":1076,"x_min":108,"x_max":985,"o":"m 604 947 q 809 900 733 947 q 924 778 885 853 q 974 613 963 704 q 985 435 985 522 q 974 297 985 368 q 942 167 964 226 q 886 69 921 108 q 803 28 851 31 q 797 26 800 26 q 774 32 779 26 q 719 78 740 43 q 684 151 697 114 q 664 219 671 189 q 654 249 657 249 q 642 222 651 249 q 615 162 632 194 q 572 102 597 129 q 513 75 546 75 q 448 87 478 75 q 396 125 418 99 q 361 194 374 151 q 349 296 349 236 q 364 420 349 351 q 410 549 379 489 q 489 649 442 608 q 600 689 536 689 q 681 686 644 689 q 744 668 718 683 q 785 619 771 653 q 800 522 800 585 q 794 512 800 517 q 780 505 788 507 q 766 506 772 503 q 760 518 760 508 q 758 547 760 528 q 750 586 756 567 q 735 621 744 606 q 710 636 725 636 q 630 601 668 636 q 563 509 592 567 q 516 377 533 451 q 499 224 499 303 q 500 188 499 207 q 506 151 501 168 q 517 124 510 135 q 538 113 525 113 q 558 131 546 113 q 581 176 569 149 q 604 239 593 204 q 624 307 615 274 q 639 368 633 340 q 644 411 644 396 q 645 431 644 419 q 652 451 646 442 q 672 468 658 461 q 713 475 686 475 q 787 456 764 475 q 810 419 810 438 l 810 400 q 812 321 811 371 q 815 222 813 271 q 824 138 817 174 q 844 103 831 103 q 875 121 860 103 q 903 181 890 139 q 923 292 915 224 q 931 461 931 361 q 905 659 931 578 q 838 792 879 740 q 743 866 796 843 q 636 889 690 889 q 569 872 608 889 q 489 823 531 856 q 407 743 447 790 q 334 635 367 696 q 282 502 301 575 q 263 344 263 429 q 282 183 263 253 q 333 61 301 113 q 403 -25 364 10 q 479 -81 442 -60 q 549 -110 517 -101 q 600 -119 581 -119 q 663 -127 651 -119 q 667 -144 675 -135 q 639 -162 658 -154 q 607 -169 619 -169 q 404 -128 496 -169 q 247 -15 313 -86 q 145 149 182 56 q 108 344 108 242 q 144 548 108 442 q 244 743 179 654 q 401 890 310 832 q 604 947 492 947 z "},"[":{"ha":621,"x_min":122,"x_max":601,"o":"m 501 -93 q 525 -99 511 -93 q 550 -116 539 -106 q 569 -140 561 -126 q 576 -167 576 -153 q 565 -199 575 -194 q 539 -204 556 -204 q 456 -206 501 -204 q 367 -206 411 -207 q 284 -200 324 -206 q 217 -182 244 -194 q 206 -176 211 -179 q 196 -168 201 -172 q 175 -144 185 -158 q 140 -37 151 -108 q 126 125 129 33 q 126 322 122 217 q 138 533 131 428 q 153 739 144 639 q 171 919 163 839 q 185 1051 179 999 q 190 1117 190 1104 q 194 1153 188 1138 l 194 1160 q 232 1225 194 1204 q 326 1252 269 1246 q 447 1256 382 1258 q 564 1253 511 1253 q 592 1248 582 1253 q 601 1215 601 1243 q 594 1189 601 1201 q 575 1166 586 1176 q 551 1149 564 1156 q 526 1142 538 1142 q 501 1143 518 1142 q 460 1145 483 1144 q 412 1147 438 1146 q 364 1149 386 1149 q 338 1149 350 1149 q 315 1147 326 1149 q 345 1102 335 1128 q 357 1056 356 1076 q 348 990 357 1047 q 325 845 339 932 q 296 652 311 758 q 267 440 281 546 q 246 240 254 335 q 239 81 238 144 q 247 -21 240 22 q 261 -96 254 -64 q 296 -98 276 -97 q 339 -99 315 -99 q 386 -97 361 -99 q 434 -95 411 -96 q 475 -94 457 -94 q 501 -93 493 -93 z "},"]":{"ha":621,"x_min":-10,"x_max":483,"o":"m 65 -93 q 92 -94 74 -93 q 133 -95 110 -94 q 181 -97 156 -96 q 228 -99 206 -99 q 271 -98 251 -99 q 306 -96 290 -97 q 319 -21 313 -64 q 328 81 326 22 q 328 240 329 144 q 326 440 328 335 q 322 652 325 546 q 317 845 319 758 q 314 990 315 932 q 313 1056 313 1047 q 311 1097 314 1076 q 315 1147 308 1118 q 310 1148 310 1147 q 311 1149 310 1149 q 313 1149 313 1149 q 306 1149 313 1149 q 257 1147 282 1149 q 209 1145 232 1146 q 169 1143 186 1144 q 143 1142 151 1142 q 119 1149 132 1142 q 94 1166 106 1156 q 75 1189 82 1176 q 68 1215 68 1201 q 78 1248 68 1243 q 106 1253 88 1253 q 223 1256 158 1253 q 344 1252 288 1258 q 438 1225 400 1246 q 475 1160 475 1204 l 475 1153 q 479 1117 482 1138 q 480 1051 479 1104 q 482 919 481 999 q 483 739 483 839 q 481 533 483 639 q 472 322 478 428 q 456 125 467 217 q 430 -37 446 33 q 392 -144 414 -108 q 371 -168 382 -158 q 360 -176 365 -172 q 350 -182 356 -179 q 283 -200 322 -194 q 199 -206 243 -206 q 110 -206 156 -207 q 28 -204 65 -204 q 1 -199 11 -204 q -10 -167 -8 -194 q -2 -140 -10 -153 q 17 -116 6 -126 q 41 -99 28 -106 q 65 -93 54 -93 z "},"\\":{"ha":860,"x_min":-12,"x_max":829,"o":"m 786 15 q 817 -24 806 4 q 823 -77 829 -53 q 788 -110 817 -101 q 699 -87 760 -118 q 615 -5 661 -69 q 519 153 569 60 q 415 361 468 247 q 310 592 361 475 q 210 822 258 710 q 120 1026 161 935 q 47 1177 79 1117 q -3 1250 15 1238 q -12 1282 -12 1265 q -4 1307 -12 1299 q 20 1313 4 1315 q 60 1289 36 1311 q 140 1198 94 1263 q 235 1044 185 1133 q 340 847 286 954 q 449 631 394 740 q 553 419 503 522 q 649 231 604 315 q 728 88 693 146 q 786 15 764 31 z "},"":{"ha":582,"x_min":111,"x_max":447,"o":"m 446 996 q 434 975 447 990 q 397 941 421 960 q 344 903 374 922 q 285 875 314 885 q 203 859 240 860 q 138 867 165 858 q 117 895 111 875 q 181 935 124 915 q 235 963 210 944 q 282 1001 261 982 q 319 1037 303 1021 q 344 1056 335 1053 q 369 1056 354 1060 q 400 1042 385 1051 q 428 1021 415 1033 q 446 996 440 1008 z "},"`":{"ha":582,"x_min":106,"x_max":443,"o":"m 108 996 q 126 1021 114 1008 q 154 1042 139 1033 q 184 1056 169 1051 q 210 1056 199 1060 q 235 1037 219 1053 q 272 1001 251 1021 q 319 963 293 982 q 374 935 344 944 q 437 895 431 915 q 417 867 443 875 q 351 859 389 858 q 269 875 314 860 q 210 903 240 885 q 157 941 181 922 q 119 975 133 960 q 108 996 106 990 z "},"$":{"ha":807,"x_min":10,"x_max":729,"o":"m 557 960 q 498 954 529 960 q 435 939 467 949 q 426 813 431 881 q 419 675 422 746 q 525 644 474 663 q 617 598 576 625 q 683 535 658 571 q 707 450 707 499 q 685 333 707 385 q 625 242 663 282 q 538 176 588 203 q 432 132 488 149 q 444 69 438 94 q 451 27 450 43 q 449 5 453 11 q 433 -1 446 -1 q 376 29 400 -1 q 336 113 353 60 q 292 108 314 110 q 247 107 269 107 q 158 119 201 107 q 82 157 115 132 q 29 219 49 182 q 10 306 10 256 q 21 344 10 332 q 45 354 32 356 q 69 340 58 353 q 81 307 81 328 q 99 275 81 288 q 141 256 117 263 q 190 246 165 249 q 226 243 214 243 q 268 243 247 243 q 310 246 289 243 q 294 428 299 329 q 290 626 290 526 q 195 653 242 640 q 113 681 149 667 q 53 715 76 696 q 31 758 31 733 q 53 840 31 799 q 113 922 75 882 q 200 996 150 961 q 306 1058 250 1031 q 310 1132 308 1103 q 311 1171 311 1161 q 316 1211 310 1197 q 356 1226 322 1225 q 388 1218 372 1226 q 417 1196 404 1210 q 439 1165 431 1182 q 447 1132 447 1149 q 447 1125 447 1129 q 446 1114 447 1121 q 582 1135 517 1135 q 670 1106 638 1135 q 716 1041 703 1076 q 724 976 729 1006 q 697 947 718 947 q 677 949 688 947 q 651 953 667 951 q 613 958 635 956 q 557 960 590 960 m 519 442 q 490 522 519 489 q 415 578 460 554 q 411 475 413 525 q 411 382 410 425 q 415 269 411 319 q 490 329 460 289 q 519 442 519 369 m 292 701 q 293 794 292 749 q 296 881 294 839 q 231 843 261 863 q 179 805 201 824 q 144 770 157 786 q 132 744 132 754 q 178 723 132 732 q 292 701 224 714 z "},"^":{"ha":531,"x_min":10,"x_max":506,"o":"m 200 1019 q 229 1044 215 1033 q 258 1056 243 1054 q 290 1049 272 1057 q 328 1019 307 1040 q 382 971 351 996 q 449 935 413 946 q 506 901 506 915 q 479 878 506 886 q 427 876 465 874 q 344 894 389 879 q 309 909 326 901 q 275 925 292 917 q 231 897 254 910 q 183 875 207 883 q 101 859 139 860 q 36 867 64 858 q 16 895 10 875 q 79 935 22 915 q 146 971 115 946 q 200 1019 176 996 z "},"":{"ha":588,"x_min":35,"x_max":531,"o":"m 225 1019 q 254 1044 240 1033 q 283 1056 268 1054 q 315 1049 297 1057 q 353 1019 332 1040 q 407 971 376 996 q 474 935 438 946 q 531 901 531 915 q 504 878 531 886 q 452 876 490 874 q 369 894 414 879 q 334 909 351 901 q 300 925 317 917 q 256 897 279 910 q 208 875 232 883 q 126 859 164 860 q 61 867 89 858 q 41 895 35 875 q 104 935 47 915 q 171 971 140 946 q 225 1019 201 996 z "},"":{"ha":538,"x_min":29,"x_max":489,"o":"m 192 949 q 169 874 192 896 q 115 851 147 851 q 88 858 103 851 q 59 877 72 865 q 38 905 46 889 q 29 938 29 921 q 55 1000 29 979 q 106 1022 81 1021 q 135 1019 119 1024 q 163 1006 150 1015 q 183 981 175 996 q 192 949 192 967 m 489 949 q 479 903 489 922 q 454 874 469 885 q 420 857 439 863 q 385 851 401 851 q 362 863 372 851 q 344 890 351 874 q 331 926 336 907 q 326 963 326 946 q 352 1008 326 996 q 403 1022 378 1021 q 431 1019 415 1024 q 459 1006 446 1015 q 481 981 472 996 q 489 949 489 967 z "},"":{"ha":726,"x_min":90,"x_max":564,"o":"m 471 860 q 384 854 424 860 q 311 842 344 849 q 249 831 278 836 q 194 826 221 826 q 147 844 169 826 q 112 885 125 863 q 94 925 99 907 q 100 943 90 943 q 115 940 110 943 q 128 934 121 938 q 150 928 136 931 q 189 925 164 925 q 240 930 214 925 q 294 940 267 935 q 354 949 322 944 q 424 954 386 954 q 497 933 468 954 q 542 888 526 913 q 561 843 558 864 q 556 822 564 822 q 542 828 547 822 q 531 841 538 833 q 510 854 524 849 q 471 860 497 860 z "},"":{"ha":604,"x_min":190,"x_max":471,"o":"m 382 1163 q 445 1138 419 1163 q 471 1050 471 1113 q 463 988 471 1019 q 435 931 454 957 q 387 890 417 906 q 315 874 357 874 q 253 885 278 874 q 215 916 229 897 q 196 957 201 935 q 190 1000 190 979 q 194 1040 190 1019 q 206 1077 197 1060 q 231 1107 215 1094 q 269 1122 246 1119 q 318 1156 285 1150 q 382 1163 351 1163 m 358 903 q 384 919 371 903 q 407 961 397 936 q 422 1016 417 986 q 424 1071 426 1046 q 410 1113 421 1096 q 376 1129 399 1129 q 361 1120 365 1129 q 353 1099 357 1111 q 345 1074 350 1086 q 328 1056 340 1061 q 326 1004 328 1031 q 324 955 324 978 q 332 917 325 932 q 358 903 339 903 z "},"":{"ha":344,"x_min":3,"x_max":393,"o":"m 344 408 q 352 438 344 424 q 369 463 360 453 q 385 475 378 472 q 393 469 393 478 q 375 288 393 371 q 330 143 357 204 q 270 47 303 82 q 208 13 238 13 l 206 13 q 97 55 138 13 q 36 158 57 97 q 9 285 15 219 q 3 400 3 351 q 5 503 3 460 q 10 575 7 546 q 16 623 14 604 q 18 654 18 642 q 45 680 18 676 q 106 672 72 683 q 166 640 139 661 q 193 592 193 618 q 192 549 193 572 q 189 499 190 525 q 186 447 188 472 q 185 399 185 421 q 202 215 185 286 q 238 104 219 144 q 265 134 251 111 q 291 188 279 157 q 313 254 303 219 q 329 320 322 289 q 340 375 336 351 q 344 408 344 399 z "},"":{"ha":764,"x_min":-449,"x_max":764,"o":"m 636 313 q 667 147 649 215 q 703 32 685 78 q 736 -40 721 -14 q 758 -81 751 -67 q 758 -99 764 -94 q 731 -107 753 -104 q 653 -85 697 -111 q 565 -1 608 -58 q 484 146 521 57 q 432 356 447 235 q 417 532 421 438 q 411 725 413 626 q 348 687 386 710 q 261 635 310 664 q 185 439 225 539 q 101 247 144 339 q 13 74 57 154 q -76 -65 -32 -7 q -164 -156 -121 -124 q -246 -183 -207 -187 q -354 -156 -312 -175 q -417 -108 -396 -136 q -444 -43 -439 -79 q -444 33 -449 -7 q -385 181 -436 106 q -259 328 -335 256 q -92 469 -183 401 q 90 594 0 536 q 152 749 122 672 q 208 895 182 825 q 254 1026 233 965 q 290 1133 275 1086 q 111 1056 200 1097 q -50 970 22 1015 q -170 875 -122 925 q -224 774 -218 825 q -241 754 -226 754 q -272 767 -256 754 q -299 806 -287 781 q -307 861 -311 831 q -253 980 -300 926 q -139 1077 -207 1033 q 10 1156 -71 1121 q 169 1221 92 1192 q 312 1273 247 1250 q 411 1317 376 1296 q 442 1377 411 1361 q 512 1386 474 1393 q 583 1352 550 1379 q 622 1286 617 1325 q 626 1193 625 1258 q 625 1041 626 1128 q 622 853 624 954 q 622 653 621 753 q 625 465 622 554 q 636 313 628 376 m -347 -97 q -259 -53 -307 -101 q -160 77 -211 -6 q -55 269 -108 160 q 50 496 -1 378 q -111 378 -32 440 q -254 256 -190 317 q -360 135 -318 194 q -407 26 -401 76 q -406 -32 -411 -7 q -388 -75 -401 -56 q -347 -97 -375 -94 m 411 779 q 410 934 410 858 q 413 1076 411 1010 q 362 919 393 1013 q 290 714 331 825 q 358 751 328 735 q 411 779 388 768 m 258 1622 q 276 1647 264 1635 q 304 1669 289 1660 q 334 1682 319 1678 q 360 1682 349 1686 q 385 1663 369 1679 q 422 1628 401 1647 q 469 1590 443 1608 q 524 1561 494 1571 q 587 1522 581 1542 q 567 1493 593 1501 q 501 1485 539 1485 q 419 1501 464 1486 q 360 1530 390 1511 q 307 1567 331 1549 q 269 1601 283 1586 q 258 1622 256 1617 z "},"":{"ha":764,"x_min":-449,"x_max":764,"o":"m 636 313 q 667 147 649 215 q 703 32 685 78 q 736 -40 721 -14 q 758 -81 751 -67 q 758 -99 764 -94 q 731 -107 753 -104 q 653 -85 697 -111 q 565 -1 608 -58 q 484 146 521 57 q 432 356 447 235 q 417 532 421 438 q 411 725 413 626 q 348 687 386 710 q 261 635 310 664 q 185 439 225 539 q 101 247 144 339 q 13 74 57 154 q -76 -65 -32 -7 q -164 -156 -121 -124 q -246 -183 -207 -187 q -354 -156 -312 -175 q -417 -108 -396 -136 q -444 -43 -439 -79 q -444 33 -449 -7 q -385 181 -436 106 q -259 328 -335 256 q -92 469 -183 401 q 90 594 0 536 q 152 749 122 672 q 208 895 182 825 q 254 1026 233 965 q 290 1133 275 1086 q 111 1056 200 1097 q -50 970 22 1015 q -170 875 -122 925 q -224 774 -218 825 q -241 754 -226 754 q -272 767 -256 754 q -299 806 -287 781 q -307 861 -311 831 q -253 980 -300 926 q -139 1077 -207 1033 q 10 1156 -71 1121 q 169 1221 92 1192 q 312 1273 247 1250 q 411 1317 376 1296 q 442 1377 411 1361 q 512 1386 474 1393 q 583 1352 550 1379 q 622 1286 617 1325 q 626 1193 625 1258 q 625 1041 626 1128 q 622 853 624 954 q 622 653 621 753 q 625 465 622 554 q 636 313 628 376 m -347 -97 q -259 -53 -307 -101 q -160 77 -211 -6 q -55 269 -108 160 q 50 496 -1 378 q -111 378 -32 440 q -254 256 -190 317 q -360 135 -318 194 q -407 26 -401 76 q -406 -32 -411 -7 q -388 -75 -401 -56 q -347 -97 -375 -94 m 411 779 q 410 934 410 858 q 413 1076 411 1010 q 362 919 393 1013 q 290 714 331 825 q 358 751 328 735 q 411 779 388 768 m 572 1633 q 560 1613 574 1628 q 524 1578 547 1597 q 470 1541 500 1560 q 411 1513 440 1522 q 329 1497 367 1497 q 264 1504 292 1496 q 244 1533 238 1513 q 307 1572 250 1553 q 362 1601 336 1582 q 408 1639 388 1619 q 445 1674 429 1658 q 471 1693 461 1690 q 496 1693 481 1697 q 526 1680 511 1689 q 554 1658 542 1671 q 572 1633 567 1646 z "},"":{"ha":764,"x_min":-449,"x_max":764,"o":"m 636 313 q 667 147 649 215 q 703 32 685 78 q 736 -40 721 -14 q 758 -81 751 -67 q 758 -99 764 -94 q 731 -107 753 -104 q 653 -85 697 -111 q 565 -1 608 -58 q 484 146 521 57 q 432 356 447 235 q 417 532 421 438 q 411 725 413 626 q 348 687 386 710 q 261 635 310 664 q 185 439 225 539 q 101 247 144 339 q 13 74 57 154 q -76 -65 -32 -7 q -164 -156 -121 -124 q -246 -183 -207 -187 q -354 -156 -312 -175 q -417 -108 -396 -136 q -444 -43 -439 -79 q -444 33 -449 -7 q -385 181 -436 106 q -259 328 -335 256 q -92 469 -183 401 q 90 594 0 536 q 152 749 122 672 q 208 895 182 825 q 254 1026 233 965 q 290 1133 275 1086 q 111 1056 200 1097 q -50 970 22 1015 q -170 875 -122 925 q -224 774 -218 825 q -241 754 -226 754 q -272 767 -256 754 q -299 806 -287 781 q -307 861 -311 831 q -253 980 -300 926 q -139 1077 -207 1033 q 10 1156 -71 1121 q 169 1221 92 1192 q 312 1273 247 1250 q 411 1317 376 1296 q 442 1377 411 1361 q 512 1386 474 1393 q 583 1352 550 1379 q 622 1286 617 1325 q 626 1193 625 1258 q 625 1041 626 1128 q 622 853 624 954 q 622 653 621 753 q 625 465 622 554 q 636 313 628 376 m -347 -97 q -259 -53 -307 -101 q -160 77 -211 -6 q -55 269 -108 160 q 50 496 -1 378 q -111 378 -32 440 q -254 256 -190 317 q -360 135 -318 194 q -407 26 -401 76 q -406 -32 -411 -7 q -388 -75 -401 -56 q -347 -97 -375 -94 m 411 779 q 410 934 410 858 q 413 1076 411 1010 q 362 919 393 1013 q 290 714 331 825 q 358 751 328 735 q 411 779 388 768 m 411 1639 q 440 1663 426 1653 q 469 1675 454 1674 q 501 1668 483 1676 q 539 1639 518 1660 q 593 1590 563 1615 q 660 1554 624 1565 q 717 1520 717 1535 q 690 1497 717 1506 q 638 1496 676 1493 q 556 1514 600 1499 q 520 1528 538 1521 q 486 1544 503 1536 q 442 1516 465 1529 q 394 1494 418 1503 q 313 1478 350 1479 q 247 1486 275 1478 q 227 1515 221 1494 q 290 1554 233 1535 q 357 1590 326 1565 q 411 1639 388 1615 z "},"":{"ha":764,"x_min":-449,"x_max":764,"o":"m 636 313 q 667 147 649 215 q 703 32 685 78 q 736 -40 721 -14 q 758 -81 751 -67 q 758 -99 764 -94 q 731 -107 753 -104 q 653 -85 697 -111 q 565 -1 608 -58 q 484 146 521 57 q 432 356 447 235 q 417 532 421 438 q 411 725 413 626 q 348 687 386 710 q 261 635 310 664 q 185 439 225 539 q 101 247 144 339 q 13 74 57 154 q -76 -65 -32 -7 q -164 -156 -121 -124 q -246 -183 -207 -187 q -354 -156 -312 -175 q -417 -108 -396 -136 q -444 -43 -439 -79 q -444 33 -449 -7 q -385 181 -436 106 q -259 328 -335 256 q -92 469 -183 401 q 90 594 0 536 q 152 749 122 672 q 208 895 182 825 q 254 1026 233 965 q 290 1133 275 1086 q 111 1056 200 1097 q -50 970 22 1015 q -170 875 -122 925 q -224 774 -218 825 q -241 754 -226 754 q -272 767 -256 754 q -299 806 -287 781 q -307 861 -311 831 q -253 980 -300 926 q -139 1077 -207 1033 q 10 1156 -71 1121 q 169 1221 92 1192 q 312 1273 247 1250 q 411 1317 376 1296 q 442 1377 411 1361 q 512 1386 474 1393 q 583 1352 550 1379 q 622 1286 617 1325 q 626 1193 625 1258 q 625 1041 626 1128 q 622 853 624 954 q 622 653 621 753 q 625 465 622 554 q 636 313 628 376 m -347 -97 q -259 -53 -307 -101 q -160 77 -211 -6 q -55 269 -108 160 q 50 496 -1 378 q -111 378 -32 440 q -254 256 -190 317 q -360 135 -318 194 q -407 26 -401 76 q -406 -32 -411 -7 q -388 -75 -401 -56 q -347 -97 -375 -94 m 411 779 q 410 934 410 858 q 413 1076 411 1010 q 362 919 393 1013 q 290 714 331 825 q 358 751 328 735 q 411 779 388 768 m 574 1553 q 487 1547 526 1553 q 414 1535 447 1542 q 352 1524 381 1529 q 297 1519 324 1519 q 250 1538 272 1519 q 215 1578 228 1556 q 197 1618 201 1600 q 203 1636 193 1636 q 218 1633 213 1636 q 231 1627 224 1631 q 253 1621 239 1624 q 292 1618 267 1618 q 343 1623 317 1618 q 397 1633 369 1628 q 457 1642 425 1638 q 526 1647 489 1647 q 600 1626 571 1647 q 645 1581 629 1606 q 664 1536 661 1557 q 658 1515 667 1515 q 645 1521 650 1515 q 633 1534 640 1526 q 613 1547 626 1542 q 574 1553 600 1553 z "},"":{"ha":764,"x_min":-449,"x_max":764,"o":"m 636 313 q 667 147 649 215 q 703 32 685 78 q 736 -40 721 -14 q 758 -81 751 -67 q 758 -99 764 -94 q 731 -107 753 -104 q 653 -85 697 -111 q 565 -1 608 -58 q 484 146 521 57 q 432 356 447 235 q 417 532 421 438 q 411 725 413 626 q 348 687 386 710 q 261 635 310 664 q 185 439 225 539 q 101 247 144 339 q 13 74 57 154 q -76 -65 -32 -7 q -164 -156 -121 -124 q -246 -183 -207 -187 q -354 -156 -312 -175 q -417 -108 -396 -136 q -444 -43 -439 -79 q -444 33 -449 -7 q -385 181 -436 106 q -259 328 -335 256 q -92 469 -183 401 q 90 594 0 536 q 152 749 122 672 q 208 895 182 825 q 254 1026 233 965 q 290 1133 275 1086 q 111 1056 200 1097 q -50 970 22 1015 q -170 875 -122 925 q -224 774 -218 825 q -241 754 -226 754 q -272 767 -256 754 q -299 806 -287 781 q -307 861 -311 831 q -253 980 -300 926 q -139 1077 -207 1033 q 10 1156 -71 1121 q 169 1221 92 1192 q 312 1273 247 1250 q 411 1317 376 1296 q 442 1377 411 1361 q 512 1386 474 1393 q 583 1352 550 1379 q 622 1286 617 1325 q 626 1193 625 1258 q 625 1041 626 1128 q 622 853 624 954 q 622 653 621 753 q 625 465 622 554 q 636 313 628 376 m -347 -97 q -259 -53 -307 -101 q -160 77 -211 -6 q -55 269 -108 160 q 50 496 -1 378 q -111 378 -32 440 q -254 256 -190 317 q -360 135 -318 194 q -407 26 -401 76 q -406 -32 -411 -7 q -388 -75 -401 -56 q -347 -97 -375 -94 m 411 779 q 410 934 410 858 q 413 1076 411 1010 q 362 919 393 1013 q 290 714 331 825 q 358 751 328 735 q 411 779 388 768 m 385 1572 q 363 1497 385 1519 q 308 1475 340 1475 q 281 1482 296 1475 q 252 1501 265 1489 q 231 1528 239 1513 q 222 1561 222 1544 q 248 1624 222 1603 q 299 1646 274 1644 q 328 1643 313 1647 q 356 1629 343 1639 q 376 1605 368 1619 q 385 1572 385 1590 m 682 1572 q 672 1527 682 1546 q 647 1497 663 1508 q 613 1481 632 1486 q 578 1475 594 1475 q 555 1486 565 1475 q 537 1514 544 1497 q 524 1550 529 1531 q 519 1586 519 1569 q 545 1632 519 1619 q 596 1646 571 1644 q 624 1643 608 1647 q 652 1629 639 1639 q 674 1605 665 1619 q 682 1572 682 1590 z "},"":{"ha":764,"x_min":-449,"x_max":764,"o":"m 636 313 q 667 147 649 215 q 703 32 685 78 q 736 -40 721 -14 q 758 -81 751 -67 q 758 -99 764 -94 q 731 -107 753 -104 q 653 -85 697 -111 q 565 -1 608 -58 q 484 146 521 57 q 432 356 447 235 q 417 532 421 438 q 411 725 413 626 q 348 687 386 710 q 261 635 310 664 q 185 439 225 539 q 101 247 144 339 q 13 74 57 154 q -76 -65 -32 -7 q -164 -156 -121 -124 q -246 -183 -207 -187 q -354 -156 -312 -175 q -417 -108 -396 -136 q -444 -43 -439 -79 q -444 33 -449 -7 q -385 181 -436 106 q -259 328 -335 256 q -92 469 -183 401 q 90 594 0 536 q 152 749 122 672 q 208 895 182 825 q 254 1026 233 965 q 290 1133 275 1086 q 111 1056 200 1097 q -50 970 22 1015 q -170 875 -122 925 q -224 774 -218 825 q -241 754 -226 754 q -272 767 -256 754 q -299 806 -287 781 q -307 861 -311 831 q -253 980 -300 926 q -139 1077 -207 1033 q 10 1156 -71 1121 q 169 1221 92 1192 q 312 1273 247 1250 q 411 1317 376 1296 q 442 1377 411 1361 q 512 1386 474 1393 q 583 1352 550 1379 q 622 1286 617 1325 q 626 1193 625 1258 q 625 1041 626 1128 q 622 853 624 954 q 622 653 621 753 q 625 465 622 554 q 636 313 628 376 m -347 -97 q -259 -53 -307 -101 q -160 77 -211 -6 q -55 269 -108 160 q 50 496 -1 378 q -111 378 -32 440 q -254 256 -190 317 q -360 135 -318 194 q -407 26 -401 76 q -406 -32 -411 -7 q -388 -75 -401 -56 q -347 -97 -375 -94 m 411 779 q 410 934 410 858 q 413 1076 411 1010 q 362 919 393 1013 q 290 714 331 825 q 358 751 328 735 q 411 779 388 768 m 508 1779 q 572 1754 546 1779 q 597 1667 597 1729 q 589 1605 597 1636 q 562 1548 581 1574 q 513 1506 543 1522 q 442 1490 483 1490 q 380 1502 404 1490 q 342 1533 356 1514 q 322 1574 328 1551 q 317 1617 317 1596 q 320 1656 317 1636 q 333 1694 324 1676 q 357 1724 342 1711 q 396 1739 372 1736 q 444 1773 411 1767 q 508 1779 478 1779 m 485 1519 q 510 1536 497 1519 q 533 1578 524 1553 q 548 1633 543 1603 q 550 1688 553 1663 q 536 1729 547 1713 q 503 1746 525 1746 q 488 1737 492 1746 q 480 1715 483 1728 q 472 1690 476 1703 q 454 1672 467 1678 q 452 1621 454 1647 q 451 1572 450 1594 q 458 1534 451 1549 q 485 1519 465 1519 z "},"":{"ha":926,"x_min":-25,"x_max":879,"o":"m 879 467 q 862 415 879 449 q 824 340 844 382 q 785 249 803 297 q 768 151 768 200 q 785 69 768 103 q 815 16 801 36 q 831 -12 829 -4 q 801 -21 832 -21 q 703 24 754 -21 q 629 161 653 69 q 539 76 590 121 q 433 -8 488 31 q 328 -71 379 -46 q 239 -96 276 -96 q 156 -77 189 -96 q 111 -39 122 -58 q 67 -14 90 -31 q 23 26 43 3 q -11 80 3 50 q -25 144 -25 110 q -10 255 -25 199 q 32 369 6 311 q 94 482 58 426 q 171 589 129 538 q 131 601 154 592 q 84 635 107 611 q 45 703 61 660 q 29 817 29 747 q 50 928 29 869 q 107 1046 71 988 q 190 1156 143 1104 q 287 1249 236 1208 q 390 1313 338 1289 q 488 1336 442 1336 q 542 1324 515 1336 q 590 1294 569 1313 q 610 1357 596 1319 q 642 1429 625 1394 q 674 1489 658 1464 q 700 1514 690 1514 q 729 1503 713 1514 q 761 1476 746 1492 q 787 1441 776 1460 q 797 1406 797 1422 q 781 1359 797 1390 q 744 1292 764 1328 q 708 1219 725 1256 q 692 1156 692 1182 q 693 1131 692 1139 q 678 1122 694 1122 q 660 1126 671 1122 q 638 1140 650 1131 q 615 1164 626 1149 q 596 1201 603 1179 q 582 1197 589 1199 q 565 1196 575 1196 q 515 1175 551 1196 q 431 1118 478 1154 q 334 1035 385 1082 q 241 934 283 988 q 172 825 199 881 q 144 717 144 769 q 151 665 144 690 q 196 670 171 661 q 243 692 221 679 q 294 726 268 707 q 379 800 338 767 q 459 858 421 833 q 530 895 497 882 q 588 908 563 908 q 628 896 607 908 q 667 865 650 883 q 697 826 685 847 q 708 788 708 806 q 665 742 708 776 q 554 657 621 708 q 411 539 488 606 q 268 397 335 472 q 158 238 201 321 q 114 72 114 156 q 121 31 114 49 q 136 0 128 14 q 141 1 139 0 q 146 1 143 1 q 231 28 183 1 q 328 95 278 54 q 428 184 378 136 q 519 276 478 232 q 592 352 561 319 q 636 394 624 385 q 659 464 646 431 q 685 522 672 497 q 708 563 697 547 q 726 578 719 578 q 778 567 751 578 q 828 539 806 556 q 865 503 850 522 q 879 467 879 483 m 240 1610 q 258 1635 246 1622 q 286 1656 271 1647 q 316 1669 301 1665 q 342 1669 331 1674 q 367 1651 351 1667 q 404 1615 383 1635 q 451 1577 425 1596 q 506 1549 476 1558 q 569 1509 563 1529 q 549 1481 575 1489 q 483 1473 521 1472 q 401 1489 446 1474 q 342 1517 372 1499 q 289 1555 313 1536 q 251 1589 265 1574 q 240 1610 238 1604 z "},"":{"ha":926,"x_min":-25,"x_max":879,"o":"m 879 467 q 862 415 879 449 q 824 340 844 382 q 785 249 803 297 q 768 151 768 200 q 785 69 768 103 q 815 16 801 36 q 831 -12 829 -4 q 801 -21 832 -21 q 703 24 754 -21 q 629 161 653 69 q 539 76 590 121 q 433 -8 488 31 q 328 -71 379 -46 q 239 -96 276 -96 q 156 -77 189 -96 q 111 -39 122 -58 q 67 -14 90 -31 q 23 26 43 3 q -11 80 3 50 q -25 144 -25 110 q -10 255 -25 199 q 32 369 6 311 q 94 482 58 426 q 171 589 129 538 q 131 601 154 592 q 84 635 107 611 q 45 703 61 660 q 29 817 29 747 q 50 928 29 869 q 107 1046 71 988 q 190 1156 143 1104 q 287 1249 236 1208 q 390 1313 338 1289 q 488 1336 442 1336 q 542 1324 515 1336 q 590 1294 569 1313 q 610 1357 596 1319 q 642 1429 625 1394 q 674 1489 658 1464 q 700 1514 690 1514 q 729 1503 713 1514 q 761 1476 746 1492 q 787 1441 776 1460 q 797 1406 797 1422 q 781 1359 797 1390 q 744 1292 764 1328 q 708 1219 725 1256 q 692 1156 692 1182 q 693 1131 692 1139 q 678 1122 694 1122 q 660 1126 671 1122 q 638 1140 650 1131 q 615 1164 626 1149 q 596 1201 603 1179 q 582 1197 589 1199 q 565 1196 575 1196 q 515 1175 551 1196 q 431 1118 478 1154 q 334 1035 385 1082 q 241 934 283 988 q 172 825 199 881 q 144 717 144 769 q 151 665 144 690 q 196 670 171 661 q 243 692 221 679 q 294 726 268 707 q 379 800 338 767 q 459 858 421 833 q 530 895 497 882 q 588 908 563 908 q 628 896 607 908 q 667 865 650 883 q 697 826 685 847 q 708 788 708 806 q 665 742 708 776 q 554 657 621 708 q 411 539 488 606 q 268 397 335 472 q 158 238 201 321 q 114 72 114 156 q 121 31 114 49 q 136 0 128 14 q 141 1 139 0 q 146 1 143 1 q 231 28 183 1 q 328 95 278 54 q 428 184 378 136 q 519 276 478 232 q 592 352 561 319 q 636 394 624 385 q 659 464 646 431 q 685 522 672 497 q 708 563 697 547 q 726 578 719 578 q 778 567 751 578 q 828 539 806 556 q 865 503 850 522 q 879 467 879 483 m 601 1606 q 590 1585 603 1600 q 553 1551 576 1569 q 499 1513 529 1532 q 440 1485 469 1494 q 358 1469 396 1469 q 293 1476 321 1468 q 273 1505 267 1485 q 336 1544 279 1525 q 391 1573 365 1554 q 438 1611 417 1592 q 474 1647 458 1631 q 500 1665 490 1663 q 525 1665 510 1669 q 556 1652 540 1661 q 583 1631 571 1643 q 601 1606 596 1618 z "},"":{"ha":926,"x_min":-25,"x_max":879,"o":"m 879 467 q 862 415 879 449 q 824 340 844 382 q 785 249 803 297 q 768 151 768 200 q 785 69 768 103 q 815 16 801 36 q 831 -12 829 -4 q 801 -21 832 -21 q 703 24 754 -21 q 629 161 653 69 q 539 76 590 121 q 433 -8 488 31 q 328 -71 379 -46 q 239 -96 276 -96 q 156 -77 189 -96 q 111 -39 122 -58 q 67 -14 90 -31 q 23 26 43 3 q -11 80 3 50 q -25 144 -25 110 q -10 255 -25 199 q 32 369 6 311 q 94 482 58 426 q 171 589 129 538 q 131 601 154 592 q 84 635 107 611 q 45 703 61 660 q 29 817 29 747 q 50 928 29 869 q 107 1046 71 988 q 190 1156 143 1104 q 287 1249 236 1208 q 390 1313 338 1289 q 488 1336 442 1336 q 542 1324 515 1336 q 590 1294 569 1313 q 610 1357 596 1319 q 642 1429 625 1394 q 674 1489 658 1464 q 700 1514 690 1514 q 729 1503 713 1514 q 761 1476 746 1492 q 787 1441 776 1460 q 797 1406 797 1422 q 781 1359 797 1390 q 744 1292 764 1328 q 708 1219 725 1256 q 692 1156 692 1182 q 693 1131 692 1139 q 678 1122 694 1122 q 660 1126 671 1122 q 638 1140 650 1131 q 615 1164 626 1149 q 596 1201 603 1179 q 582 1197 589 1199 q 565 1196 575 1196 q 515 1175 551 1196 q 431 1118 478 1154 q 334 1035 385 1082 q 241 934 283 988 q 172 825 199 881 q 144 717 144 769 q 151 665 144 690 q 196 670 171 661 q 243 692 221 679 q 294 726 268 707 q 379 800 338 767 q 459 858 421 833 q 530 895 497 882 q 588 908 563 908 q 628 896 607 908 q 667 865 650 883 q 697 826 685 847 q 708 788 708 806 q 665 742 708 776 q 554 657 621 708 q 411 539 488 606 q 268 397 335 472 q 158 238 201 321 q 114 72 114 156 q 121 31 114 49 q 136 0 128 14 q 141 1 139 0 q 146 1 143 1 q 231 28 183 1 q 328 95 278 54 q 428 184 378 136 q 519 276 478 232 q 592 352 561 319 q 636 394 624 385 q 659 464 646 431 q 685 522 672 497 q 708 563 697 547 q 726 578 719 578 q 778 567 751 578 q 828 539 806 556 q 865 503 850 522 q 879 467 879 483 m 389 1671 q 418 1695 404 1685 q 447 1707 432 1706 q 478 1700 461 1708 q 517 1671 496 1692 q 571 1622 540 1647 q 638 1586 601 1597 q 694 1552 694 1567 q 668 1529 694 1538 q 616 1528 654 1525 q 533 1546 578 1531 q 498 1560 515 1553 q 464 1576 481 1568 q 419 1548 443 1561 q 372 1526 396 1535 q 290 1510 328 1511 q 225 1518 253 1510 q 205 1547 199 1526 q 268 1586 211 1567 q 335 1622 304 1597 q 389 1671 365 1647 z "},"":{"ha":926,"x_min":-25,"x_max":879,"o":"m 879 467 q 862 415 879 449 q 824 340 844 382 q 785 249 803 297 q 768 151 768 200 q 785 69 768 103 q 815 16 801 36 q 831 -12 829 -4 q 801 -21 832 -21 q 703 24 754 -21 q 629 161 653 69 q 539 76 590 121 q 433 -8 488 31 q 328 -71 379 -46 q 239 -96 276 -96 q 156 -77 189 -96 q 111 -39 122 -58 q 67 -14 90 -31 q 23 26 43 3 q -11 80 3 50 q -25 144 -25 110 q -10 255 -25 199 q 32 369 6 311 q 94 482 58 426 q 171 589 129 538 q 131 601 154 592 q 84 635 107 611 q 45 703 61 660 q 29 817 29 747 q 50 928 29 869 q 107 1046 71 988 q 190 1156 143 1104 q 287 1249 236 1208 q 390 1313 338 1289 q 488 1336 442 1336 q 542 1324 515 1336 q 590 1294 569 1313 q 610 1357 596 1319 q 642 1429 625 1394 q 674 1489 658 1464 q 700 1514 690 1514 q 729 1503 713 1514 q 761 1476 746 1492 q 787 1441 776 1460 q 797 1406 797 1422 q 781 1359 797 1390 q 744 1292 764 1328 q 708 1219 725 1256 q 692 1156 692 1182 q 693 1131 692 1139 q 678 1122 694 1122 q 660 1126 671 1122 q 638 1140 650 1131 q 615 1164 626 1149 q 596 1201 603 1179 q 582 1197 589 1199 q 565 1196 575 1196 q 515 1175 551 1196 q 431 1118 478 1154 q 334 1035 385 1082 q 241 934 283 988 q 172 825 199 881 q 144 717 144 769 q 151 665 144 690 q 196 670 171 661 q 243 692 221 679 q 294 726 268 707 q 379 800 338 767 q 459 858 421 833 q 530 895 497 882 q 588 908 563 908 q 628 896 607 908 q 667 865 650 883 q 697 826 685 847 q 708 788 708 806 q 665 742 708 776 q 554 657 621 708 q 411 539 488 606 q 268 397 335 472 q 158 238 201 321 q 114 72 114 156 q 121 31 114 49 q 136 0 128 14 q 141 1 139 0 q 146 1 143 1 q 231 28 183 1 q 328 95 278 54 q 428 184 378 136 q 519 276 478 232 q 592 352 561 319 q 636 394 624 385 q 659 464 646 431 q 685 522 672 497 q 708 563 697 547 q 726 578 719 578 q 778 567 751 578 q 828 539 806 556 q 865 503 850 522 q 879 467 879 483 m 378 1538 q 356 1463 378 1485 q 301 1440 333 1440 q 274 1447 289 1440 q 245 1466 258 1454 q 224 1494 232 1478 q 215 1526 215 1510 q 241 1589 215 1568 q 292 1611 267 1610 q 321 1608 306 1613 q 349 1594 336 1604 q 369 1570 361 1585 q 378 1538 378 1556 m 675 1538 q 665 1492 675 1511 q 640 1463 656 1474 q 606 1446 625 1451 q 571 1440 588 1440 q 548 1451 558 1440 q 530 1479 538 1463 q 517 1515 522 1496 q 513 1551 513 1535 q 538 1597 513 1585 q 589 1611 564 1610 q 617 1608 601 1613 q 645 1594 632 1604 q 667 1570 658 1585 q 675 1538 675 1556 z "},"":{"ha":375,"x_min":-47,"x_max":290,"o":"m 246 1201 q 248 1131 244 1182 q 258 1010 251 1081 q 271 854 264 939 q 283 681 278 769 q 288 506 288 593 q 283 347 289 419 q 244 156 275 238 q 172 19 213 74 q 87 -60 131 -35 q 10 -83 43 -86 q -18 -78 -12 -82 q -18 -60 -24 -74 q 1 -23 -12 -47 q 31 44 15 1 q 60 149 46 86 q 81 300 74 211 q 83 438 85 358 q 78 604 82 517 q 67 781 74 692 q 56 946 61 869 q 47 1080 50 1022 q 46 1163 43 1138 q 64 1209 47 1188 q 103 1246 81 1231 q 153 1268 126 1261 q 201 1271 179 1275 q 235 1250 222 1267 q 246 1201 249 1233 m -44 1517 q -26 1542 -39 1529 q 1 1563 -14 1554 q 31 1576 17 1572 q 57 1576 46 1581 q 83 1558 67 1574 q 119 1522 99 1542 q 166 1484 140 1503 q 221 1456 192 1465 q 284 1416 278 1436 q 264 1388 290 1396 q 199 1380 236 1379 q 117 1396 161 1381 q 58 1424 88 1406 q 4 1462 28 1443 q -33 1496 -19 1481 q -44 1517 -47 1511 z "},"":{"ha":375,"x_min":-32,"x_max":304,"o":"m 246 1201 q 248 1131 244 1182 q 258 1010 251 1081 q 271 854 264 939 q 283 681 278 769 q 288 506 288 593 q 283 347 289 419 q 244 156 275 238 q 172 19 213 74 q 87 -60 131 -35 q 10 -83 43 -86 q -18 -78 -12 -82 q -18 -60 -24 -74 q 1 -23 -12 -47 q 31 44 15 1 q 60 149 46 86 q 81 300 74 211 q 83 438 85 358 q 78 604 82 517 q 67 781 74 692 q 56 946 61 869 q 47 1080 50 1022 q 46 1163 43 1138 q 64 1209 47 1188 q 103 1246 81 1231 q 153 1268 126 1261 q 201 1271 179 1275 q 235 1250 222 1267 q 246 1201 249 1233 m 303 1543 q 291 1522 304 1538 q 254 1488 278 1507 q 201 1451 231 1469 q 142 1422 171 1432 q 60 1406 97 1407 q -6 1414 22 1406 q -26 1442 -32 1422 q 38 1482 -19 1463 q 92 1510 67 1492 q 139 1549 118 1529 q 176 1584 160 1568 q 201 1603 192 1600 q 226 1603 211 1607 q 257 1590 242 1599 q 285 1568 272 1581 q 303 1543 297 1556 z "},"":{"ha":375,"x_min":-126,"x_max":369,"o":"m 246 1201 q 248 1131 244 1182 q 258 1010 251 1081 q 271 854 264 939 q 283 681 278 769 q 288 506 288 593 q 283 347 289 419 q 244 156 275 238 q 172 19 213 74 q 87 -60 131 -35 q 10 -83 43 -86 q -18 -78 -12 -82 q -18 -60 -24 -74 q 1 -23 -12 -47 q 31 44 15 1 q 60 149 46 86 q 81 300 74 211 q 83 438 85 358 q 78 604 82 517 q 67 781 74 692 q 56 946 61 869 q 47 1080 50 1022 q 46 1163 43 1138 q 64 1209 47 1188 q 103 1246 81 1231 q 153 1268 126 1261 q 201 1271 179 1275 q 235 1250 222 1267 q 246 1201 249 1233 m 64 1535 q 93 1559 79 1549 q 122 1571 107 1569 q 153 1564 136 1572 q 192 1535 171 1556 q 246 1486 215 1511 q 313 1450 276 1461 q 369 1416 369 1431 q 343 1393 369 1401 q 291 1392 329 1389 q 208 1410 253 1394 q 173 1424 190 1417 q 139 1440 156 1432 q 94 1412 118 1425 q 47 1390 71 1399 q -35 1374 3 1375 q -100 1382 -72 1374 q -120 1410 -126 1390 q -57 1450 -114 1431 q 10 1486 -21 1461 q 64 1535 40 1511 z "},"":{"ha":375,"x_min":-169,"x_max":418,"o":"m 246 1201 q 248 1131 244 1182 q 258 1010 251 1081 q 271 854 264 939 q 283 681 278 769 q 288 506 288 593 q 283 347 289 419 q 244 156 275 238 q 172 19 213 74 q 87 -60 131 -35 q 10 -83 43 -86 q -18 -78 -12 -82 q -18 -60 -24 -74 q 1 -23 -12 -47 q 31 44 15 1 q 60 149 46 86 q 81 300 74 211 q 83 438 85 358 q 78 604 82 517 q 67 781 74 692 q 56 946 61 869 q 47 1080 50 1022 q 46 1163 43 1138 q 64 1209 47 1188 q 103 1246 81 1231 q 153 1268 126 1261 q 201 1271 179 1275 q 235 1250 222 1267 q 246 1201 249 1233 m 39 1487 q 11 1391 39 1420 q -58 1363 -18 1363 q -94 1372 -74 1363 q -130 1396 -113 1381 q -158 1431 -147 1411 q -168 1473 -168 1452 q -136 1553 -168 1526 q -71 1581 -103 1579 q -34 1578 -53 1583 q 2 1560 -14 1572 q 28 1529 18 1547 q 39 1487 39 1510 m 419 1487 q 406 1429 419 1453 q 374 1391 394 1405 q 331 1370 355 1377 q 286 1363 307 1363 q 256 1377 270 1363 q 233 1413 243 1391 q 217 1459 224 1434 q 211 1505 211 1484 q 244 1563 211 1547 q 309 1581 277 1579 q 344 1578 325 1583 q 380 1560 364 1572 q 408 1529 397 1547 q 419 1487 419 1510 z "},"":{"ha":875,"x_min":-7,"x_max":806,"o":"m 803 1194 q 797 1144 803 1171 q 780 1081 790 1117 q 758 996 769 1044 q 737 880 747 947 q 720 724 726 813 q 714 518 714 635 q 726 308 714 396 q 754 161 739 221 q 783 66 769 101 q 801 12 797 31 q 794 -12 806 -7 q 747 -18 782 -18 q 652 13 692 -18 q 585 94 613 43 q 542 213 558 146 q 518 352 526 279 q 507 498 510 425 q 504 636 504 571 q 510 767 504 696 q 526 914 515 839 q 476 737 503 838 q 423 513 450 636 q 370 245 396 390 q 322 -64 344 100 q 327 -88 332 -83 q 294 -93 322 -93 q 202 -58 254 -93 q 103 53 150 -22 q 25 247 57 129 q -7 531 -7 365 q 0 690 -7 617 q 15 819 7 763 q 31 912 24 875 q 38 963 38 949 q 39 986 38 972 q 46 1013 40 1000 q 62 1036 51 1026 q 90 1046 72 1046 q 138 1032 108 1046 q 197 996 168 1018 q 247 946 226 974 q 268 892 268 918 q 261 820 268 864 q 245 722 254 776 q 229 603 236 667 q 222 472 222 539 q 238 225 222 325 q 272 63 253 125 q 297 187 281 107 q 334 365 313 267 q 383 574 356 464 q 440 790 410 685 q 504 989 471 896 q 572 1147 538 1082 q 613 1269 592 1222 q 653 1315 633 1315 q 704 1309 678 1315 q 753 1289 731 1303 q 789 1252 775 1275 q 803 1194 803 1229 m 668 1450 q 581 1444 621 1450 q 508 1433 542 1439 q 447 1422 475 1426 q 392 1417 418 1417 q 344 1435 367 1417 q 309 1475 322 1453 q 292 1515 296 1497 q 297 1533 288 1533 q 313 1531 307 1533 q 326 1524 318 1528 q 347 1518 333 1521 q 386 1515 361 1515 q 438 1520 411 1515 q 492 1530 464 1525 q 551 1540 519 1535 q 621 1544 583 1544 q 694 1524 665 1544 q 740 1478 724 1503 q 758 1433 756 1454 q 753 1413 761 1413 q 740 1418 744 1413 q 728 1431 735 1424 q 708 1444 721 1439 q 668 1450 694 1450 z "},"":{"ha":926,"x_min":-35,"x_max":876,"o":"m 479 1361 q 677 1320 600 1361 q 799 1212 754 1279 q 860 1056 843 1144 q 876 872 876 968 q 862 713 876 808 q 819 513 847 618 q 752 303 792 408 q 663 115 713 199 q 553 -20 613 32 q 426 -72 493 -72 q 271 -33 339 -72 q 151 73 203 7 q 65 224 100 139 q 7 399 29 308 q -25 577 -15 489 q -35 739 -35 665 q -27 827 -35 774 q -3 930 -19 881 q 39 1015 13 979 q 103 1050 65 1050 q 154 1046 129 1050 q 190 1154 167 1099 q 252 1256 214 1210 q 346 1331 290 1301 q 479 1361 401 1361 m 674 872 q 669 988 674 922 q 653 1111 665 1053 q 619 1210 640 1169 q 563 1251 597 1251 q 512 1230 539 1251 q 458 1174 485 1208 q 405 1099 431 1140 q 360 1017 379 1057 q 330 942 342 976 q 318 888 318 907 q 322 836 318 860 q 325 796 326 813 q 313 769 324 779 q 272 760 303 760 q 200 776 233 760 q 190 695 193 738 q 186 603 186 653 q 191 529 186 582 q 206 410 196 476 q 233 271 217 343 q 271 138 249 199 q 322 39 293 78 q 386 0 350 0 q 458 43 422 0 q 525 158 493 86 q 584 321 557 229 q 631 510 611 413 q 663 701 651 607 q 674 872 674 796 m 282 1583 q 300 1608 288 1596 q 328 1630 313 1621 q 358 1643 343 1639 q 383 1643 372 1647 q 409 1624 393 1640 q 446 1589 425 1608 q 492 1551 467 1569 q 547 1522 518 1532 q 610 1483 604 1503 q 590 1454 617 1463 q 525 1447 563 1446 q 443 1463 488 1447 q 384 1491 414 1472 q 331 1528 354 1510 q 293 1563 307 1547 q 282 1583 279 1578 z "},"":{"ha":926,"x_min":-35,"x_max":876,"o":"m 479 1361 q 677 1320 600 1361 q 799 1212 754 1279 q 860 1056 843 1144 q 876 872 876 968 q 862 713 876 808 q 819 513 847 618 q 752 303 792 408 q 663 115 713 199 q 553 -20 613 32 q 426 -72 493 -72 q 271 -33 339 -72 q 151 73 203 7 q 65 224 100 139 q 7 399 29 308 q -25 577 -15 489 q -35 739 -35 665 q -27 827 -35 774 q -3 930 -19 881 q 39 1015 13 979 q 103 1050 65 1050 q 154 1046 129 1050 q 190 1154 167 1099 q 252 1256 214 1210 q 346 1331 290 1301 q 479 1361 401 1361 m 674 872 q 669 988 674 922 q 653 1111 665 1053 q 619 1210 640 1169 q 563 1251 597 1251 q 512 1230 539 1251 q 458 1174 485 1208 q 405 1099 431 1140 q 360 1017 379 1057 q 330 942 342 976 q 318 888 318 907 q 322 836 318 860 q 325 796 326 813 q 313 769 324 779 q 272 760 303 760 q 200 776 233 760 q 190 695 193 738 q 186 603 186 653 q 191 529 186 582 q 206 410 196 476 q 233 271 217 343 q 271 138 249 199 q 322 39 293 78 q 386 0 350 0 q 458 43 422 0 q 525 158 493 86 q 584 321 557 229 q 631 510 611 413 q 663 701 651 607 q 674 872 674 796 m 625 1569 q 613 1549 626 1564 q 576 1515 600 1533 q 523 1477 553 1496 q 464 1449 493 1458 q 382 1433 419 1433 q 317 1440 344 1432 q 297 1469 290 1449 q 360 1508 303 1489 q 415 1537 389 1518 q 461 1575 440 1556 q 498 1610 482 1594 q 524 1629 514 1626 q 549 1629 533 1633 q 579 1616 564 1625 q 607 1594 594 1607 q 625 1569 619 1582 z "},"":{"ha":926,"x_min":-35,"x_max":876,"o":"m 479 1361 q 677 1320 600 1361 q 799 1212 754 1279 q 860 1056 843 1144 q 876 872 876 968 q 862 713 876 808 q 819 513 847 618 q 752 303 792 408 q 663 115 713 199 q 553 -20 613 32 q 426 -72 493 -72 q 271 -33 339 -72 q 151 73 203 7 q 65 224 100 139 q 7 399 29 308 q -25 577 -15 489 q -35 739 -35 665 q -27 827 -35 774 q -3 930 -19 881 q 39 1015 13 979 q 103 1050 65 1050 q 154 1046 129 1050 q 190 1154 167 1099 q 252 1256 214 1210 q 346 1331 290 1301 q 479 1361 401 1361 m 674 872 q 669 988 674 922 q 653 1111 665 1053 q 619 1210 640 1169 q 563 1251 597 1251 q 512 1230 539 1251 q 458 1174 485 1208 q 405 1099 431 1140 q 360 1017 379 1057 q 330 942 342 976 q 318 888 318 907 q 322 836 318 860 q 325 796 326 813 q 313 769 324 779 q 272 760 303 760 q 200 776 233 760 q 190 695 193 738 q 186 603 186 653 q 191 529 186 582 q 206 410 196 476 q 233 271 217 343 q 271 138 249 199 q 322 39 293 78 q 386 0 350 0 q 458 43 422 0 q 525 158 493 86 q 584 321 557 229 q 631 510 611 413 q 663 701 651 607 q 674 872 674 796 m 396 1665 q 425 1690 411 1679 q 453 1701 439 1700 q 485 1694 468 1703 q 524 1665 503 1686 q 578 1617 547 1642 q 644 1581 608 1592 q 701 1547 701 1561 q 675 1524 701 1532 q 623 1522 661 1519 q 540 1540 585 1525 q 505 1555 522 1547 q 471 1571 488 1563 q 426 1542 450 1556 q 379 1521 403 1529 q 297 1505 335 1506 q 232 1513 260 1504 q 212 1541 206 1521 q 275 1581 218 1561 q 342 1617 311 1592 q 396 1665 372 1642 z "},"":{"ha":926,"x_min":-35,"x_max":876,"o":"m 479 1361 q 677 1320 600 1361 q 799 1212 754 1279 q 860 1056 843 1144 q 876 872 876 968 q 862 713 876 808 q 819 513 847 618 q 752 303 792 408 q 663 115 713 199 q 553 -20 613 32 q 426 -72 493 -72 q 271 -33 339 -72 q 151 73 203 7 q 65 224 100 139 q 7 399 29 308 q -25 577 -15 489 q -35 739 -35 665 q -27 827 -35 774 q -3 930 -19 881 q 39 1015 13 979 q 103 1050 65 1050 q 154 1046 129 1050 q 190 1154 167 1099 q 252 1256 214 1210 q 346 1331 290 1301 q 479 1361 401 1361 m 674 872 q 669 988 674 922 q 653 1111 665 1053 q 619 1210 640 1169 q 563 1251 597 1251 q 512 1230 539 1251 q 458 1174 485 1208 q 405 1099 431 1140 q 360 1017 379 1057 q 330 942 342 976 q 318 888 318 907 q 322 836 318 860 q 325 796 326 813 q 313 769 324 779 q 272 760 303 760 q 200 776 233 760 q 190 695 193 738 q 186 603 186 653 q 191 529 186 582 q 206 410 196 476 q 233 271 217 343 q 271 138 249 199 q 322 39 293 78 q 386 0 350 0 q 458 43 422 0 q 525 158 493 86 q 584 321 557 229 q 631 510 611 413 q 663 701 651 607 q 674 872 674 796 m 600 1539 q 513 1533 553 1539 q 440 1522 474 1528 q 378 1510 407 1515 q 324 1506 350 1506 q 276 1524 299 1506 q 241 1564 254 1542 q 224 1604 228 1586 q 229 1622 219 1622 q 244 1619 239 1622 q 258 1613 250 1617 q 279 1607 265 1610 q 318 1604 293 1604 q 369 1609 343 1604 q 424 1619 396 1614 q 483 1628 451 1624 q 553 1633 515 1633 q 626 1613 597 1633 q 672 1567 656 1592 q 690 1522 688 1543 q 685 1501 693 1501 q 672 1507 676 1501 q 660 1520 667 1513 q 640 1533 653 1528 q 600 1539 626 1539 z "},"":{"ha":926,"x_min":-35,"x_max":876,"o":"m 479 1361 q 677 1320 600 1361 q 799 1212 754 1279 q 860 1056 843 1144 q 876 872 876 968 q 862 713 876 808 q 819 513 847 618 q 752 303 792 408 q 663 115 713 199 q 553 -20 613 32 q 426 -72 493 -72 q 271 -33 339 -72 q 151 73 203 7 q 65 224 100 139 q 7 399 29 308 q -25 577 -15 489 q -35 739 -35 665 q -27 827 -35 774 q -3 930 -19 881 q 39 1015 13 979 q 103 1050 65 1050 q 154 1046 129 1050 q 190 1154 167 1099 q 252 1256 214 1210 q 346 1331 290 1301 q 479 1361 401 1361 m 674 872 q 669 988 674 922 q 653 1111 665 1053 q 619 1210 640 1169 q 563 1251 597 1251 q 512 1230 539 1251 q 458 1174 485 1208 q 405 1099 431 1140 q 360 1017 379 1057 q 330 942 342 976 q 318 888 318 907 q 322 836 318 860 q 325 796 326 813 q 313 769 324 779 q 272 760 303 760 q 200 776 233 760 q 190 695 193 738 q 186 603 186 653 q 191 529 186 582 q 206 410 196 476 q 233 271 217 343 q 271 138 249 199 q 322 39 293 78 q 386 0 350 0 q 458 43 422 0 q 525 158 493 86 q 584 321 557 229 q 631 510 611 413 q 663 701 651 607 q 674 872 674 796 m 394 1561 q 367 1469 394 1496 q 301 1442 340 1442 q 267 1450 286 1442 q 233 1473 249 1459 q 207 1507 217 1488 q 197 1547 197 1527 q 228 1624 197 1598 q 289 1651 259 1649 q 325 1647 306 1652 q 358 1630 343 1642 q 384 1601 374 1619 q 394 1561 394 1583 m 755 1561 q 743 1506 755 1529 q 713 1469 731 1483 q 671 1449 694 1456 q 628 1442 649 1442 q 601 1456 613 1442 q 579 1490 588 1469 q 563 1534 569 1510 q 558 1578 558 1557 q 589 1634 558 1619 q 650 1651 620 1649 q 684 1647 665 1652 q 719 1630 703 1642 q 745 1601 735 1619 q 755 1561 755 1583 z "},"":{"ha":908,"x_min":-28,"x_max":839,"o":"m 839 1099 q 823 1028 839 1081 q 788 892 807 975 q 753 702 769 810 q 738 467 738 594 q 751 248 738 339 q 779 99 764 157 q 808 11 794 40 q 821 -22 821 -18 q 800 -37 821 -29 q 756 -46 779 -46 q 670 -15 707 -46 q 606 66 633 17 q 561 176 579 115 q 532 299 543 238 q 423 89 492 197 q 246 -121 354 -19 l 244 -108 q 236 -136 246 -128 q 199 -146 226 -144 q 87 -95 131 -147 q 17 44 43 -43 q -18 245 -8 132 q -28 478 -28 358 q -22 715 -28 597 q -7 930 -15 833 q 8 1093 1 1026 q 14 1176 14 1160 q 15 1204 14 1192 q 25 1226 17 1217 q 51 1240 33 1235 q 100 1244 68 1244 q 160 1231 131 1246 q 214 1196 190 1217 q 253 1150 238 1175 q 268 1106 268 1125 q 263 1044 268 1096 q 249 913 257 992 q 231 735 240 833 q 214 537 222 638 q 201 340 206 436 q 199 168 197 244 q 213 28 201 85 q 235 -65 225 -28 q 269 -28 238 -62 q 342 70 300 7 q 432 224 385 133 q 514 428 479 314 q 511 469 511 450 q 511 503 511 488 q 522 759 511 640 q 551 965 533 878 q 593 1101 569 1051 q 640 1150 617 1150 q 688 1149 654 1150 q 754 1142 721 1147 q 813 1127 788 1138 q 839 1099 839 1117 m 254 1435 q 272 1460 260 1447 q 300 1481 285 1472 q 330 1494 315 1490 q 356 1494 344 1499 q 381 1476 365 1492 q 418 1440 397 1460 q 465 1402 439 1421 q 519 1374 490 1383 q 583 1334 576 1354 q 563 1306 589 1314 q 497 1298 535 1297 q 415 1314 460 1299 q 356 1342 386 1324 q 303 1380 326 1361 q 265 1414 279 1399 q 254 1435 251 1429 z "},"":{"ha":908,"x_min":-28,"x_max":839,"o":"m 839 1099 q 823 1028 839 1081 q 788 892 807 975 q 753 702 769 810 q 738 467 738 594 q 751 248 738 339 q 779 99 764 157 q 808 11 794 40 q 821 -22 821 -18 q 800 -37 821 -29 q 756 -46 779 -46 q 670 -15 707 -46 q 606 66 633 17 q 561 176 579 115 q 532 299 543 238 q 423 89 492 197 q 246 -121 354 -19 l 244 -108 q 236 -136 246 -128 q 199 -146 226 -144 q 87 -95 131 -147 q 17 44 43 -43 q -18 245 -8 132 q -28 478 -28 358 q -22 715 -28 597 q -7 930 -15 833 q 8 1093 1 1026 q 14 1176 14 1160 q 15 1204 14 1192 q 25 1226 17 1217 q 51 1240 33 1235 q 100 1244 68 1244 q 160 1231 131 1246 q 214 1196 190 1217 q 253 1150 238 1175 q 268 1106 268 1125 q 263 1044 268 1096 q 249 913 257 992 q 231 735 240 833 q 214 537 222 638 q 201 340 206 436 q 199 168 197 244 q 213 28 201 85 q 235 -65 225 -28 q 269 -28 238 -62 q 342 70 300 7 q 432 224 385 133 q 514 428 479 314 q 511 469 511 450 q 511 503 511 488 q 522 759 511 640 q 551 965 533 878 q 593 1101 569 1051 q 640 1150 617 1150 q 688 1149 654 1150 q 754 1142 721 1147 q 813 1127 788 1138 q 839 1099 839 1117 m 628 1390 q 616 1369 629 1385 q 579 1335 603 1354 q 526 1298 556 1317 q 467 1269 496 1279 q 385 1253 422 1254 q 319 1261 347 1253 q 299 1290 293 1269 q 363 1329 306 1310 q 417 1358 392 1339 q 464 1396 443 1376 q 501 1431 485 1415 q 526 1450 517 1447 q 551 1450 536 1454 q 582 1437 567 1446 q 610 1415 597 1428 q 628 1390 622 1403 z "},"":{"ha":908,"x_min":-28,"x_max":839,"o":"m 839 1099 q 823 1028 839 1081 q 788 892 807 975 q 753 702 769 810 q 738 467 738 594 q 751 248 738 339 q 779 99 764 157 q 808 11 794 40 q 821 -22 821 -18 q 800 -37 821 -29 q 756 -46 779 -46 q 670 -15 707 -46 q 606 66 633 17 q 561 176 579 115 q 532 299 543 238 q 423 89 492 197 q 246 -121 354 -19 l 244 -108 q 236 -136 246 -128 q 199 -146 226 -144 q 87 -95 131 -147 q 17 44 43 -43 q -18 245 -8 132 q -28 478 -28 358 q -22 715 -28 597 q -7 930 -15 833 q 8 1093 1 1026 q 14 1176 14 1160 q 15 1204 14 1192 q 25 1226 17 1217 q 51 1240 33 1235 q 100 1244 68 1244 q 160 1231 131 1246 q 214 1196 190 1217 q 253 1150 238 1175 q 268 1106 268 1125 q 263 1044 268 1096 q 249 913 257 992 q 231 735 240 833 q 214 537 222 638 q 201 340 206 436 q 199 168 197 244 q 213 28 201 85 q 235 -65 225 -28 q 269 -28 238 -62 q 342 70 300 7 q 432 224 385 133 q 514 428 479 314 q 511 469 511 450 q 511 503 511 488 q 522 759 511 640 q 551 965 533 878 q 593 1101 569 1051 q 640 1150 617 1150 q 688 1149 654 1150 q 754 1142 721 1147 q 813 1127 788 1138 q 839 1099 839 1117 m 388 1439 q 417 1463 403 1453 q 445 1475 431 1474 q 477 1468 460 1476 q 515 1439 494 1460 q 569 1390 539 1415 q 636 1354 600 1365 q 693 1320 693 1335 q 667 1297 693 1306 q 615 1296 653 1293 q 532 1314 576 1299 q 497 1328 514 1321 q 463 1344 479 1336 q 418 1316 442 1329 q 371 1294 394 1303 q 289 1278 326 1279 q 224 1286 251 1278 q 203 1315 197 1294 q 267 1354 210 1335 q 333 1390 303 1365 q 388 1439 364 1415 z "},"":{"ha":908,"x_min":-28,"x_max":839,"o":"m 839 1099 q 823 1028 839 1081 q 788 892 807 975 q 753 702 769 810 q 738 467 738 594 q 751 248 738 339 q 779 99 764 157 q 808 11 794 40 q 821 -22 821 -18 q 800 -37 821 -29 q 756 -46 779 -46 q 670 -15 707 -46 q 606 66 633 17 q 561 176 579 115 q 532 299 543 238 q 423 89 492 197 q 246 -121 354 -19 l 244 -108 q 236 -136 246 -128 q 199 -146 226 -144 q 87 -95 131 -147 q 17 44 43 -43 q -18 245 -8 132 q -28 478 -28 358 q -22 715 -28 597 q -7 930 -15 833 q 8 1093 1 1026 q 14 1176 14 1160 q 15 1204 14 1192 q 25 1226 17 1217 q 51 1240 33 1235 q 100 1244 68 1244 q 160 1231 131 1246 q 214 1196 190 1217 q 253 1150 238 1175 q 268 1106 268 1125 q 263 1044 268 1096 q 249 913 257 992 q 231 735 240 833 q 214 537 222 638 q 201 340 206 436 q 199 168 197 244 q 213 28 201 85 q 235 -65 225 -28 q 269 -28 238 -62 q 342 70 300 7 q 432 224 385 133 q 514 428 479 314 q 511 469 511 450 q 511 503 511 488 q 522 759 511 640 q 551 965 533 878 q 593 1101 569 1051 q 640 1150 617 1150 q 688 1149 654 1150 q 754 1142 721 1147 q 813 1127 788 1138 q 839 1099 839 1117 m 366 1412 q 342 1332 366 1355 q 285 1308 319 1308 q 255 1316 271 1308 q 225 1336 239 1323 q 202 1365 211 1348 q 193 1400 193 1382 q 221 1466 193 1444 q 274 1490 248 1488 q 305 1487 289 1491 q 335 1472 322 1483 q 357 1446 348 1462 q 366 1412 366 1431 m 681 1412 q 671 1364 681 1384 q 644 1332 660 1344 q 608 1314 628 1320 q 570 1308 588 1308 q 546 1320 557 1308 q 527 1350 535 1332 q 514 1388 519 1367 q 509 1426 509 1409 q 536 1475 509 1462 q 590 1490 563 1488 q 619 1487 603 1491 q 649 1472 635 1483 q 672 1446 663 1462 q 681 1412 681 1431 z "},"":{"ha":875,"x_min":-21,"x_max":793,"o":"m 781 915 q 747 129 793 475 q 715 -66 735 31 q 667 -249 694 -162 q 602 -411 639 -336 q 517 -540 565 -486 q 410 -626 469 -594 q 279 -657 351 -657 q 226 -645 254 -657 q 174 -615 199 -633 q 134 -576 150 -597 q 117 -536 118 -554 q 135 -506 117 -518 q 200 -494 154 -494 q 301 -460 256 -494 q 381 -366 346 -426 q 444 -225 417 -306 q 492 -51 472 -144 q 526 144 513 43 q 550 347 540 246 q 479 217 518 285 q 398 93 440 149 q 312 1 356 38 q 228 -35 268 -35 q 160 -15 201 -35 q 78 54 118 4 q 8 190 38 104 q -21 407 -21 275 q -17 506 -21 449 q -10 646 -14 563 q -3 845 -7 729 q 0 1119 0 961 q -7 1179 0 1150 q -15 1231 -14 1208 q -2 1266 -15 1253 q 51 1279 11 1279 q 105 1267 72 1279 q 167 1229 138 1254 q 219 1167 197 1204 q 240 1079 240 1129 q 237 981 240 1044 q 228 835 233 917 q 216 663 222 754 q 205 481 210 571 q 198 308 200 390 q 198 161 196 225 q 208 60 200 97 q 231 22 215 22 q 302 70 260 22 q 390 190 344 118 q 481 346 436 263 q 563 500 526 429 q 571 680 568 594 q 575 833 574 765 q 576 947 576 900 q 576 1011 576 994 q 574 1042 576 1025 q 574 1072 571 1058 q 588 1095 576 1086 q 626 1104 599 1104 q 681 1092 653 1104 q 731 1057 708 1081 q 767 998 753 1033 q 781 915 781 963 m 639 1378 q 627 1357 640 1372 q 590 1323 614 1342 q 537 1285 567 1304 q 478 1257 507 1267 q 396 1241 433 1242 q 331 1249 358 1240 q 310 1277 304 1257 q 374 1317 317 1297 q 428 1345 403 1326 q 475 1383 454 1364 q 512 1419 496 1403 q 538 1438 528 1435 q 563 1438 547 1442 q 593 1424 578 1433 q 621 1403 608 1415 q 639 1378 633 1390 z "},"":{"ha":703,"x_min":0,"x_max":831,"o":"m 794 503 q 804 519 797 514 q 817 523 811 524 q 827 515 824 522 q 828 496 831 508 q 815 447 826 488 q 783 348 803 406 q 739 224 764 290 q 685 99 714 157 q 626 -3 657 40 q 567 -56 596 -46 q 544 -60 560 -60 q 487 -40 511 -60 q 444 10 463 -19 q 413 76 425 40 q 392 141 400 111 q 379 191 383 171 q 372 211 375 211 q 363 195 369 211 q 347 156 357 179 q 322 106 336 133 q 290 55 308 78 q 249 16 272 32 q 199 0 226 0 q 121 15 157 0 q 58 61 85 29 q 15 144 31 93 q 0 267 0 194 q 19 418 0 335 q 76 574 38 501 q 171 697 114 647 q 306 746 228 746 q 404 742 360 746 q 481 720 449 739 q 532 660 514 701 q 550 543 550 619 q 542 530 550 536 q 525 522 535 524 q 508 523 515 519 q 500 538 500 526 q 498 574 500 550 q 489 622 496 597 q 470 664 482 646 q 439 682 458 682 q 341 640 388 682 q 259 526 294 597 q 203 365 224 456 q 182 179 182 275 q 183 136 182 160 q 190 92 185 113 q 204 58 194 72 q 229 44 214 44 q 253 66 239 44 q 281 122 267 88 q 310 199 296 157 q 334 281 324 240 q 351 355 344 321 q 358 407 358 389 q 360 431 358 417 q 369 456 361 444 q 393 476 376 468 q 442 485 410 485 q 533 462 506 485 q 561 417 561 439 l 561 394 q 563 298 563 358 q 566 178 563 238 q 578 76 569 119 q 603 33 586 33 q 626 66 610 33 q 663 148 643 99 q 706 256 683 197 q 747 367 728 315 q 778 457 765 419 q 794 503 792 494 m 182 996 q 200 1021 188 1008 q 228 1042 213 1033 q 258 1056 243 1051 q 283 1056 272 1060 q 309 1037 293 1053 q 346 1001 325 1021 q 392 963 367 982 q 447 935 418 944 q 510 895 504 915 q 490 867 517 875 q 425 859 463 858 q 343 875 388 860 q 284 903 314 885 q 231 941 254 922 q 193 975 207 960 q 182 996 179 990 z "},"":{"ha":703,"x_min":0,"x_max":831,"o":"m 794 503 q 804 519 797 514 q 817 523 811 524 q 827 515 824 522 q 828 496 831 508 q 815 447 826 488 q 783 348 803 406 q 739 224 764 290 q 685 99 714 157 q 626 -3 657 40 q 567 -56 596 -46 q 544 -60 560 -60 q 487 -40 511 -60 q 444 10 463 -19 q 413 76 425 40 q 392 141 400 111 q 379 191 383 171 q 372 211 375 211 q 363 195 369 211 q 347 156 357 179 q 322 106 336 133 q 290 55 308 78 q 249 16 272 32 q 199 0 226 0 q 121 15 157 0 q 58 61 85 29 q 15 144 31 93 q 0 267 0 194 q 19 418 0 335 q 76 574 38 501 q 171 697 114 647 q 306 746 228 746 q 404 742 360 746 q 481 720 449 739 q 532 660 514 701 q 550 543 550 619 q 542 530 550 536 q 525 522 535 524 q 508 523 515 519 q 500 538 500 526 q 498 574 500 550 q 489 622 496 597 q 470 664 482 646 q 439 682 458 682 q 341 640 388 682 q 259 526 294 597 q 203 365 224 456 q 182 179 182 275 q 183 136 182 160 q 190 92 185 113 q 204 58 194 72 q 229 44 214 44 q 253 66 239 44 q 281 122 267 88 q 310 199 296 157 q 334 281 324 240 q 351 355 344 321 q 358 407 358 389 q 360 431 358 417 q 369 456 361 444 q 393 476 376 468 q 442 485 410 485 q 533 462 506 485 q 561 417 561 439 l 561 394 q 563 298 563 358 q 566 178 563 238 q 578 76 569 119 q 603 33 586 33 q 626 66 610 33 q 663 148 643 99 q 706 256 683 197 q 747 367 728 315 q 778 457 765 419 q 794 503 792 494 m 519 996 q 508 975 521 990 q 471 941 494 960 q 417 903 447 922 q 358 875 388 885 q 276 859 314 860 q 211 867 239 858 q 191 895 185 875 q 254 935 197 915 q 309 963 283 944 q 356 1001 335 982 q 392 1037 376 1021 q 418 1056 408 1053 q 443 1056 428 1060 q 474 1042 458 1051 q 501 1021 489 1033 q 519 996 514 1008 z "},"":{"ha":703,"x_min":0,"x_max":831,"o":"m 794 503 q 804 519 797 514 q 817 523 811 524 q 827 515 824 522 q 828 496 831 508 q 815 447 826 488 q 783 348 803 406 q 739 224 764 290 q 685 99 714 157 q 626 -3 657 40 q 567 -56 596 -46 q 544 -60 560 -60 q 487 -40 511 -60 q 444 10 463 -19 q 413 76 425 40 q 392 141 400 111 q 379 191 383 171 q 372 211 375 211 q 363 195 369 211 q 347 156 357 179 q 322 106 336 133 q 290 55 308 78 q 249 16 272 32 q 199 0 226 0 q 121 15 157 0 q 58 61 85 29 q 15 144 31 93 q 0 267 0 194 q 19 418 0 335 q 76 574 38 501 q 171 697 114 647 q 306 746 228 746 q 404 742 360 746 q 481 720 449 739 q 532 660 514 701 q 550 543 550 619 q 542 530 550 536 q 525 522 535 524 q 508 523 515 519 q 500 538 500 526 q 498 574 500 550 q 489 622 496 597 q 470 664 482 646 q 439 682 458 682 q 341 640 388 682 q 259 526 294 597 q 203 365 224 456 q 182 179 182 275 q 183 136 182 160 q 190 92 185 113 q 204 58 194 72 q 229 44 214 44 q 253 66 239 44 q 281 122 267 88 q 310 199 296 157 q 334 281 324 240 q 351 355 344 321 q 358 407 358 389 q 360 431 358 417 q 369 456 361 444 q 393 476 376 468 q 442 485 410 485 q 533 462 506 485 q 561 417 561 439 l 561 394 q 563 298 563 358 q 566 178 563 238 q 578 76 569 119 q 603 33 586 33 q 626 66 610 33 q 663 148 643 99 q 706 256 683 197 q 747 367 728 315 q 778 457 765 419 q 794 503 792 494 m 288 1019 q 317 1044 303 1033 q 345 1056 331 1054 q 377 1049 360 1057 q 415 1019 394 1040 q 469 971 439 996 q 536 935 500 946 q 593 901 593 915 q 567 878 593 886 q 515 876 553 874 q 432 894 476 879 q 397 909 414 901 q 363 925 379 917 q 318 897 342 910 q 271 875 294 883 q 189 859 226 860 q 124 867 151 858 q 103 895 97 875 q 167 935 110 915 q 233 971 203 946 q 288 1019 264 996 z "},"":{"ha":703,"x_min":0,"x_max":831,"o":"m 794 503 q 804 519 797 514 q 817 523 811 524 q 827 515 824 522 q 828 496 831 508 q 815 447 826 488 q 783 348 803 406 q 739 224 764 290 q 685 99 714 157 q 626 -3 657 40 q 567 -56 596 -46 q 544 -60 560 -60 q 487 -40 511 -60 q 444 10 463 -19 q 413 76 425 40 q 392 141 400 111 q 379 191 383 171 q 372 211 375 211 q 363 195 369 211 q 347 156 357 179 q 322 106 336 133 q 290 55 308 78 q 249 16 272 32 q 199 0 226 0 q 121 15 157 0 q 58 61 85 29 q 15 144 31 93 q 0 267 0 194 q 19 418 0 335 q 76 574 38 501 q 171 697 114 647 q 306 746 228 746 q 404 742 360 746 q 481 720 449 739 q 532 660 514 701 q 550 543 550 619 q 542 530 550 536 q 525 522 535 524 q 508 523 515 519 q 500 538 500 526 q 498 574 500 550 q 489 622 496 597 q 470 664 482 646 q 439 682 458 682 q 341 640 388 682 q 259 526 294 597 q 203 365 224 456 q 182 179 182 275 q 183 136 182 160 q 190 92 185 113 q 204 58 194 72 q 229 44 214 44 q 253 66 239 44 q 281 122 267 88 q 310 199 296 157 q 334 281 324 240 q 351 355 344 321 q 358 407 358 389 q 360 431 358 417 q 369 456 361 444 q 393 476 376 468 q 442 485 410 485 q 533 462 506 485 q 561 417 561 439 l 561 394 q 563 298 563 358 q 566 178 563 238 q 578 76 569 119 q 603 33 586 33 q 626 66 610 33 q 663 148 643 99 q 706 256 683 197 q 747 367 728 315 q 778 457 765 419 q 794 503 792 494 m 496 860 q 409 854 449 860 q 336 842 369 849 q 274 831 303 836 q 219 826 246 826 q 172 844 194 826 q 137 885 150 863 q 119 925 124 907 q 125 943 115 943 q 140 940 135 943 q 153 934 146 938 q 175 928 161 931 q 214 925 189 925 q 265 930 239 925 q 319 940 292 935 q 379 949 347 944 q 449 954 411 954 q 522 933 493 954 q 567 888 551 913 q 586 843 583 864 q 581 822 589 822 q 567 828 572 822 q 556 841 563 833 q 535 854 549 849 q 496 860 522 860 z "},"":{"ha":703,"x_min":0,"x_max":831,"o":"m 794 503 q 804 519 797 514 q 817 523 811 524 q 827 515 824 522 q 828 496 831 508 q 815 447 826 488 q 783 348 803 406 q 739 224 764 290 q 685 99 714 157 q 626 -3 657 40 q 567 -56 596 -46 q 544 -60 560 -60 q 487 -40 511 -60 q 444 10 463 -19 q 413 76 425 40 q 392 141 400 111 q 379 191 383 171 q 372 211 375 211 q 363 195 369 211 q 347 156 357 179 q 322 106 336 133 q 290 55 308 78 q 249 16 272 32 q 199 0 226 0 q 121 15 157 0 q 58 61 85 29 q 15 144 31 93 q 0 267 0 194 q 19 418 0 335 q 76 574 38 501 q 171 697 114 647 q 306 746 228 746 q 404 742 360 746 q 481 720 449 739 q 532 660 514 701 q 550 543 550 619 q 542 530 550 536 q 525 522 535 524 q 508 523 515 519 q 500 538 500 526 q 498 574 500 550 q 489 622 496 597 q 470 664 482 646 q 439 682 458 682 q 341 640 388 682 q 259 526 294 597 q 203 365 224 456 q 182 179 182 275 q 183 136 182 160 q 190 92 185 113 q 204 58 194 72 q 229 44 214 44 q 253 66 239 44 q 281 122 267 88 q 310 199 296 157 q 334 281 324 240 q 351 355 344 321 q 358 407 358 389 q 360 431 358 417 q 369 456 361 444 q 393 476 376 468 q 442 485 410 485 q 533 462 506 485 q 561 417 561 439 l 561 394 q 563 298 563 358 q 566 178 563 238 q 578 76 569 119 q 603 33 586 33 q 626 66 610 33 q 663 148 643 99 q 706 256 683 197 q 747 367 728 315 q 778 457 765 419 q 794 503 792 494 m 283 949 q 261 874 283 896 q 207 851 239 851 q 179 858 194 851 q 151 877 164 865 q 129 905 138 889 q 121 938 121 921 q 147 1000 121 979 q 197 1022 172 1021 q 226 1019 211 1024 q 254 1006 242 1015 q 275 981 267 996 q 283 949 283 967 m 581 949 q 571 903 581 922 q 546 874 561 885 q 512 857 531 863 q 476 851 493 851 q 453 863 464 851 q 435 890 443 874 q 423 926 428 907 q 418 963 418 946 q 444 1008 418 996 q 494 1022 469 1021 q 522 1019 507 1024 q 551 1006 538 1015 q 572 981 564 996 q 581 949 581 967 z "},"":{"ha":703,"x_min":0,"x_max":831,"o":"m 794 503 q 804 519 797 514 q 817 523 811 524 q 827 515 824 522 q 828 496 831 508 q 815 447 826 488 q 783 348 803 406 q 739 224 764 290 q 685 99 714 157 q 626 -3 657 40 q 567 -56 596 -46 q 544 -60 560 -60 q 487 -40 511 -60 q 444 10 463 -19 q 413 76 425 40 q 392 141 400 111 q 379 191 383 171 q 372 211 375 211 q 363 195 369 211 q 347 156 357 179 q 322 106 336 133 q 290 55 308 78 q 249 16 272 32 q 199 0 226 0 q 121 15 157 0 q 58 61 85 29 q 15 144 31 93 q 0 267 0 194 q 19 418 0 335 q 76 574 38 501 q 171 697 114 647 q 306 746 228 746 q 404 742 360 746 q 481 720 449 739 q 532 660 514 701 q 550 543 550 619 q 542 530 550 536 q 525 522 535 524 q 508 523 515 519 q 500 538 500 526 q 498 574 500 550 q 489 622 496 597 q 470 664 482 646 q 439 682 458 682 q 341 640 388 682 q 259 526 294 597 q 203 365 224 456 q 182 179 182 275 q 183 136 182 160 q 190 92 185 113 q 204 58 194 72 q 229 44 214 44 q 253 66 239 44 q 281 122 267 88 q 310 199 296 157 q 334 281 324 240 q 351 355 344 321 q 358 407 358 389 q 360 431 358 417 q 369 456 361 444 q 393 476 376 468 q 442 485 410 485 q 533 462 506 485 q 561 417 561 439 l 561 394 q 563 298 563 358 q 566 178 563 238 q 578 76 569 119 q 603 33 586 33 q 626 66 610 33 q 663 148 643 99 q 706 256 683 197 q 747 367 728 315 q 778 457 765 419 q 794 503 792 494 m 403 1163 q 466 1138 440 1163 q 492 1050 492 1113 q 483 988 492 1019 q 456 931 475 957 q 408 890 438 906 q 336 874 378 874 q 274 885 299 874 q 236 916 250 897 q 217 957 222 935 q 211 1000 211 979 q 215 1040 211 1019 q 227 1077 218 1060 q 251 1107 236 1094 q 290 1122 267 1119 q 339 1156 306 1150 q 403 1163 372 1163 m 379 903 q 405 919 392 903 q 428 961 418 936 q 442 1016 438 986 q 444 1071 447 1046 q 431 1113 442 1096 q 397 1129 419 1129 q 382 1120 386 1129 q 374 1099 378 1111 q 366 1074 371 1086 q 349 1056 361 1061 q 347 1004 349 1031 q 345 955 344 978 q 353 917 346 932 q 379 903 360 903 z "},"":{"ha":526,"x_min":-1,"x_max":619,"o":"m 588 421 q 597 434 592 431 q 608 435 603 438 q 617 426 614 433 q 615 408 619 419 q 604 372 613 401 q 580 301 596 342 q 540 214 564 260 q 482 129 515 168 q 405 65 449 90 q 307 40 361 40 q 177 69 235 40 q 80 144 119 99 q 19 245 40 190 q -1 353 -1 300 q 14 484 -1 421 q 51 600 29 547 q 99 692 74 653 q 146 750 125 731 q 200 777 167 768 q 267 787 233 786 q 332 783 301 788 q 379 771 363 779 q 431 712 411 756 q 451 610 451 668 q 406 444 451 500 q 292 388 360 388 q 240 393 267 388 q 190 406 213 399 q 199 304 186 354 q 233 215 211 254 q 283 152 254 176 q 340 128 311 128 q 419 148 385 128 q 481 199 454 168 q 527 265 508 229 q 559 334 546 301 q 578 391 572 367 q 588 421 585 415 m 326 667 q 276 647 299 667 q 238 596 254 628 q 210 522 221 564 q 193 435 199 481 q 269 426 238 415 q 322 462 301 436 q 353 523 343 488 q 363 590 363 558 q 353 644 363 622 q 326 667 344 667 m 94 996 q 113 1021 100 1008 q 140 1042 125 1033 q 170 1056 156 1051 q 196 1056 185 1060 q 222 1037 206 1053 q 258 1001 238 1021 q 305 963 279 982 q 360 935 331 944 q 423 895 417 915 q 403 867 429 875 q 338 859 375 858 q 256 875 300 860 q 197 903 226 885 q 143 941 167 922 q 106 975 119 960 q 94 996 92 990 z "},"":{"ha":526,"x_min":-1,"x_max":619,"o":"m 588 421 q 597 434 592 431 q 608 435 603 438 q 617 426 614 433 q 615 408 619 419 q 604 372 613 401 q 580 301 596 342 q 540 214 564 260 q 482 129 515 168 q 405 65 449 90 q 307 40 361 40 q 177 69 235 40 q 80 144 119 99 q 19 245 40 190 q -1 353 -1 300 q 14 484 -1 421 q 51 600 29 547 q 99 692 74 653 q 146 750 125 731 q 200 777 167 768 q 267 787 233 786 q 332 783 301 788 q 379 771 363 779 q 431 712 411 756 q 451 610 451 668 q 406 444 451 500 q 292 388 360 388 q 240 393 267 388 q 190 406 213 399 q 199 304 186 354 q 233 215 211 254 q 283 152 254 176 q 340 128 311 128 q 419 148 385 128 q 481 199 454 168 q 527 265 508 229 q 559 334 546 301 q 578 391 572 367 q 588 421 585 415 m 326 667 q 276 647 299 667 q 238 596 254 628 q 210 522 221 564 q 193 435 199 481 q 269 426 238 415 q 322 462 301 436 q 353 523 343 488 q 363 590 363 558 q 353 644 363 622 q 326 667 344 667 m 432 996 q 420 975 433 990 q 383 941 407 960 q 330 903 360 922 q 271 875 300 885 q 189 859 226 860 q 124 867 151 858 q 103 895 97 875 q 167 935 110 915 q 222 963 196 944 q 268 1001 247 982 q 305 1037 289 1021 q 331 1056 321 1053 q 356 1056 340 1060 q 386 1042 371 1051 q 414 1021 401 1033 q 432 996 426 1008 z "},"":{"ha":526,"x_min":-1,"x_max":619,"o":"m 588 421 q 597 434 592 431 q 608 435 603 438 q 617 426 614 433 q 615 408 619 419 q 604 372 613 401 q 580 301 596 342 q 540 214 564 260 q 482 129 515 168 q 405 65 449 90 q 307 40 361 40 q 177 69 235 40 q 80 144 119 99 q 19 245 40 190 q -1 353 -1 300 q 14 484 -1 421 q 51 600 29 547 q 99 692 74 653 q 146 750 125 731 q 200 777 167 768 q 267 787 233 786 q 332 783 301 788 q 379 771 363 779 q 431 712 411 756 q 451 610 451 668 q 406 444 451 500 q 292 388 360 388 q 240 393 267 388 q 190 406 213 399 q 199 304 186 354 q 233 215 211 254 q 283 152 254 176 q 340 128 311 128 q 419 148 385 128 q 481 199 454 168 q 527 265 508 229 q 559 334 546 301 q 578 391 572 367 q 588 421 585 415 m 326 667 q 276 647 299 667 q 238 596 254 628 q 210 522 221 564 q 193 435 199 481 q 269 426 238 415 q 322 462 301 436 q 353 523 343 488 q 363 590 363 558 q 353 644 363 622 q 326 667 344 667 m 200 1019 q 229 1044 215 1033 q 258 1056 243 1054 q 290 1049 272 1057 q 328 1019 307 1040 q 382 971 351 996 q 449 935 413 946 q 506 901 506 915 q 479 878 506 886 q 427 876 465 874 q 344 894 389 879 q 309 909 326 901 q 275 925 292 917 q 231 897 254 910 q 183 875 207 883 q 101 859 139 860 q 36 867 64 858 q 16 895 10 875 q 79 935 22 915 q 146 971 115 946 q 200 1019 176 996 z "},"":{"ha":526,"x_min":-1,"x_max":619,"o":"m 588 421 q 597 434 592 431 q 608 435 603 438 q 617 426 614 433 q 615 408 619 419 q 604 372 613 401 q 580 301 596 342 q 540 214 564 260 q 482 129 515 168 q 405 65 449 90 q 307 40 361 40 q 177 69 235 40 q 80 144 119 99 q 19 245 40 190 q -1 353 -1 300 q 14 484 -1 421 q 51 600 29 547 q 99 692 74 653 q 146 750 125 731 q 200 777 167 768 q 267 787 233 786 q 332 783 301 788 q 379 771 363 779 q 431 712 411 756 q 451 610 451 668 q 406 444 451 500 q 292 388 360 388 q 240 393 267 388 q 190 406 213 399 q 199 304 186 354 q 233 215 211 254 q 283 152 254 176 q 340 128 311 128 q 419 148 385 128 q 481 199 454 168 q 527 265 508 229 q 559 334 546 301 q 578 391 572 367 q 588 421 585 415 m 326 667 q 276 647 299 667 q 238 596 254 628 q 210 522 221 564 q 193 435 199 481 q 269 426 238 415 q 322 462 301 436 q 353 523 343 488 q 363 590 363 558 q 353 644 363 622 q 326 667 344 667 m 196 949 q 174 874 196 896 q 119 851 151 851 q 92 858 107 851 q 63 877 76 865 q 42 905 50 889 q 33 938 33 921 q 59 1000 33 979 q 110 1022 85 1021 q 139 1019 124 1024 q 167 1006 154 1015 q 188 981 179 996 q 196 949 196 967 m 493 949 q 483 903 493 922 q 458 874 474 885 q 424 857 443 863 q 389 851 406 851 q 366 863 376 851 q 348 890 356 874 q 335 926 340 907 q 331 963 331 946 q 356 1008 331 996 q 407 1022 382 1021 q 435 1019 419 1024 q 463 1006 450 1015 q 485 981 476 996 q 493 949 493 967 z "},"":{"ha":344,"x_min":1,"x_max":393,"o":"m 344 408 q 352 438 344 424 q 369 463 360 453 q 385 475 378 472 q 393 469 393 478 q 375 288 393 371 q 330 143 357 204 q 270 47 303 82 q 208 13 238 13 l 206 13 q 97 55 138 13 q 36 158 57 97 q 9 285 15 219 q 3 400 3 351 q 5 503 3 460 q 10 575 7 546 q 16 623 14 604 q 18 654 18 642 q 45 680 18 676 q 106 672 72 683 q 166 640 139 661 q 193 592 193 618 q 192 549 193 572 q 189 499 190 525 q 186 447 188 472 q 185 399 185 421 q 202 215 185 286 q 238 104 219 144 q 265 134 251 111 q 291 188 279 157 q 313 254 303 219 q 329 320 322 289 q 340 375 336 351 q 344 408 344 399 m 4 996 q 22 1021 10 1008 q 50 1042 35 1033 q 80 1056 65 1051 q 106 1056 94 1060 q 131 1037 115 1053 q 168 1001 147 1021 q 215 963 189 982 q 269 935 240 944 q 333 895 326 915 q 313 867 339 875 q 247 859 285 858 q 165 875 210 860 q 106 903 136 885 q 53 941 76 922 q 15 975 29 960 q 4 996 1 990 z "},"":{"ha":344,"x_min":3,"x_max":393,"o":"m 344 408 q 352 438 344 424 q 369 463 360 453 q 385 475 378 472 q 393 469 393 478 q 375 288 393 371 q 330 143 357 204 q 270 47 303 82 q 208 13 238 13 l 206 13 q 97 55 138 13 q 36 158 57 97 q 9 285 15 219 q 3 400 3 351 q 5 503 3 460 q 10 575 7 546 q 16 623 14 604 q 18 654 18 642 q 45 680 18 676 q 106 672 72 683 q 166 640 139 661 q 193 592 193 618 q 192 549 193 572 q 189 499 190 525 q 186 447 188 472 q 185 399 185 421 q 202 215 185 286 q 238 104 219 144 q 265 134 251 111 q 291 188 279 157 q 313 254 303 219 q 329 320 322 289 q 340 375 336 351 q 344 408 344 399 m 342 996 q 330 975 343 990 q 293 941 317 960 q 240 903 269 922 q 181 875 210 885 q 99 859 136 860 q 33 867 61 858 q 13 895 7 875 q 76 935 19 915 q 131 963 106 944 q 178 1001 157 982 q 215 1037 199 1021 q 240 1056 231 1053 q 265 1056 250 1060 q 296 1042 281 1051 q 324 1021 311 1033 q 342 996 336 1008 z "},"":{"ha":344,"x_min":-161,"x_max":393,"o":"m 344 408 q 352 438 344 424 q 369 463 360 453 q 385 475 378 472 q 393 469 393 478 q 375 288 393 371 q 330 143 357 204 q 270 47 303 82 q 208 13 238 13 l 206 13 q 97 55 138 13 q 36 158 57 97 q 9 285 15 219 q 3 400 3 351 q 5 503 3 460 q 10 575 7 546 q 16 623 14 604 q 18 654 18 642 q 45 680 18 676 q 106 672 72 683 q 166 640 139 661 q 193 592 193 618 q 192 549 193 572 q 189 499 190 525 q 186 447 188 472 q 185 399 185 421 q 202 215 185 286 q 238 104 219 144 q 265 134 251 111 q 291 188 279 157 q 313 254 303 219 q 329 320 322 289 q 340 375 336 351 q 344 408 344 399 m 29 1019 q 58 1044 44 1033 q 87 1056 72 1054 q 119 1049 101 1057 q 157 1019 136 1040 q 211 971 181 996 q 278 935 242 946 q 335 901 335 915 q 308 878 335 886 q 256 876 294 874 q 174 894 218 879 q 138 909 156 901 q 104 925 121 917 q 60 897 83 910 q 13 875 36 883 q -69 859 -32 860 q -135 867 -107 858 q -155 895 -161 875 q -92 935 -149 915 q -25 971 -56 946 q 29 1019 6 996 z "},"":{"ha":344,"x_min":-142,"x_max":393,"o":"m 344 408 q 352 438 344 424 q 369 463 360 453 q 385 475 378 472 q 393 469 393 478 q 375 288 393 371 q 330 143 357 204 q 270 47 303 82 q 208 13 238 13 l 206 13 q 97 55 138 13 q 36 158 57 97 q 9 285 15 219 q 3 400 3 351 q 5 503 3 460 q 10 575 7 546 q 16 623 14 604 q 18 654 18 642 q 45 680 18 676 q 106 672 72 683 q 166 640 139 661 q 193 592 193 618 q 192 549 193 572 q 189 499 190 525 q 186 447 188 472 q 185 399 185 421 q 202 215 185 286 q 238 104 219 144 q 265 134 251 111 q 291 188 279 157 q 313 254 303 219 q 329 320 322 289 q 340 375 336 351 q 344 408 344 399 m 18 894 q -4 821 18 843 q -57 799 -25 799 q -84 806 -69 799 q -112 824 -99 813 q -133 851 -125 836 q -141 883 -141 867 q -116 944 -141 924 q -66 966 -91 965 q -38 963 -53 967 q -10 950 -23 959 q 10 926 2 940 q 18 894 18 912 m 309 894 q 300 850 309 868 q 275 821 290 832 q 242 805 260 810 q 207 799 223 799 q 185 810 195 799 q 167 837 175 821 q 155 872 160 853 q 150 908 150 891 q 175 952 150 940 q 225 966 200 965 q 252 963 237 967 q 280 950 267 959 q 301 926 293 940 q 309 894 309 912 z "},"":{"ha":692,"x_min":-14,"x_max":643,"o":"m 643 686 q 638 636 643 669 q 624 560 632 603 q 608 468 617 517 q 591 374 599 419 q 578 288 583 328 q 572 221 572 247 q 576 101 572 142 q 585 39 581 60 q 594 8 590 18 q 599 -17 599 -1 q 566 -32 599 -32 q 494 -8 533 -32 q 422 67 454 15 q 389 207 389 119 q 394 327 389 265 q 406 448 399 389 q 422 560 413 507 q 438 653 431 613 q 403 558 422 614 q 365 437 385 501 q 324 306 344 372 q 285 183 304 240 q 248 81 265 125 q 217 17 231 36 q 206 3 215 7 l 201 3 q 185 0 193 0 q 101 35 135 0 q 47 124 68 71 q 17 239 26 176 q 3 356 7 301 q 1 449 0 411 q 1 493 1 488 q -1 506 1 503 q -6 513 -3 510 q -12 520 -10 517 q -14 533 -14 524 q 18 549 -14 543 q 88 551 50 554 q 158 531 126 547 q 190 482 190 515 q 190 441 190 471 q 188 376 189 411 q 185 307 186 340 q 185 257 185 274 q 187 206 185 229 q 192 161 189 182 q 223 263 204 206 q 263 381 242 319 q 310 504 285 443 q 360 617 335 565 q 413 707 386 669 q 464 758 439 744 q 475 764 467 761 q 483 766 479 765 q 490 767 486 767 q 503 767 497 767 q 517 765 510 767 q 556 758 549 765 q 616 730 589 749 q 643 686 643 711 m 490 860 q 403 854 443 860 q 331 842 364 849 q 269 831 297 836 q 214 826 240 826 q 167 844 189 826 q 131 885 144 863 q 114 925 118 907 q 119 943 110 943 q 135 940 129 943 q 148 934 140 938 q 169 928 156 931 q 208 925 183 925 q 260 930 233 925 q 314 940 286 935 q 374 949 342 944 q 443 954 406 954 q 517 933 488 954 q 562 888 546 913 q 581 843 578 864 q 575 822 583 822 q 562 828 567 822 q 550 841 557 833 q 530 854 543 849 q 490 860 517 860 z "},"":{"ha":540,"x_min":3,"x_max":458,"o":"m 313 738 q 369 722 343 738 q 415 672 396 707 q 447 583 435 638 q 458 449 458 528 q 444 288 458 369 q 400 142 431 207 q 322 35 369 76 q 206 -6 274 -6 q 105 26 144 -6 q 42 105 65 57 q 11 210 19 153 q 3 321 3 268 q 8 422 3 369 q 28 518 14 474 q 67 594 42 563 q 129 635 92 626 q 163 690 142 669 q 208 722 183 711 q 260 735 233 732 q 313 738 288 738 m 275 68 q 318 111 297 68 q 354 219 339 154 q 377 360 369 285 q 381 501 385 436 q 358 610 376 567 q 303 653 340 653 q 279 629 286 653 q 267 574 272 606 q 253 511 261 543 q 226 463 244 479 q 222 331 226 400 q 219 203 218 261 q 231 106 219 144 q 275 68 243 68 m 101 996 q 119 1021 107 1008 q 147 1042 132 1033 q 177 1056 163 1051 q 203 1056 192 1060 q 228 1037 213 1053 q 265 1001 244 1021 q 312 963 286 982 q 367 935 338 944 q 430 895 424 915 q 410 867 436 875 q 344 859 382 858 q 263 875 307 860 q 203 903 233 885 q 150 941 174 922 q 113 975 126 960 q 101 996 99 990 z "},"":{"ha":540,"x_min":3,"x_max":458,"o":"m 313 738 q 369 722 343 738 q 415 672 396 707 q 447 583 435 638 q 458 449 458 528 q 444 288 458 369 q 400 142 431 207 q 322 35 369 76 q 206 -6 274 -6 q 105 26 144 -6 q 42 105 65 57 q 11 210 19 153 q 3 321 3 268 q 8 422 3 369 q 28 518 14 474 q 67 594 42 563 q 129 635 92 626 q 163 690 142 669 q 208 722 183 711 q 260 735 233 732 q 313 738 288 738 m 275 68 q 318 111 297 68 q 354 219 339 154 q 377 360 369 285 q 381 501 385 436 q 358 610 376 567 q 303 653 340 653 q 279 629 286 653 q 267 574 272 606 q 253 511 261 543 q 226 463 244 479 q 222 331 226 400 q 219 203 218 261 q 231 106 219 144 q 275 68 243 68 m 439 996 q 427 975 440 990 q 390 941 414 960 q 337 903 367 922 q 278 875 307 885 q 196 859 233 860 q 131 867 158 858 q 110 895 104 875 q 174 935 117 915 q 228 963 203 944 q 275 1001 254 982 q 312 1037 296 1021 q 338 1056 328 1053 q 363 1056 347 1060 q 393 1042 378 1051 q 421 1021 408 1033 q 439 996 433 1008 z "},"":{"ha":540,"x_min":3,"x_max":513,"o":"m 313 738 q 369 722 343 738 q 415 672 396 707 q 447 583 435 638 q 458 449 458 528 q 444 288 458 369 q 400 142 431 207 q 322 35 369 76 q 206 -6 274 -6 q 105 26 144 -6 q 42 105 65 57 q 11 210 19 153 q 3 321 3 268 q 8 422 3 369 q 28 518 14 474 q 67 594 42 563 q 129 635 92 626 q 163 690 142 669 q 208 722 183 711 q 260 735 233 732 q 313 738 288 738 m 275 68 q 318 111 297 68 q 354 219 339 154 q 377 360 369 285 q 381 501 385 436 q 358 610 376 567 q 303 653 340 653 q 279 629 286 653 q 267 574 272 606 q 253 511 261 543 q 226 463 244 479 q 222 331 226 400 q 219 203 218 261 q 231 106 219 144 q 275 68 243 68 m 207 1019 q 236 1044 222 1033 q 265 1056 250 1054 q 297 1049 279 1057 q 335 1019 314 1040 q 389 971 358 996 q 456 935 419 946 q 513 901 513 915 q 486 878 513 886 q 434 876 472 874 q 351 894 396 879 q 316 909 333 901 q 282 925 299 917 q 238 897 261 910 q 190 875 214 883 q 108 859 146 860 q 43 867 71 858 q 23 895 17 875 q 86 935 29 915 q 153 971 122 946 q 207 1019 183 996 z "},"":{"ha":540,"x_min":3,"x_max":508,"o":"m 313 738 q 369 722 343 738 q 415 672 396 707 q 447 583 435 638 q 458 449 458 528 q 444 288 458 369 q 400 142 431 207 q 322 35 369 76 q 206 -6 274 -6 q 105 26 144 -6 q 42 105 65 57 q 11 210 19 153 q 3 321 3 268 q 8 422 3 369 q 28 518 14 474 q 67 594 42 563 q 129 635 92 626 q 163 690 142 669 q 208 722 183 711 q 260 735 233 732 q 313 738 288 738 m 275 68 q 318 111 297 68 q 354 219 339 154 q 377 360 369 285 q 381 501 385 436 q 358 610 376 567 q 303 653 340 653 q 279 629 286 653 q 267 574 272 606 q 253 511 261 543 q 226 463 244 479 q 222 331 226 400 q 219 203 218 261 q 231 106 219 144 q 275 68 243 68 m 415 860 q 328 854 368 860 q 256 842 289 849 q 194 831 222 836 q 139 826 165 826 q 92 844 114 826 q 56 885 69 863 q 39 925 43 907 q 44 943 35 943 q 60 940 54 943 q 73 934 65 938 q 94 928 81 931 q 133 925 108 925 q 185 930 158 925 q 239 940 211 935 q 299 949 267 944 q 368 954 331 954 q 442 933 413 954 q 487 888 471 913 q 506 843 503 864 q 500 822 508 822 q 487 828 492 822 q 475 841 482 833 q 455 854 468 849 q 415 860 442 860 z "},"":{"ha":540,"x_min":3,"x_max":500,"o":"m 313 738 q 369 722 343 738 q 415 672 396 707 q 447 583 435 638 q 458 449 458 528 q 444 288 458 369 q 400 142 431 207 q 322 35 369 76 q 206 -6 274 -6 q 105 26 144 -6 q 42 105 65 57 q 11 210 19 153 q 3 321 3 268 q 8 422 3 369 q 28 518 14 474 q 67 594 42 563 q 129 635 92 626 q 163 690 142 669 q 208 722 183 711 q 260 735 233 732 q 313 738 288 738 m 275 68 q 318 111 297 68 q 354 219 339 154 q 377 360 369 285 q 381 501 385 436 q 358 610 376 567 q 303 653 340 653 q 279 629 286 653 q 267 574 272 606 q 253 511 261 543 q 226 463 244 479 q 222 331 226 400 q 219 203 218 261 q 231 106 219 144 q 275 68 243 68 m 203 949 q 181 874 203 896 q 126 851 158 851 q 99 858 114 851 q 70 877 83 865 q 49 905 57 889 q 40 938 40 921 q 66 1000 40 979 q 117 1022 92 1021 q 146 1019 131 1024 q 174 1006 161 1015 q 194 981 186 996 q 203 949 203 967 m 500 949 q 490 903 500 922 q 465 874 481 885 q 431 857 450 863 q 396 851 413 851 q 373 863 383 851 q 355 890 363 874 q 342 926 347 907 q 338 963 338 946 q 363 1008 338 996 q 414 1022 389 1021 q 442 1019 426 1024 q 470 1006 457 1015 q 492 981 483 996 q 500 949 500 967 z "},"":{"ha":579,"x_min":-4,"x_max":514,"o":"m 489 218 q 497 117 489 157 q 509 55 504 78 q 511 22 514 32 q 488 13 508 13 q 420 24 454 13 q 359 63 386 36 q 315 131 332 89 q 297 231 297 172 q 297 263 297 246 q 299 299 297 279 l 193 33 q 201 14 197 22 q 204 -6 204 6 q 189 -18 204 -15 q 150 -15 174 -21 q 100 8 126 -8 q 50 53 74 24 q 11 128 26 83 q -4 233 -4 172 q 1 359 -4 290 q 13 492 7 428 q 25 606 19 556 q 31 674 31 656 q 26 699 31 686 q 19 724 21 713 q 23 742 17 735 q 53 749 29 749 q 109 741 81 749 q 161 721 138 733 q 200 692 185 708 q 215 657 215 675 q 207 599 215 638 q 189 506 199 560 q 171 384 179 451 q 163 243 163 317 q 167 142 163 181 q 178 78 171 103 q 204 140 188 101 q 238 224 221 179 q 274 317 256 269 q 304 407 292 365 q 308 476 307 446 q 310 518 310 507 q 317 558 310 538 q 349 579 324 579 q 388 576 361 579 q 442 565 415 574 q 490 540 469 556 q 511 499 511 524 q 508 465 511 482 q 500 418 504 447 q 492 342 496 389 q 489 218 489 294 m 121 996 q 139 1021 126 1008 q 167 1042 151 1033 q 197 1056 182 1051 q 222 1056 211 1060 q 248 1037 232 1053 q 285 1001 264 1021 q 331 963 306 982 q 386 935 357 944 q 449 895 443 915 q 429 867 456 875 q 364 859 401 858 q 282 875 326 860 q 223 903 253 885 q 169 941 193 922 q 132 975 146 960 q 121 996 118 990 z "},"":{"ha":579,"x_min":-4,"x_max":514,"o":"m 489 218 q 497 117 489 157 q 509 55 504 78 q 511 22 514 32 q 488 13 508 13 q 420 24 454 13 q 359 63 386 36 q 315 131 332 89 q 297 231 297 172 q 297 263 297 246 q 299 299 297 279 l 193 33 q 201 14 197 22 q 204 -6 204 6 q 189 -18 204 -15 q 150 -15 174 -21 q 100 8 126 -8 q 50 53 74 24 q 11 128 26 83 q -4 233 -4 172 q 1 359 -4 290 q 13 492 7 428 q 25 606 19 556 q 31 674 31 656 q 26 699 31 686 q 19 724 21 713 q 23 742 17 735 q 53 749 29 749 q 109 741 81 749 q 161 721 138 733 q 200 692 185 708 q 215 657 215 675 q 207 599 215 638 q 189 506 199 560 q 171 384 179 451 q 163 243 163 317 q 167 142 163 181 q 178 78 171 103 q 204 140 188 101 q 238 224 221 179 q 274 317 256 269 q 304 407 292 365 q 308 476 307 446 q 310 518 310 507 q 317 558 310 538 q 349 579 324 579 q 388 576 361 579 q 442 565 415 574 q 490 540 469 556 q 511 499 511 524 q 508 465 511 482 q 500 418 504 447 q 492 342 496 389 q 489 218 489 294 m 458 996 q 447 975 460 990 q 410 941 433 960 q 356 903 386 922 q 297 875 326 885 q 215 859 253 860 q 150 867 178 858 q 130 895 124 875 q 193 935 136 915 q 248 963 222 944 q 294 1001 274 982 q 331 1037 315 1021 q 357 1056 347 1053 q 382 1056 367 1060 q 413 1042 397 1051 q 440 1021 428 1033 q 458 996 453 1008 z "},"":{"ha":579,"x_min":-4,"x_max":532,"o":"m 489 218 q 497 117 489 157 q 509 55 504 78 q 511 22 514 32 q 488 13 508 13 q 420 24 454 13 q 359 63 386 36 q 315 131 332 89 q 297 231 297 172 q 297 263 297 246 q 299 299 297 279 l 193 33 q 201 14 197 22 q 204 -6 204 6 q 189 -18 204 -15 q 150 -15 174 -21 q 100 8 126 -8 q 50 53 74 24 q 11 128 26 83 q -4 233 -4 172 q 1 359 -4 290 q 13 492 7 428 q 25 606 19 556 q 31 674 31 656 q 26 699 31 686 q 19 724 21 713 q 23 742 17 735 q 53 749 29 749 q 109 741 81 749 q 161 721 138 733 q 200 692 185 708 q 215 657 215 675 q 207 599 215 638 q 189 506 199 560 q 171 384 179 451 q 163 243 163 317 q 167 142 163 181 q 178 78 171 103 q 204 140 188 101 q 238 224 221 179 q 274 317 256 269 q 304 407 292 365 q 308 476 307 446 q 310 518 310 507 q 317 558 310 538 q 349 579 324 579 q 388 576 361 579 q 442 565 415 574 q 490 540 469 556 q 511 499 511 524 q 508 465 511 482 q 500 418 504 447 q 492 342 496 389 q 489 218 489 294 m 226 1019 q 256 1044 242 1033 q 284 1056 269 1054 q 316 1049 299 1057 q 354 1019 333 1040 q 408 971 378 996 q 475 935 439 946 q 532 901 532 915 q 506 878 532 886 q 453 876 492 874 q 371 894 415 879 q 335 909 353 901 q 301 925 318 917 q 257 897 281 910 q 210 875 233 883 q 128 859 165 860 q 63 867 90 858 q 42 895 36 875 q 106 935 49 915 q 172 971 142 946 q 226 1019 203 996 z "},"":{"ha":579,"x_min":-4,"x_max":519,"o":"m 489 218 q 497 117 489 157 q 509 55 504 78 q 511 22 514 32 q 488 13 508 13 q 420 24 454 13 q 359 63 386 36 q 315 131 332 89 q 297 231 297 172 q 297 263 297 246 q 299 299 297 279 l 193 33 q 201 14 197 22 q 204 -6 204 6 q 189 -18 204 -15 q 150 -15 174 -21 q 100 8 126 -8 q 50 53 74 24 q 11 128 26 83 q -4 233 -4 172 q 1 359 -4 290 q 13 492 7 428 q 25 606 19 556 q 31 674 31 656 q 26 699 31 686 q 19 724 21 713 q 23 742 17 735 q 53 749 29 749 q 109 741 81 749 q 161 721 138 733 q 200 692 185 708 q 215 657 215 675 q 207 599 215 638 q 189 506 199 560 q 171 384 179 451 q 163 243 163 317 q 167 142 163 181 q 178 78 171 103 q 204 140 188 101 q 238 224 221 179 q 274 317 256 269 q 304 407 292 365 q 308 476 307 446 q 310 518 310 507 q 317 558 310 538 q 349 579 324 579 q 388 576 361 579 q 442 565 415 574 q 490 540 469 556 q 511 499 511 524 q 508 465 511 482 q 500 418 504 447 q 492 342 496 389 q 489 218 489 294 m 222 949 q 200 874 222 896 q 146 851 178 851 q 118 858 133 851 q 90 877 103 865 q 68 905 76 889 q 60 938 60 921 q 85 1000 60 979 q 136 1022 111 1021 q 165 1019 150 1024 q 193 1006 181 1015 q 214 981 206 996 q 222 949 222 967 m 519 949 q 510 903 519 922 q 485 874 500 885 q 451 857 469 863 q 415 851 432 851 q 392 863 403 851 q 374 890 382 874 q 362 926 367 907 q 357 963 357 946 q 383 1008 357 996 q 433 1022 408 1021 q 461 1019 446 1024 q 490 1006 476 1015 q 511 981 503 996 q 519 949 519 967 z "},"":{"ha":571,"x_min":-69,"x_max":508,"o":"m 499 596 q 503 474 499 558 q 508 239 508 389 q 474 -1 508 114 q 382 -201 439 -115 q 251 -333 325 -286 q 96 -372 176 -381 q 24 -354 56 -368 q -28 -323 -7 -340 q -59 -286 -49 -306 q -68 -251 -69 -267 q -56 -238 -67 -236 q -27 -249 -44 -240 q 15 -270 -10 -258 q 68 -285 39 -282 q 142 -262 97 -287 q 231 -181 188 -236 q 305 -43 274 -126 q 336 151 336 40 q 335 265 336 203 q 333 390 335 328 q 311 291 325 349 q 281 177 297 233 q 246 75 264 121 q 210 13 228 29 q 199 4 208 7 q 196 3 197 4 q 192 3 194 3 q 140 11 172 0 q 77 51 108 22 q 24 131 46 81 q 1 256 1 181 q 7 382 1 313 q 19 515 13 451 q 32 628 26 579 q 38 696 38 678 q 33 722 38 708 q 26 747 28 735 q 30 765 24 758 q 60 772 36 772 q 115 765 86 772 q 168 744 144 757 q 207 715 192 732 q 222 679 222 699 q 214 621 222 660 q 195 528 206 582 q 176 407 185 474 q 168 265 168 340 q 174 150 168 192 q 189 83 181 108 q 209 147 196 106 q 238 240 222 189 q 271 345 254 290 q 301 451 288 400 q 322 541 314 501 q 331 601 331 581 l 331 613 q 326 638 331 625 q 319 663 321 651 q 323 682 317 675 q 353 689 329 689 q 406 681 379 689 q 453 661 432 674 q 486 632 474 649 q 499 596 499 615 m 454 996 q 442 975 456 990 q 406 941 429 960 q 352 903 382 922 q 293 875 322 885 q 211 859 249 860 q 146 867 174 858 q 126 895 119 875 q 189 935 132 915 q 244 963 218 944 q 290 1001 269 982 q 327 1037 311 1021 q 353 1056 343 1053 q 378 1056 363 1060 q 408 1042 393 1051 q 436 1021 424 1033 q 454 996 449 1008 z "},"":{"ha":571,"x_min":-69,"x_max":515,"o":"m 499 596 q 503 474 499 558 q 508 239 508 389 q 474 -1 508 114 q 382 -201 439 -115 q 251 -333 325 -286 q 96 -372 176 -381 q 24 -354 56 -368 q -28 -323 -7 -340 q -59 -286 -49 -306 q -68 -251 -69 -267 q -56 -238 -67 -236 q -27 -249 -44 -240 q 15 -270 -10 -258 q 68 -285 39 -282 q 142 -262 97 -287 q 231 -181 188 -236 q 305 -43 274 -126 q 336 151 336 40 q 335 265 336 203 q 333 390 335 328 q 311 291 325 349 q 281 177 297 233 q 246 75 264 121 q 210 13 228 29 q 199 4 208 7 q 196 3 197 4 q 192 3 194 3 q 140 11 172 0 q 77 51 108 22 q 24 131 46 81 q 1 256 1 181 q 7 382 1 313 q 19 515 13 451 q 32 628 26 579 q 38 696 38 678 q 33 722 38 708 q 26 747 28 735 q 30 765 24 758 q 60 772 36 772 q 115 765 86 772 q 168 744 144 757 q 207 715 192 732 q 222 679 222 699 q 214 621 222 660 q 195 528 206 582 q 176 407 185 474 q 168 265 168 340 q 174 150 168 192 q 189 83 181 108 q 209 147 196 106 q 238 240 222 189 q 271 345 254 290 q 301 451 288 400 q 322 541 314 501 q 331 601 331 581 l 331 613 q 326 638 331 625 q 319 663 321 651 q 323 682 317 675 q 353 689 329 689 q 406 681 379 689 q 453 661 432 674 q 486 632 474 649 q 499 596 499 615 m 218 949 q 196 874 218 896 q 142 851 174 851 q 114 858 129 851 q 85 877 99 865 q 64 905 72 889 q 56 938 56 921 q 81 1000 56 979 q 132 1022 107 1021 q 161 1019 146 1024 q 189 1006 176 1015 q 210 981 201 996 q 218 949 218 967 m 515 949 q 506 903 515 922 q 481 874 496 885 q 447 857 465 863 q 411 851 428 851 q 388 863 399 851 q 370 890 378 874 q 358 926 363 907 q 353 963 353 946 q 378 1008 353 996 q 429 1022 404 1021 q 457 1019 442 1024 q 485 1006 472 1015 q 507 981 499 996 q 515 949 515 967 z "},"":{"ha":647,"x_min":35,"x_max":531,"o":"m 225 913 q 171 961 201 936 q 104 997 140 986 q 41 1036 47 1015 q 61 1065 35 1057 q 126 1073 89 1074 q 208 1057 164 1072 q 256 1035 232 1049 q 300 1007 279 1022 q 334 1023 317 1015 q 369 1038 351 1031 q 452 1056 414 1053 q 504 1054 490 1058 q 531 1031 531 1046 q 474 997 531 1015 q 407 961 438 986 q 353 913 376 936 q 315 883 332 892 q 283 876 297 875 q 254 888 268 878 q 225 913 240 897 z "},"":{"ha":968,"x_min":-310,"x_max":2600,"o":"m 2554 -342 q 2585 -374 2572 -342 q 2599 -453 2599 -406 q 2583 -556 2600 -500 q 2525 -658 2567 -611 q 2413 -737 2483 -706 q 2235 -769 2342 -769 q 2069 -740 2165 -769 q 1858 -661 1974 -711 q 1611 -546 1742 -611 q 1344 -408 1481 -481 q 1068 -260 1207 -335 q 797 -118 929 -186 q 542 7 664 -50 q 319 100 421 64 q 206 -3 261 43 q 99 -85 150 -50 q 3 -138 47 -119 q -78 -157 -42 -157 q -175 -129 -125 -157 q -259 -60 -225 -101 q -301 28 -293 -19 q -276 117 -310 76 q -156 186 -242 158 q 88 214 -69 214 l 126 214 q 268 363 193 281 q 422 538 343 446 q 203 563 274 547 q 132 590 132 579 q 159 597 132 594 q 233 601 186 599 q 344 603 281 603 q 479 604 407 604 q 684 848 586 729 q 858 1056 782 967 q 714 1063 785 1056 q 576 1077 643 1069 q 444 1091 508 1085 q 321 1097 381 1097 q 199 1092 247 1097 q 119 1078 150 1086 q 72 1060 89 1069 q 47 1043 56 1051 q 31 1029 38 1035 q 14 1024 24 1024 q -8 1043 -6 1024 q 22 1087 -10 1063 q 125 1131 53 1111 q 328 1150 197 1150 q 577 1155 469 1150 q 764 1167 685 1160 q 895 1180 843 1174 q 979 1190 947 1186 q 1014 1214 1006 1214 q 1053 1197 1036 1214 q 1081 1157 1071 1181 q 1097 1108 1092 1133 q 1103 1065 1103 1082 q 1077 1018 1103 1058 q 1007 915 1051 978 q 901 772 963 853 q 768 601 840 690 q 924 598 850 600 q 1055 593 999 596 q 1144 587 1111 590 q 1178 579 1178 583 q 1060 548 1178 563 q 710 531 943 533 q 553 347 635 439 q 390 171 472 254 q 719 65 547 132 q 1065 -78 890 -1 q 1413 -234 1240 -156 q 1743 -376 1585 -312 q 2040 -481 1901 -440 q 2285 -521 2178 -521 q 2375 -508 2339 -521 q 2435 -474 2411 -494 q 2474 -431 2460 -454 q 2501 -388 2489 -408 q 2524 -355 2513 -368 q 2554 -342 2536 -342 m -110 42 q -37 72 -82 42 q 63 153 7 101 q -99 133 -42 150 q -175 95 -157 115 q -175 58 -193 75 q -110 42 -157 42 m 535 1289 q 481 1338 511 1313 q 414 1374 450 1363 q 351 1413 357 1392 q 371 1442 344 1433 q 436 1449 399 1450 q 518 1433 474 1449 q 565 1412 542 1425 q 610 1383 589 1399 q 644 1399 626 1392 q 679 1414 661 1407 q 762 1432 724 1429 q 814 1431 800 1435 q 840 1407 840 1422 q 783 1374 840 1392 q 717 1338 747 1363 q 663 1289 686 1313 q 624 1260 642 1268 q 592 1253 607 1251 q 564 1264 578 1254 q 535 1289 550 1274 z "},"":{"ha":674,"x_min":-6,"x_max":632,"o":"m 621 92 q 629 62 626 85 q 631 14 632 39 q 625 -32 631 -11 q 607 -54 619 -53 q 576 -34 596 -56 q 523 11 557 -12 q 438 52 489 35 q 311 60 386 69 q 228 45 261 53 q 175 28 196 38 q 135 6 156 14 q 92 -1 114 -1 q 44 27 68 -1 q 8 90 21 56 q -4 153 -6 125 q 26 182 -3 182 q 90 205 58 182 q 153 265 122 228 q 213 350 183 301 q 272 450 243 399 q 329 552 301 501 q 385 646 357 603 q 242 638 317 639 q 104 653 168 638 q 21 680 47 665 q -3 704 -6 694 q 27 716 -1 714 q 106 706 56 718 q 219 699 156 694 q 338 715 282 704 q 469 749 403 728 l 471 747 q 517 765 496 765 q 533 753 521 765 q 558 722 544 740 q 583 682 571 704 q 602 642 596 660 q 606 611 608 624 q 589 599 604 599 q 512 549 550 599 q 434 427 474 500 q 353 272 394 354 q 265 124 311 189 q 287 128 276 126 q 310 132 297 129 q 428 143 378 140 q 515 141 478 146 q 576 124 551 136 q 621 92 601 113 m 250 882 q 196 931 226 906 q 129 967 165 956 q 66 1006 72 985 q 86 1035 60 1026 q 151 1042 114 1043 q 233 1026 189 1042 q 281 1005 257 1018 q 325 976 304 992 q 359 992 342 985 q 394 1007 376 1000 q 477 1025 439 1022 q 529 1024 515 1028 q 556 1000 556 1015 q 499 967 556 985 q 432 931 463 956 q 378 882 401 906 q 340 853 357 861 q 308 846 322 844 q 279 857 293 847 q 250 882 265 867 z "},"_":{"ha":1097,"x_min":14,"x_max":1051,"o":"m 996 -112 q 876 -125 949 -119 q 718 -135 804 -131 q 539 -142 632 -139 q 360 -145 446 -144 q 199 -144 274 -146 q 78 -139 125 -143 q 28 -119 42 -139 q 17 -77 14 -100 q 42 -35 21 -54 q 99 -15 63 -15 q 226 -22 153 -19 q 380 -25 299 -24 q 547 -27 461 -26 q 713 -27 632 -28 q 865 -25 793 -26 q 990 -21 936 -24 q 1032 -32 1017 -19 q 1049 -61 1047 -44 q 1039 -93 1051 -78 q 996 -112 1026 -108 z "},"":{"ha":988,"x_min":-17,"x_max":944,"o":"m 700 1364 q 784 1341 747 1364 q 847 1284 821 1318 q 890 1210 874 1250 q 910 1135 906 1169 q 909 1078 915 1101 q 886 1056 903 1056 q 854 1069 874 1056 q 808 1099 835 1083 q 747 1129 781 1115 q 671 1143 713 1143 q 537 1113 608 1143 q 398 1039 465 1083 q 272 943 331 994 q 179 847 214 892 q 138 773 144 803 q 167 743 131 743 q 230 758 190 743 q 324 790 269 772 q 449 823 379 808 q 604 838 518 838 q 783 813 717 838 q 886 751 850 789 q 933 669 922 714 q 944 583 944 624 q 910 401 944 488 q 817 240 875 314 q 685 108 760 167 q 531 8 611 49 q 372 -56 451 -33 q 224 -78 292 -78 q 148 -62 190 -78 q 69 -16 106 -47 q 8 62 33 15 q -17 171 -17 108 q -3 219 -17 204 q 28 232 11 233 q 58 215 44 231 q 72 174 72 200 q 85 134 72 150 q 118 109 99 118 q 159 97 138 100 q 196 93 181 93 q 292 113 238 93 q 403 166 346 132 q 515 247 460 200 q 613 347 569 293 q 682 458 656 400 q 708 574 708 515 q 704 647 708 613 q 688 706 700 681 q 653 747 675 732 q 594 761 631 761 q 438 742 511 761 q 307 699 364 722 q 212 658 250 676 q 160 639 174 639 q 105 651 132 639 q 57 684 78 664 q 23 728 36 704 q 10 774 10 751 q 42 894 10 829 q 129 1026 75 960 q 254 1152 183 1092 q 401 1260 325 1213 q 555 1335 478 1307 q 700 1364 632 1364 m 425 1474 q 371 1522 401 1497 q 304 1558 340 1547 q 241 1597 247 1576 q 261 1626 235 1618 q 326 1634 289 1635 q 408 1618 364 1633 q 456 1597 432 1610 q 500 1568 479 1583 q 534 1584 517 1576 q 569 1599 551 1592 q 652 1617 614 1614 q 704 1615 690 1619 q 731 1592 731 1607 q 674 1558 731 1576 q 607 1522 638 1547 q 553 1474 576 1497 q 515 1444 532 1453 q 483 1438 497 1436 q 454 1449 468 1439 q 425 1474 440 1458 z "},"":{"ha":526,"x_min":1,"x_max":506,"o":"m 1 432 q 22 536 1 478 q 75 647 43 594 q 147 735 107 699 q 224 771 186 771 q 304 771 261 771 q 383 764 347 771 q 442 737 418 757 q 465 678 465 717 q 444 597 465 639 q 395 521 422 556 q 342 464 368 486 q 308 442 317 442 q 303 472 299 442 q 313 540 307 503 q 324 607 319 576 q 319 638 328 638 q 268 617 293 638 q 222 567 243 597 q 188 502 201 538 q 169 437 174 467 q 170 387 164 407 q 197 367 176 367 q 228 366 206 367 q 278 363 250 365 q 335 353 306 360 q 390 333 365 346 q 430 299 414 319 q 446 247 446 278 q 429 181 446 217 q 385 109 413 144 q 324 40 358 74 q 256 -19 290 7 q 192 -60 222 -44 q 140 -75 161 -75 q 85 -64 110 -75 q 47 -39 61 -53 q 30 -14 32 -25 q 42 -3 28 -3 q 84 13 58 -3 q 138 52 110 28 q 196 106 167 76 q 248 165 225 136 q 285 217 271 193 q 300 253 300 240 q 150 258 217 243 q 95 276 122 264 q 47 309 68 289 q 14 360 26 329 q 1 432 1 390 m 200 913 q 146 961 176 936 q 79 997 115 986 q 16 1036 22 1015 q 36 1065 10 1057 q 101 1073 64 1074 q 183 1057 139 1072 q 231 1035 207 1049 q 275 1007 254 1022 q 309 1023 292 1015 q 344 1038 326 1031 q 427 1056 389 1053 q 479 1054 465 1058 q 506 1031 506 1046 q 449 997 506 1015 q 382 961 413 986 q 328 913 351 936 q 290 883 307 892 q 258 876 272 875 q 229 888 243 878 q 200 913 215 897 z "},"":{"ha":875,"x_min":-21,"x_max":793,"o":"m 781 915 q 747 129 793 475 q 715 -66 735 31 q 667 -249 694 -162 q 602 -411 639 -336 q 517 -540 565 -486 q 410 -626 469 -594 q 279 -657 351 -657 q 226 -645 254 -657 q 174 -615 199 -633 q 134 -576 150 -597 q 117 -536 118 -554 q 135 -506 117 -518 q 200 -494 154 -494 q 301 -460 256 -494 q 381 -366 346 -426 q 444 -225 417 -306 q 492 -51 472 -144 q 526 144 513 43 q 550 347 540 246 q 479 217 518 285 q 398 93 440 149 q 312 1 356 38 q 228 -35 268 -35 q 160 -15 201 -35 q 78 54 118 4 q 8 190 38 104 q -21 407 -21 275 q -17 506 -21 449 q -10 646 -14 563 q -3 845 -7 729 q 0 1119 0 961 q -7 1179 0 1150 q -15 1231 -14 1208 q -2 1266 -15 1253 q 51 1279 11 1279 q 105 1267 72 1279 q 167 1229 138 1254 q 219 1167 197 1204 q 240 1079 240 1129 q 237 981 240 1044 q 228 835 233 917 q 216 663 222 754 q 205 481 210 571 q 198 308 200 390 q 198 161 196 225 q 208 60 200 97 q 231 22 215 22 q 302 70 260 22 q 390 190 344 118 q 481 346 436 263 q 563 500 526 429 q 571 680 568 594 q 575 833 574 765 q 576 947 576 900 q 576 1011 576 994 q 574 1042 576 1025 q 574 1072 571 1058 q 588 1095 576 1086 q 626 1104 599 1104 q 681 1092 653 1104 q 731 1057 708 1081 q 767 998 753 1033 q 781 915 781 963 m 361 1369 q 339 1294 361 1317 q 285 1272 317 1272 q 257 1279 272 1272 q 228 1298 242 1286 q 207 1326 215 1310 q 199 1358 199 1342 q 224 1421 199 1400 q 275 1443 250 1442 q 304 1440 289 1444 q 332 1426 319 1436 q 353 1402 344 1417 q 361 1369 361 1388 m 658 1369 q 649 1324 658 1343 q 624 1294 639 1306 q 590 1278 608 1283 q 554 1272 571 1272 q 531 1283 542 1272 q 513 1311 521 1294 q 501 1347 506 1328 q 496 1383 496 1367 q 522 1429 496 1417 q 572 1443 547 1442 q 600 1440 585 1444 q 628 1426 615 1436 q 650 1402 642 1417 q 658 1369 658 1388 z "},"":{"ha":829,"x_min":83,"x_max":675,"o":"m 139 619 q 264 637 208 629 q 373 649 319 644 q 483 653 426 653 q 611 646 539 653 q 660 626 646 646 q 672 584 675 607 q 647 542 668 561 q 590 522 625 522 q 458 531 508 528 q 366 534 408 533 q 274 533 324 535 q 144 528 225 532 q 103 539 118 526 q 85 568 88 551 q 96 600 83 585 q 139 619 108 615 z "},"{":{"ha":407,"x_min":22,"x_max":300,"o":"m 276 -94 q 297 -101 293 -94 q 291 -115 300 -107 q 261 -130 282 -124 q 208 -136 240 -136 q 176 -131 193 -136 q 150 -115 158 -126 q 132 -92 142 -107 q 114 -57 122 -78 q 99 -11 106 -36 q 93 42 93 14 l 93 90 q 94 171 93 128 q 94 256 94 214 q 92 338 93 299 q 86 406 90 376 q 68 483 78 451 q 49 536 58 515 q 32 569 39 557 q 22 586 25 581 l 22 592 l 22 594 q 32 613 25 600 q 49 646 39 625 q 68 699 58 667 q 86 778 78 731 q 92 845 90 807 q 94 926 93 883 q 94 1011 94 968 q 93 1093 93 1054 l 93 1142 q 99 1194 93 1169 q 114 1240 106 1219 q 132 1274 122 1260 q 150 1297 142 1289 q 176 1313 158 1308 q 210 1318 194 1318 q 265 1312 244 1318 q 292 1297 285 1306 q 294 1283 299 1289 q 276 1276 290 1276 q 260 1263 267 1276 q 249 1228 253 1250 q 244 1179 246 1207 q 243 1124 243 1151 l 243 1072 q 244 930 244 1006 q 235 797 243 854 q 201 659 219 708 q 153 592 182 610 q 201 524 182 574 q 235 388 219 474 q 244 253 243 328 q 243 111 246 179 l 243 58 q 244 3 243 31 q 249 -46 246 -24 q 260 -81 253 -68 q 276 -94 267 -94 z "},"}":{"ha":407,"x_min":43,"x_max":321,"o":"m 67 -94 q 83 -81 76 -94 q 94 -46 90 -68 q 99 3 97 -24 q 100 58 100 31 l 100 111 q 99 253 97 179 q 108 388 100 328 q 142 524 124 474 q 190 592 161 574 q 142 659 161 610 q 108 797 124 708 q 102 860 104 826 q 99 931 100 894 q 99 1003 99 967 q 100 1072 99 1039 l 100 1124 q 99 1179 100 1151 q 94 1228 97 1207 q 83 1263 90 1250 q 67 1276 76 1276 q 49 1283 53 1276 q 51 1297 44 1289 q 78 1312 58 1306 q 133 1318 99 1318 q 167 1313 149 1318 q 193 1297 185 1308 q 211 1274 201 1289 q 229 1240 221 1260 q 244 1194 238 1219 q 250 1142 250 1169 l 250 1093 q 249 1011 250 1054 q 249 926 249 968 q 251 845 250 883 q 257 778 253 807 q 275 699 265 731 q 294 646 285 667 q 310 613 303 625 q 321 594 318 600 l 321 592 l 321 586 q 310 569 318 581 q 294 536 303 557 q 275 483 285 515 q 257 406 265 451 q 251 338 253 376 q 249 256 250 299 q 249 171 249 214 q 250 90 250 128 l 250 42 q 244 -11 250 14 q 229 -57 238 -36 q 211 -92 221 -78 q 193 -115 201 -107 q 167 -131 185 -126 q 135 -136 150 -136 q 82 -130 103 -136 q 52 -115 61 -124 q 47 -101 43 -107 q 67 -94 50 -94 z "},"|":{"ha":268,"x_min":63,"x_max":207,"o":"m 207 1053 q 207 991 207 1046 q 206 851 207 936 q 201 661 204 767 q 194 446 199 556 q 185 232 190 336 q 172 47 179 128 q 155 -84 164 -35 q 133 -133 146 -133 q 103 -83 115 -133 q 82 51 90 -32 q 69 242 74 135 q 64 463 65 349 q 63 688 63 576 q 63 890 63 799 q 65 1043 64 981 q 65 1122 65 1106 q 66 1149 65 1138 q 72 1169 67 1161 q 89 1183 78 1178 q 119 1188 100 1188 q 156 1174 140 1188 q 183 1140 172 1161 q 201 1096 194 1119 q 207 1053 207 1072 z "},"~":{"ha":692,"x_min":68,"x_max":618,"o":"m 510 439 q 410 431 456 439 q 325 415 364 424 q 253 398 286 406 q 189 390 219 390 q 134 417 160 390 q 92 475 108 443 q 72 533 76 507 q 79 560 68 560 q 97 556 90 560 q 113 547 104 551 q 138 538 122 542 q 182 533 153 533 q 242 540 211 533 q 305 555 272 547 q 374 569 338 563 q 456 576 411 576 q 541 547 507 576 q 594 481 575 517 q 615 415 613 444 q 608 385 618 385 q 592 393 597 385 q 579 412 588 401 q 556 431 571 422 q 510 439 540 439 z "},"":{"ha":849,"x_min":-3,"x_max":810,"o":"m 676 333 q 694 356 676 353 q 734 347 713 358 q 774 311 756 335 q 792 254 792 288 q 786 206 792 246 q 758 119 781 165 q 690 37 736 74 q 565 0 644 0 q 407 31 478 0 q 283 121 336 63 q 199 263 231 179 q 157 449 167 346 q 92 456 124 451 q 29 465 60 461 q 3 490 10 471 q -1 526 -3 508 q 11 557 1 544 q 36 564 21 569 q 93 553 64 558 q 154 544 122 549 q 156 584 154 564 q 160 625 157 604 q 122 630 140 628 q 86 635 104 632 q 61 658 68 640 q 56 694 54 676 q 69 725 58 713 q 94 733 79 738 q 133 726 114 729 q 175 718 153 722 q 239 906 196 818 q 341 1058 282 993 q 475 1161 400 1124 q 636 1199 550 1199 q 722 1177 689 1199 q 775 1120 756 1156 q 802 1040 794 1085 q 810 949 810 996 q 790 909 810 931 q 748 875 771 888 q 706 866 725 863 q 686 901 686 869 q 685 967 686 928 q 680 1044 685 1007 q 664 1108 675 1082 q 632 1135 653 1135 q 549 1103 589 1135 q 477 1013 510 1071 q 420 874 444 954 q 383 699 396 794 q 552 699 467 696 q 724 717 638 703 q 753 715 742 719 q 767 701 765 710 q 761 684 769 693 q 732 668 753 675 q 548 623 638 636 q 374 610 458 610 q 372 569 372 590 q 369 528 371 549 q 517 531 443 526 q 665 547 590 536 q 695 545 683 550 q 709 532 707 540 q 703 515 711 524 q 674 499 694 506 q 519 458 594 471 q 371 442 444 444 q 401 268 376 340 q 455 149 425 196 q 515 81 485 103 q 563 58 544 58 q 589 76 575 58 q 615 119 603 93 q 639 178 628 146 q 658 242 650 211 q 672 297 667 272 q 676 333 676 322 z "},"":{"ha":919,"x_min":54,"x_max":882,"o":"m 160 232 q 220 218 194 232 q 262 183 246 204 q 285 137 278 163 q 293 89 293 111 q 278 57 293 72 q 240 31 263 42 q 190 15 217 21 q 139 8 163 8 q 100 18 115 8 q 75 44 85 28 q 60 78 65 60 q 56 115 56 97 q 60 153 54 133 q 81 191 67 174 q 114 220 94 208 q 160 232 133 232 m 454 232 q 515 218 489 232 q 556 183 540 204 q 580 137 572 163 q 588 89 588 111 q 572 57 588 72 q 534 31 557 42 q 484 15 511 21 q 433 8 457 8 q 394 18 410 8 q 369 44 379 28 q 355 78 360 60 q 350 115 350 97 q 355 153 349 133 q 375 191 361 174 q 408 220 389 208 q 454 232 428 232 m 749 232 q 809 218 783 232 q 851 183 835 204 q 874 137 867 163 q 882 89 882 111 q 867 57 882 72 q 828 31 851 42 q 778 15 806 21 q 728 8 751 8 q 689 18 704 8 q 664 44 674 28 q 649 78 654 60 q 644 115 644 97 q 649 153 643 133 q 669 191 656 174 q 703 220 683 208 q 749 232 722 232 z "},"":{"ha":817,"x_min":-3,"x_max":793,"o":"m 764 288 q 778 285 779 292 q 764 271 776 278 q 666 222 729 250 q 533 167 603 194 q 394 119 463 140 q 281 93 326 99 q 189 97 228 86 q 122 119 150 108 q 114 132 111 125 q 124 139 117 139 q 289 162 196 142 q 474 206 382 182 q 644 253 565 231 q 764 288 722 276 m 775 397 q 788 395 783 399 q 792 385 792 392 q 790 372 793 379 q 776 361 786 365 q 698 333 739 346 q 617 315 657 321 q 603 301 613 304 q 578 310 592 299 q 564 336 564 321 q 565 363 564 344 q 567 403 565 381 q 569 449 568 425 q 569 490 569 472 q 566 569 569 538 q 559 622 563 601 q 555 652 556 642 q 560 667 554 663 q 575 682 565 676 q 671 714 618 699 q 768 733 724 729 q 783 728 778 735 q 786 713 788 722 q 778 694 785 703 q 761 683 772 685 q 680 669 718 676 q 600 651 642 663 q 631 531 624 617 q 681 542 654 538 q 735 553 708 546 q 746 549 743 554 q 748 538 749 544 q 743 526 747 532 q 731 518 739 519 q 682 506 707 513 q 632 493 657 500 l 632 489 q 628 420 632 457 q 622 358 625 383 q 698 376 661 365 q 775 397 735 386 m 161 215 q 145 231 151 213 q 136 281 139 250 q 133 351 133 313 q 132 428 132 390 q 133 498 132 465 q 135 549 133 531 q 59 526 92 536 q 21 518 26 517 q 4 534 11 521 q 1 558 -3 547 q 26 576 4 567 q 78 592 47 585 q 145 607 108 600 q 216 619 182 614 q 277 624 250 624 q 317 622 304 625 q 334 610 328 619 q 340 589 340 600 q 343 575 343 583 q 342 535 343 560 q 340 456 340 511 q 385 469 363 463 q 432 481 408 475 q 435 547 433 511 q 442 611 438 582 q 451 660 446 640 q 463 682 456 681 q 492 679 478 685 q 506 650 506 674 q 505 629 506 640 q 504 600 504 618 q 503 557 504 582 q 503 496 503 532 q 515 497 511 496 q 531 494 526 499 q 535 483 536 490 q 526 468 533 475 q 508 458 519 461 l 503 458 l 503 428 q 506 332 503 367 q 510 280 508 297 q 511 257 513 263 q 500 250 510 251 q 478 266 490 247 q 456 314 467 285 q 439 378 446 343 q 432 446 432 414 q 385 437 408 442 q 339 426 363 432 l 339 388 q 340 308 339 338 q 339 264 340 279 q 334 243 338 249 q 321 236 331 238 q 304 250 311 233 q 292 292 297 267 q 285 347 288 317 q 282 404 282 378 q 282 451 282 425 q 283 503 282 478 q 285 550 283 528 q 292 585 288 572 q 250 579 275 585 q 197 567 225 574 q 199 560 199 564 q 198 531 199 557 q 195 467 197 504 q 190 385 193 429 q 183 304 188 342 q 174 242 179 267 q 161 215 168 217 z "},"":{"ha":829,"x_min":83,"x_max":675,"o":"m 139 619 q 264 637 208 629 q 373 649 319 644 q 483 653 426 653 q 611 646 539 653 q 660 626 646 646 q 672 584 675 607 q 647 542 668 561 q 590 522 625 522 q 458 531 508 528 q 366 534 408 533 q 274 533 324 535 q 144 528 225 532 q 103 539 118 526 q 85 568 88 551 q 96 600 83 585 q 139 619 108 615 z "},"":{"ha":1200,"x_min":85,"x_max":1122,"o":"m 1067 553 q 947 540 1019 546 q 789 531 875 535 q 610 524 703 526 q 431 520 517 521 q 270 521 344 519 q 149 526 196 522 q 99 546 113 526 q 88 588 85 565 q 113 631 92 611 q 169 650 133 650 q 297 644 224 646 q 451 640 369 642 q 617 638 532 639 q 783 638 703 638 q 935 640 864 639 q 1061 644 1007 642 q 1103 633 1088 646 q 1120 604 1118 621 q 1110 572 1122 588 q 1067 553 1097 557 z "},"":{"ha":1449,"x_min":-3,"x_max":1358,"o":"m 367 1010 q 328 1008 349 1010 q 290 1001 308 1007 q 256 983 271 994 q 232 951 240 971 q 185 928 204 947 q 156 884 167 910 q 142 828 146 858 q 138 771 138 799 q 144 708 138 740 q 167 647 150 675 q 213 601 183 619 q 288 583 242 583 q 373 607 338 583 q 431 668 408 631 q 463 752 453 706 q 474 844 474 799 q 442 972 474 935 q 367 1010 411 1010 m 339 626 q 307 648 315 626 q 298 703 299 669 q 300 776 297 736 q 303 851 303 815 q 323 880 317 861 q 333 917 329 899 q 342 948 338 935 q 360 961 347 961 q 400 936 386 961 q 417 874 414 911 q 414 794 419 838 q 397 713 408 750 q 370 651 385 676 q 339 626 356 626 m 832 482 q 756 472 796 482 q 697 422 717 463 q 651 400 669 418 q 622 356 632 382 q 607 301 611 331 q 603 243 603 271 q 609 180 603 213 q 633 119 615 147 q 679 74 650 92 q 754 56 708 56 q 840 79 804 56 q 897 140 875 103 q 930 224 919 178 q 940 315 940 269 q 908 444 940 407 q 832 482 876 482 m 804 97 q 772 119 781 97 q 763 175 764 142 q 766 248 763 208 q 769 324 769 288 q 789 352 783 333 q 799 389 794 371 q 808 420 803 407 q 825 433 813 433 q 866 408 853 433 q 883 346 879 383 q 881 265 886 308 q 863 185 875 222 q 836 122 851 147 q 804 97 821 97 m 67 79 q 178 126 119 79 q 297 251 236 174 q 421 428 357 329 q 548 630 485 526 q 674 832 611 733 q 796 1008 736 931 q 911 1133 856 1086 q 1017 1181 967 1181 q 1055 1173 1043 1181 q 1067 1156 1067 1165 q 1061 1140 1068 1147 q 1046 1132 1054 1132 q 981 1082 1022 1132 q 884 950 939 1032 q 764 763 829 868 q 630 549 699 658 q 492 335 561 440 q 358 149 422 231 q 236 17 293 67 q 136 -33 179 -33 q 28 -16 58 -33 q -3 23 -3 1 q 19 62 -3 44 q 67 79 40 79 m 1250 482 q 1174 472 1214 482 q 1115 422 1135 463 q 1069 400 1088 418 q 1040 356 1050 382 q 1025 301 1029 331 q 1021 243 1021 271 q 1027 180 1021 213 q 1051 119 1033 147 q 1097 74 1068 92 q 1172 56 1126 56 q 1258 79 1222 56 q 1315 140 1293 103 q 1348 224 1338 178 q 1358 315 1358 269 q 1326 444 1358 407 q 1250 482 1294 482 m 1222 97 q 1190 119 1199 97 q 1181 175 1182 142 q 1184 248 1181 208 q 1188 324 1188 288 q 1207 352 1201 333 q 1217 389 1213 371 q 1226 420 1221 407 q 1243 433 1231 433 q 1284 408 1271 433 q 1301 346 1297 383 q 1299 265 1304 308 q 1281 185 1293 222 q 1254 122 1269 147 q 1222 97 1239 97 z "},"":{"ha":544,"x_min":160,"x_max":338,"o":"m 238 1093 q 283 1083 264 1093 q 314 1056 301 1072 q 332 1022 326 1040 q 338 986 338 1003 q 326 963 338 974 q 298 943 315 951 q 260 930 281 935 q 222 925 240 925 q 174 951 188 925 q 160 1006 161 978 q 165 1033 160 1018 q 179 1062 169 1049 q 203 1084 189 1075 q 238 1093 218 1093 z "},"":{"ha":860,"x_min":4,"x_max":846,"o":"m 47 15 q 105 88 69 31 q 185 231 140 146 q 280 419 229 315 q 385 631 331 522 q 493 847 439 740 q 598 1044 547 954 q 694 1198 649 1133 q 774 1289 739 1263 q 813 1313 796 1311 q 838 1307 829 1315 q 846 1282 846 1299 q 836 1250 846 1265 q 786 1177 818 1238 q 713 1026 754 1117 q 624 822 672 935 q 524 592 575 710 q 419 361 472 475 q 315 153 365 247 q 218 -5 264 60 q 135 -87 172 -69 q 45 -110 74 -118 q 10 -77 17 -101 q 16 -24 4 -53 q 47 15 28 4 z "},"":{"ha":276,"x_min":63,"x_max":206,"o":"m 78 92 q 76 138 78 114 q 74 183 75 161 q 72 222 74 206 q 71 246 71 239 q 78 269 71 256 q 99 293 86 282 q 126 311 111 304 q 158 318 142 318 q 196 308 190 318 q 201 283 201 299 q 203 172 201 233 q 198 56 206 110 q 166 -33 190 3 q 90 -69 142 -69 q 67 -62 71 -69 q 65 -35 63 -54 q 73 15 68 -17 q 78 92 78 46 z "},"":{"ha":494,"x_min":63,"x_max":417,"o":"m 78 92 q 76 138 78 114 q 74 183 75 161 q 72 222 74 206 q 71 246 71 239 q 78 269 71 256 q 99 293 86 282 q 126 311 111 304 q 158 318 142 318 q 196 308 190 318 q 201 283 201 299 q 203 172 201 233 q 198 56 206 110 q 166 -33 190 3 q 90 -69 142 -69 q 67 -62 71 -69 q 65 -35 63 -54 q 73 15 68 -17 q 78 92 78 46 m 293 92 q 292 138 293 114 q 290 183 290 161 q 288 222 289 206 q 286 246 286 239 q 315 288 288 267 q 378 310 342 310 q 406 290 394 310 q 417 254 417 269 q 415 146 417 204 q 402 39 413 88 q 369 -42 392 -10 q 303 -75 346 -75 q 280 -60 283 -75 q 279 -22 276 -46 q 288 31 282 1 q 293 92 293 61 z "},"":{"ha":1549,"x_min":-32,"x_max":1581,"o":"m 1581 513 q 1563 459 1581 494 q 1522 379 1544 424 q 1482 283 1500 335 q 1464 181 1464 232 q 1481 94 1464 129 q 1513 39 1499 60 q 1529 10 1528 18 q 1499 1 1531 1 q 1447 13 1474 1 q 1394 49 1419 25 q 1349 108 1369 72 q 1317 192 1329 143 q 1221 101 1275 149 q 1110 14 1167 54 q 999 -53 1053 -26 q 907 -79 946 -79 q 817 -60 853 -79 q 771 -19 782 -40 q 709 22 743 -6 q 653 89 675 49 q 549 -32 604 14 q 429 -78 493 -78 q 274 -38 342 -78 q 154 68 206 1 q 67 219 103 135 q 10 394 32 304 q -22 573 -12 485 q -32 735 -32 661 q -25 823 -32 769 q -1 926 -18 876 q 42 1010 15 975 q 106 1046 68 1046 q 154 1042 133 1046 q 192 1151 168 1094 q 254 1253 215 1207 q 349 1328 293 1299 q 482 1358 404 1358 q 690 1313 611 1358 q 811 1190 768 1267 q 894 1284 850 1240 q 986 1360 939 1328 q 1080 1410 1033 1392 q 1168 1429 1126 1429 q 1226 1417 1197 1429 q 1276 1386 1256 1406 q 1297 1452 1282 1413 q 1331 1528 1313 1492 q 1365 1591 1349 1565 q 1392 1617 1382 1617 q 1422 1606 1404 1617 q 1456 1577 1439 1594 q 1483 1540 1472 1560 q 1494 1503 1494 1519 q 1477 1453 1494 1486 q 1438 1383 1460 1421 q 1399 1308 1417 1346 q 1382 1240 1382 1269 q 1384 1214 1382 1222 q 1369 1206 1386 1206 q 1351 1210 1363 1206 q 1326 1224 1339 1214 q 1302 1249 1314 1233 q 1282 1289 1290 1265 q 1268 1283 1275 1286 q 1251 1281 1261 1281 q 1190 1254 1235 1281 q 1090 1184 1146 1228 q 977 1083 1035 1140 q 876 963 919 1025 q 879 915 878 939 q 881 868 881 892 q 876 792 881 833 q 863 701 872 750 q 894 717 882 706 q 1001 823 946 775 q 1106 906 1056 871 q 1200 961 1157 942 q 1274 981 1243 981 q 1317 967 1294 981 q 1358 935 1339 954 q 1388 892 1376 915 q 1400 851 1400 869 q 1353 804 1400 840 q 1238 714 1307 768 q 1087 590 1168 660 q 936 441 1006 521 q 820 274 867 361 q 774 100 774 188 q 781 55 774 74 q 797 21 788 36 l 808 21 q 897 49 847 21 q 999 121 946 78 q 1105 215 1053 164 q 1201 312 1157 265 q 1278 393 1246 358 q 1325 438 1311 428 q 1349 512 1335 476 q 1376 574 1363 547 q 1401 616 1389 600 q 1421 632 1414 632 q 1475 620 1447 632 q 1526 591 1503 608 q 1565 552 1550 574 q 1581 513 1581 531 m 657 868 q 656 984 657 918 q 647 1108 656 1050 q 620 1208 639 1167 q 565 1249 601 1249 q 515 1227 542 1249 q 465 1172 489 1206 q 418 1096 440 1138 q 378 1014 396 1054 q 351 939 361 974 q 342 886 342 904 q 346 833 342 857 q 349 792 350 810 q 336 764 347 774 q 294 754 325 754 q 222 772 261 754 q 213 692 217 736 q 210 597 210 649 q 213 526 210 578 q 225 406 217 474 q 247 267 233 339 q 280 134 260 194 q 327 35 300 74 q 390 -4 354 -4 q 460 39 426 -4 q 523 153 493 82 q 577 317 553 225 q 619 505 601 408 q 647 696 638 601 q 657 868 657 790 z "},"":{"ha":264,"x_min":54,"x_max":197,"o":"m 182 1075 q 183 1029 182 1053 q 185 983 185 1006 q 188 944 186 961 q 189 921 189 928 q 181 897 189 910 q 161 874 174 885 q 133 856 149 863 q 101 849 118 849 q 64 858 69 849 q 58 883 58 868 q 56 995 58 933 q 62 1110 54 1057 q 93 1200 69 1164 q 169 1236 117 1236 q 192 1228 188 1236 q 194 1202 197 1221 q 187 1152 192 1183 q 182 1075 182 1121 z "},"":{"ha":272,"x_min":63,"x_max":206,"o":"m 78 1000 q 76 1046 78 1022 q 74 1092 75 1069 q 72 1131 74 1114 q 71 1154 71 1147 q 78 1177 71 1164 q 99 1201 86 1190 q 126 1219 111 1213 q 158 1226 142 1226 q 196 1217 190 1226 q 201 1192 201 1207 q 203 1080 201 1142 q 198 965 206 1018 q 166 875 190 911 q 90 839 142 839 q 67 847 71 839 q 65 873 63 854 q 73 923 68 892 q 78 1000 78 954 z "},"":{"ha":510,"x_min":63,"x_max":432,"o":"m 78 1000 q 76 1046 78 1022 q 74 1092 75 1069 q 72 1131 74 1114 q 71 1154 71 1147 q 78 1177 71 1164 q 99 1201 86 1190 q 126 1219 111 1213 q 158 1226 142 1226 q 196 1217 190 1226 q 201 1192 201 1207 q 203 1080 201 1142 q 198 965 206 1018 q 166 875 190 911 q 90 839 142 839 q 67 847 71 839 q 65 873 63 854 q 73 923 68 892 q 78 1000 78 954 m 304 1000 q 303 1046 304 1022 q 301 1092 301 1069 q 299 1131 300 1114 q 297 1154 297 1147 q 305 1177 297 1164 q 325 1201 313 1190 q 353 1219 338 1213 q 385 1226 368 1226 q 422 1217 417 1226 q 428 1192 428 1207 q 430 1080 428 1142 q 424 965 432 1018 q 392 875 417 911 q 317 839 368 839 q 293 847 297 839 q 292 873 289 854 q 299 923 294 892 q 304 1000 304 954 z "},"":{"ha":510,"x_min":54,"x_max":424,"o":"m 408 1075 q 410 1029 408 1053 q 412 983 411 1006 q 414 944 413 961 q 415 921 415 928 q 408 897 415 910 q 388 874 400 885 q 360 856 375 863 q 328 849 344 849 q 290 858 296 849 q 285 883 285 868 q 283 995 285 933 q 288 1110 281 1057 q 319 1200 296 1164 q 396 1236 343 1236 q 419 1228 414 1236 q 421 1202 424 1221 q 413 1152 418 1183 q 408 1075 408 1121 m 182 1075 q 183 1029 182 1053 q 185 983 185 1006 q 188 944 186 961 q 189 921 189 928 q 181 897 189 910 q 161 874 174 885 q 133 856 149 863 q 101 849 118 849 q 64 858 69 849 q 58 883 58 868 q 56 995 58 933 q 62 1110 54 1057 q 93 1200 69 1164 q 169 1236 117 1236 q 192 1228 188 1236 q 194 1202 197 1221 q 187 1152 192 1183 q 182 1075 182 1121 z "}}}
